<svg width="36" height="31" viewBox="0 0 36 31" fill="none" xmlns="http://www.w3.org/2000/svg">
    <path d="M28.5 9.9082V6.9082H30.25V0.908203H26.75V3.9082H25V9.9082H16.25V6.9082H18V0.908203H14.5V3.9082H12.75V9.9082H0.5V12.9082H11V14.4082H9.25V18.9082H0.5V21.9082H7.5V24.9082H5.75V30.9082H9.25V29.4082V27.9082H11V21.9082H19.75V23.4082V24.9082H18V30.9082H21.5V27.9082H23.25V21.9082H35.5V18.9082H25V17.4082H26.75V12.9082H35.5V9.9082H28.5ZM23.25 14.4082H21.5V18.9082H12.75V17.4082H14.5V12.9082H23.25V14.4082Z"
          fill="#00C74F"/>
</svg>
