<?xml version="1.0" encoding="UTF-8"?>
<svg id="Skull" xmlns="http://www.w3.org/2000/svg" viewBox="0 0 1276 1507" style="position: absolute;">
    <defs>
        <mask id="myMask">
            <!--
                The white color will show the underlying content,
                while the black color will hide it.
            -->
            <!--            <rect x="0" y="0" width="100%" height="100%" fill="white"/>-->
            <!--            <circle cx="50%" cy="50%" r="30%" fill="black"/>-->
            <g style="fill: none; isolation: isolate;">
                <path d="m941.94,494.55l-1.12-1.85-1.12-1.85c-9.49-17.93-20.62-26.92-28.39-33.51-4.43-3.58-8.31-7.18-11.62-10.8l-1.1-1.21-1.1-1.21c-13.22-12.55-20.36-22.22-27.49-32.5-17.47-25.3-33.77-44.31-76.83-60.34l-.53.03-.53.03c-17.59-5.7-40.38-7.97-68.76-6.18-18.26,1.15-35.91,4.08-47.27,6.01-6.18.99-11.84,1.95-14.92,2.75-1.54.1-3.59.22-5.13.92-27.55,5.33-50.83,22.37-65.93,34.04l-.5.03c-14.02,10.36-35.43,21.68-49.29,26.59-6.42,2.72-13.8,1.92-19.7-1.31-2.45-1.05-4.42-2.72-7.35-4.34l-.49.03-2.45-1.05c-9.77-5.96-24.37-14.57-43.72-13.45-.96.06-2.41.14-3.37.19l-.48.03-.48.03c-19.21,2.86-44.48,8.96-67.18,35.77l-1.88,2.42-1.88,3c-10.34,16.16-14.09,30.23-17.37,42.53-.94,4.67-2.34,9.35-4.21,15.21v1.16c-4.2,13.46-6.54,27.98-7.93,42.46-.47,5.79-1.4,11.59-2.8,17.4-2.33,7.57-4.65,17.44-5.58,21.5-3.72,12.2-10.67,32.52-14.84,39.52l-.92,1.75-.92,1.74c-.92,1.74-1.85,4.06-3.23,6.39-7.84,15.08-19.79,37.62-20.71,66.26v6.3c0,4.01.46,8.58,1.38,12.59l3.67,13.16c.92,2.29.92,5.15.46,7.45-.46,2.87-1.84,5.16-3.21,6.88-20.58,24.01-29.69,38.81-40.12,55.82-2.26,3.4-4.53,7.36-7.24,11.31l-.45,1.13-.45,1.13c-21.6,39.41-24.74,65.39-13.07,117.22v1.13c2.7,11.99,6.3,24.59,10.81,36.1,2.26,5.76,4.52,11.53,6.33,17.28,13.6,39.84,28.17,81.05,67.23,110.67l1.39.65,1.39.65c20.44,12.7,39.61,16.71,57.96,20.12,5.19.89,10.87,1.81,17.03,3.34l.95.06.95.06c21.92,3.06,47.85,6.97,74,8.54,41.12,2.48,69.84-1.15,91.29-10.04,5.01-2.1,10.03-3.61,15.56-4.5,8.06-1.34,22.73-1.11,46.64-.96l.51.03.51.03c6.14-.26,9.72-.06,12.28.09,2.05.12,3.59.2,5.13.29,2.06.12,3.6.2,5.14.29,7.21.41,14.44-.4,21.16-1.24l2.59-.46,2.59-1.07c37.04-10.8,78.24-78.22,78.24-78.22,11.18-19.27,24.01-41.65,29.37-75.5,3.22-19.72,2.15-40.81,1.07-61.27-1.07-18.6-2.68-49.57,3.22-57.54l2.15-3.07,2.15-3.07c6.46-11.71,16.17-20.31,28.08-24.57,24.5-8.55,43.13-25.34,59.66-52.91,9.96-15.73,17.72-32.75,22.72-51.06,3.34-11.38,5.57-22.76,6.68-34.76l.56-2.53c.56-3.16,1.11-6.96,1.67-12.02,1.12-8.22,3.35-16.47,6.14-24.1,5.59-14.02,8.95-28,11.19-42.61v-1.9c3.36-23.51,7.86-54.69-6.16-87.1Z"
                      style="fill: #fff;"/>
            </g>
        </mask>
    </defs>
</svg>
