<svg xmlns="http://www.w3.org/2000/svg" version="1.1" xmlns:xlink="http://www.w3.org/1999/xlink" xmlns:svgjs="http://svgjs.dev/svgjs" viewBox="0 0 800 800"><defs><linearGradient x1="50%" y1="0%" x2="50%" y2="100%" id="ccchaos-grad"><stop stop-color="#FD6C9E" stop-opacity="1" offset="0%"></stop><stop stop-color="#fbbffa" stop-opacity="1" offset="100%"></stop></linearGradient></defs><g stroke-width="2" stroke="url(#ccchaos-grad)" fill="none" stroke-linecap="round"><path d="M407.91 115.46C417.96 118.86 428.12 122.47 438.36 126.11 448.6 129.22 458.93 132.14 469.27 134.82 479.61 136.77 489.93 138.46 500.16 139.94 510.31 140.81 520.26 141.63 529.92 142.5 539.35 143.07 548.32 143.94 556.7 145.22 564.66 146.54 571.85 148.49 578.16 151.12 583.92 154.07 588.71 157.83 592.49 162.37 595.82 167.37 598.29 173.18 600.03 179.72 601.77 186.71 603.21 194.38 604.64 202.62 606.83 211.22 609.59 220.29 613.2 229.74 618.23 239.41 624.45 249.37 631.9 259.52 640.73 269.79 650.45 280.2 660.7 290.67 671.22 301.19 681.26 311.74 690.16 322.28 697.7 332.83 703.06 343.36 705.81 353.84 706.27 364.32 704 374.74 699.24 385.08 693.05 395.42 685.53 405.67 677.45 415.79 670.24 425.91 664.18 435.64 659.79 444.95 657.77 454.23 657.71 463.06 659.38 471.41 662.89 479.69 667.17 487.45 671.58 494.64 676.06 501.75 679.44 508.26 681.25 514.17 681.67 520 679.95 525.24 676.09 529.91 670.55 534.58 663.15 538.79 654.24 542.59 644.36 546.59 633.65 550.37 622.52 554.08 611.38 558.27 600.39 562.65 589.77 567.35 579.77 572.87 570.36 578.96 561.55 585.74 553.5 593.53 545.95 602.12 538.79 611.48 532.2 621.74 525.78 632.6 519.39 643.87 513.3 655.49 507.03 667.02 500.5 678.11 494.05 688.66 487.22 698.08 479.96 705.99 472.69 712.43 464.96 716.82 456.76 718.9 448.53 719.09 439.84 716.9 430.73 712.43 421.59 706.49 412.05 698.83 402.13 689.87 392.2 680.69 382.16 671.41 372.05 662.53 361.96 654.83 351.83 648.24 341.69 642.98 331.6 639.56 321.53 637.58 311.55 636.94 301.65 637.91 291.89 639.79 282.32 642.27 272.9 645.57 263.74 648.81 254.92 651.67 246.33 654.46 238.16 656.32 230.47 657.06 223.06 657.08 216.17 655.72 209.86 652.96 203.8 649.25 198.28 644.16 193.3 637.82 188.43 630.64 183.98 622.4 179.89 613.29 175.67 603.62 171.64 593.32 167.73 582.58 163.47 571.56 159.2 560.29 154.89 548.92 150.16 537.48 145.4 526.06 140.68 514.73 135.69 503.44 130.92 492.3 126.51 481.34 122.18 470.45 118.46 459.74 115.47 449.24 112.9 438.79 111.23 428.52 110.5 418.44 110.25 408.39 110.87 398.5 112.3 388.81 113.9 379.11 116 369.81 118.43 360.91 120.59 352 122.85 343.48 125.14 335.36 126.95 327.22 128.76 319.47 130.6 312.12 132.09 304.73 133.79 297.71 135.8 291.06 137.78 284.33 140.3 277.93 143.43 271.82 146.86 265.55 151.04 259.51 155.97 253.64 161.32 247.52 167.42 241.48 174.18 235.48 181.27 229.1 188.9 222.68 196.97 216.16 205.17 209.22 213.65 202.14 222.33 194.93 230.94 187.33 239.65 179.63 248.4 171.92 256.98 163.98 265.57 156.17 274.19 148.6 282.6 141.1 291.05 134.08 299.58 127.68 307.94 121.7 316.41 116.57 325.04 112.42 333.56 108.95 342.28 106.58 351.22 105.38 360.1 104.87 369.26 105.45 378.7 107.09 388.11 109.14 397.84 111.98 407.9 115.46" stroke-dasharray="4 8" transform="rotate(0, 400, 400)" opacity="1.00"></path><path d="M412.05 126.51C421.81 129.88 431.61 133.47 441.42 137.1 451.23 140.22 461.03 143.2 470.78 145.95 480.49 148.01 490.1 149.83 499.51 151.44 508.8 152.43 517.8 153.36 526.41 154.3 534.77 154.89 542.61 155.72 549.8 156.87 559.64 158.84 574.68 166.03 579.8 171.58 582.69 175.92 584.97 181 586.77 186.8 588.81 193.01 590.79 199.89 592.97 207.35 596.03 215.17 599.75 223.48 604.36 232.21 610.28 241.19 617.26 250.49 625.26 260.04 634.35 269.73 644.06 279.6 654.01 289.57 663.97 299.62 673.24 309.72 681.27 319.84 687.9 329.99 692.42 340.12 694.49 350.19 694.49 360.29 692.01 370.31 687.3 380.22 681.36 390.15 674.22 399.95 666.58 409.58 659.73 419.22 653.88 428.44 649.51 437.23 647.26 445.99 646.79 454.3 647.91 462.11 650.8 469.88 654.5 477.14 658.47 483.87 664.42 493.61 668.94 510.41 665.8 517.59 661.55 522.3 655.48 526.66 647.85 530.77 639.18 535.14 629.48 539.42 619.13 543.75 608.54 548.59 597.81 553.7 587.22 559.19 577 565.45 567.18 572.27 557.82 579.74 549.08 588.09 540.81 597.11 532.95 606.76 525.62 617.12 518.55 627.89 511.63 638.88 505.04 650.04 498.43 660.96 491.68 671.29 485.1 680.99 478.25 689.53 471.1 696.56 463.99 702.2 456.51 705.88 448.64 707.41 440.76 707.22 432.49 704.87 423.82 700.42 415.14 694.67 406.08 687.35 396.66 678.82 387.24 670.1 377.71 661.24 368.12 652.72 358.55 645.21 348.94 638.67 339.35 633.29 329.82 629.56 320.34 627.13 310.98 625.93 301.71 626.24 292.61 627.45 283.75 629.28 275.04 631.99 266.63 634.78 258.59 637.35 250.77 640.01 243.36 641.96 236.44 643 229.76 643.51 223.57 642.85 217.9 640.95 212.41 638.25 207.4 634.28 202.83 629.13 198.29 623.21 194.07 616.23 190.13 608.36 185.98 599.91 181.96 590.76 177.99 581.08 173.65 571.06 169.27 560.7 164.85 550.13 160.02 539.41 155.18 528.61 150.42 517.83 145.44 507.02 140.71 496.29 136.37 485.69 132.15 475.12 128.55 464.7 125.71 454.46 123.28 444.26 121.74 434.24 121.13 424.41 120.98 414.6 121.68 404.97 123.17 395.55 124.82 386.12 126.97 377.1 129.43 368.49 131.64 359.86 133.95 351.62 136.27 343.77 138.13 335.89 139.97 328.38 141.81 321.24 143.27 314.04 144.9 307.18 146.76 300.63 148.55 293.98 150.8 287.59 153.59 281.45 156.61 275.12 160.33 268.96 164.75 262.92 169.56 256.61 175.1 250.34 181.31 244.07 187.88 237.44 195.03 230.75 202.66 223.97 210.49 216.8 218.67 209.52 227.11 202.14 235.57 194.45 244.19 186.71 252.9 179.02 261.5 171.19 270.16 163.53 278.85 156.19 287.38 148.98 295.95 142.29 304.56 136.25 313.03 130.65 321.59 125.91 330.25 122.13 338.81 119 347.52 116.93 356.41 115.98 365.23 115.67 374.27 116.4 383.53 118.11 392.78 120.21 402.28 123.05 412.04 126.51" stroke-dasharray="0 7" transform="rotate(4.04, 400, 400)" opacity="0.96"></path><path d="M414.68 137.56C424.11 140.9 433.5 144.45 442.82 148.06 452.13 151.2 461.35 154.21 470.43 157.03 479.45 159.2 488.27 161.14 496.81 162.87 505.23 164.01 513.27 165.06 520.85 166.09 528.21 166.74 535 167.57 541.15 168.65 549.55 170.36 562.35 176.52 566.88 181.29 569.64 185.01 572 189.43 574.13 194.52 576.66 199.97 579.33 206.07 582.36 212.75 586.3 219.77 590.94 227.3 596.43 235.26 603.1 243.48 610.65 252.07 619 260.92 628.18 269.95 637.7 279.19 647.2 288.57 656.51 298.05 664.97 307.62 672.11 317.22 677.86 326.88 681.59 336.53 683.05 346.13 682.64 355.77 680.01 365.33 675.37 374.78 669.68 384.24 662.93 393.57 655.72 402.72 649.21 411.87 643.59 420.61 639.25 428.92 636.82 437.21 635.97 445.05 636.59 452.43 638.88 459.77 642 466.64 645.49 473.03 651.08 482.35 656.64 498.78 654.86 506.07 651.77 510.95 646.96 515.61 640.62 520.11 633.2 524.93 624.65 529.77 615.27 534.74 605.45 540.23 595.27 546.03 584.99 552.23 574.86 559.14 564.92 566.58 555.29 574.59 546.11 583.33 537.3 592.63 528.87 602.41 520.91 612.7 513.24 623.25 505.78 633.84 498.66 644.44 491.62 654.66 484.57 664.2 477.7 673.05 470.71 680.71 463.53 686.9 456.42 691.76 449.05 694.79 441.39 695.83 433.74 695.31 425.76 692.81 417.47 688.41 409.17 682.86 400.54 675.87 391.61 667.77 382.67 659.5 373.66 651.07 364.61 642.89 355.59 635.61 346.56 629.14 337.59 623.68 328.67 619.7 319.84 616.87 311.16 615.16 302.58 614.86 294.2 615.42 286.09 616.62 278.13 618.73 270.48 621.01 263.22 623.21 256.14 625.64 249.48 627.54 243.27 628.73 234.46 629.5 219.23 624.87 212.66 619.28 208.34 614.51 204.26 608.72 200.38 602.03 196.24 594.79 192.15 586.81 188.09 578.23 183.63 569.29 179.13 559.92 174.59 550.24 169.68 540.38 164.79 530.34 160 520.22 155.06 510.03 150.4 499.85 146.15 489.73 142.08 479.6 138.63 469.58 135.93 459.7 133.67 449.85 132.26 440.14 131.77 430.61 131.72 421.09 132.5 411.75 134.04 402.6 135.74 393.45 137.91 384.69 140.4 376.32 142.65 367.94 145.01 359.93 147.37 352.29 149.28 344.6 151.16 337.26 153.02 330.24 154.48 323.15 156.06 316.36 157.82 309.83 159.46 303.18 161.48 296.74 163.96 290.49 166.62 284.05 169.9 277.72 173.82 271.47 178.1 264.95 183.07 258.44 188.7 251.91 194.69 245.05 201.29 238.12 208.39 231.12 215.75 223.77 223.52 216.35 231.6 208.89 239.78 201.16 248.18 193.47 256.72 185.87 265.23 178.2 273.84 170.78 282.5 163.71 291.06 156.84 299.67 150.51 308.31 144.86 316.85 139.67 325.45 135.31 334.11 131.9 342.7 129.12 351.39 127.35 360.19 126.63 368.95 126.52 377.87 127.38 386.94 129.16 396 131.3 405.25 134.13 414.67 137.55" stroke-dasharray="10 10" transform="rotate(8.08, 400, 400)" opacity="0.92"></path><path d="M415.49 148.6C424.54 151.9 433.47 155.41 442.26 158.99 451.03 162.14 459.63 165.18 468 168.05 476.32 170.32 484.35 172.39 492.04 174.25 499.61 175.54 506.75 176.72 513.41 177.86 522.83 179.03 538.4 182.07 544.48 184.42 549.8 187.39 558.4 196.57 562.39 202.9 565.55 207.64 568.98 212.99 572.87 218.91 577.65 225.13 583.12 231.87 589.35 239.06 596.58 246.49 604.51 254.31 613.02 262.43 622.09 270.74 631.28 279.28 640.22 288 648.8 296.84 656.42 305.79 662.68 314.81 667.59 323.89 670.59 333 671.5 342.07 670.74 351.18 667.98 360.24 663.45 369.19 658.02 378.16 651.64 387 644.85 395.67 638.7 404.35 633.29 412.63 629.01 420.51 626.43 428.37 625.25 435.82 625.4 442.84 627.12 449.84 629.67 456.43 632.66 462.6 637.79 471.67 643.95 488.1 643.3 495.67 641.23 500.82 637.59 505.84 632.49 510.81 626.33 516.11 618.98 521.52 610.69 527.1 601.84 533.2 592.43 539.62 582.73 546.43 572.97 553.87 563.21 561.78 553.58 570.17 544.23 579.16 535.14 588.57 526.35 598.3 517.93 608.4 509.78 618.59 501.86 628.67 494.26 638.64 486.79 648.11 479.4 656.83 472.21 664.82 464.99 671.63 457.7 677 450.49 681.14 443.13 683.56 435.58 684.15 428.06 683.34 420.31 680.73 412.31 676.4 404.32 671.05 396.08 664.4 387.6 656.73 379.12 648.89 370.62 640.88 362.12 633.06 353.65 626.01 345.22 619.65 336.89 614.15 328.6 609.96 320.44 606.79 312.47 604.63 304.6 603.76 296.95 603.71 289.59 604.3 282.35 605.78 275.44 607.52 268.91 609.3 259.52 612.27 242.95 615.47 235.74 614.89 228.91 612.62 216.46 602.25 210.54 594.31 206.34 588.22 202.16 581.38 197.96 573.9 193.38 566.06 188.76 557.72 184.11 549 179.14 540.07 174.22 530.87 169.44 521.52 164.56 512.07 160 502.53 155.88 493 151.97 483.43 148.69 473.91 146.16 464.47 144.06 455.04 142.81 445.71 142.43 436.53 142.48 427.36 143.33 418.33 144.9 409.47 146.65 400.6 148.84 392.1 151.34 383.96 153.63 375.8 156.02 367.98 158.42 360.49 160.39 352.95 162.32 345.72 164.22 338.77 165.71 331.73 167.27 324.95 168.97 318.38 170.49 311.68 172.32 305.14 174.55 298.75 176.88 292.16 179.76 285.64 183.22 279.17 186.97 272.45 191.38 265.72 196.42 258.96 201.81 251.9 207.8 244.79 214.32 237.61 221.13 230.17 228.38 222.68 236 215.19 243.77 207.53 251.81 199.94 260.06 192.5 268.34 185.07 276.76 177.93 285.27 171.2 293.74 164.7 302.28 158.77 310.85 153.53 319.37 148.75 327.93 144.8 336.54 141.76 345.08 139.32 353.7 137.84 362.39 137.35 371.05 137.42 379.8 138.4 388.64 140.24 397.48 142.4 406.43 145.23 415.48 148.6" stroke-dasharray="5 9" transform="rotate(12.12, 400, 400)" opacity="0.89"></path><path d="M414.36 159.65C423 162.9 431.45 166.36 439.68 169.89 447.89 173.04 455.87 176.1 463.55 179.02 471.18 181.38 478.48 183.56 485.39 185.55 492.19 186.99 498.56 188.31 504.45 189.57 512.8 190.9 526.7 193.91 532.32 196.03 537.51 198.59 546.9 206.47 551.77 211.94 555.63 216.03 559.84 220.69 564.54 225.88 570.07 231.34 576.22 237.31 583.02 243.72 590.61 250.37 598.73 257.4 607.2 264.77 616.01 272.31 624.72 280.12 633.01 288.14 640.81 296.27 647.58 304.56 652.98 312.94 657.09 321.4 659.43 329.91 659.84 338.41 658.78 346.96 655.95 355.47 651.54 363.91 646.37 372.36 640.37 380.71 633.98 388.92 628.17 397.13 623 404.99 618.79 412.48 616.09 419.96 614.62 427.08 614.36 433.83 615.54 440.58 617.53 446.97 620.01 453.02 623.12 459.1 626.04 464.88 628.44 470.39 630.97 478.7 628.7 494.83 623.44 502.99 618.5 508.77 612.37 514.7 605.24 520.85 597.46 527.47 589.01 534.4 580.09 541.7 570.96 549.53 561.64 557.76 552.3 566.36 543.06 575.43 533.95 584.79 525.04 594.34 516.38 604.1 507.94 613.81 499.71 623.3 491.75 632.56 483.94 641.25 476.26 649.14 468.77 656.28 461.33 662.26 453.88 666.87 446.55 670.33 439.14 672.19 431.64 672.38 424.19 671.32 416.59 668.63 408.85 664.39 401.11 659.26 393.2 652.94 385.14 645.68 377.08 638.28 369.05 630.69 361.1 623.22 353.16 616.42 345.31 610.19 337.61 604.69 329.94 600.35 322.44 596.89 315.16 594.33 307.95 592.95 301 592.33 294.34 592.33 287.78 593.21 281.53 594.39 275.65 595.69 267.14 598.15 252 601.25 245.29 601.12 238.78 599.68 226.53 591.72 220.51 585.26 216.21 580.22 211.89 574.45 207.55 568.03 202.85 561.26 198.12 553.95 193.38 546.22 188.38 538.25 183.46 529.96 178.73 521.43 173.95 512.79 169.53 503.99 165.56 495.11 161.84 486.19 158.75 477.23 156.4 468.31 154.48 459.38 153.37 450.5 153.1 441.72 153.25 432.93 154.16 424.25 155.77 415.69 157.54 407.13 159.75 398.89 162.26 390.95 164.57 383.01 166.99 375.35 169.43 367.98 171.46 360.56 173.45 353.4 175.39 346.47 176.93 339.46 178.5 332.64 180.16 326 181.61 319.23 183.31 312.58 185.33 306.02 187.38 299.29 189.9 292.59 192.95 285.92 196.22 279.03 200.09 272.11 204.55 265.17 209.32 257.98 214.69 250.75 220.58 243.48 226.77 236.01 233.43 228.54 240.48 221.11 247.74 213.58 255.31 206.17 263.13 198.97 271.05 191.84 279.15 185.05 287.37 178.69 295.62 172.6 303.95 167.1 312.34 162.29 320.71 157.94 329.13 154.39 337.58 151.71 346.01 149.6 354.47 148.4 362.97 148.13 371.45 148.36 379.98 149.45 388.55 151.35 397.11 153.53 405.72 156.32 414.35 159.64" stroke-dasharray="6 8" transform="rotate(16.16, 400, 400)" opacity="0.85"></path><path d="M411.45 170.69C419.64 173.89 427.58 177.29 435.27 180.77 442.93 183.9 450.31 186.98 457.36 189.93 464.36 192.37 471.01 194.65 477.26 196.76 486.3 199.09 502.08 202.73 508.78 204.38 515.02 205.85 525.93 210.09 531.01 213.19 536.58 216.91 549.45 227.15 557.32 233.7 563.46 238.45 570.12 243.68 577.29 249.35 585.06 255.23 593.17 261.5 601.43 268.11 609.82 274.89 617.95 281.95 625.52 289.25 632.5 296.66 638.42 304.25 643 311.97 646.37 319.77 648.1 327.64 648.08 335.56 646.78 343.51 643.9 351.46 639.63 359.37 634.74 367.3 629.1 375.16 623.11 382.92 617.64 390.68 612.7 398.14 608.58 405.3 605.8 412.45 604.09 419.29 603.44 425.84 604.13 432.39 605.58 438.66 607.55 444.67 610.2 450.73 612.8 456.56 615.06 462.21 617.78 470.8 617.3 487.9 613.49 496.7 609.68 502.91 604.72 509.31 598.76 515.92 592.13 522.95 584.74 530.28 576.76 537.91 568.45 545.98 559.81 554.36 550.99 563.02 542.14 572.01 533.28 581.17 524.49 590.4 515.85 599.7 507.34 608.85 499 617.68 490.85 626.19 482.85 634.07 474.99 641.12 467.29 647.43 459.67 652.61 452.12 656.5 444.67 659.33 437.22 660.7 429.76 660.53 422.35 659.26 414.88 656.52 407.34 652.38 399.82 647.47 392.21 641.48 384.53 634.64 376.84 627.66 369.26 620.48 361.81 613.37 354.37 606.84 347.07 600.76 339.95 595.3 332.86 590.85 325.97 587.16 319.32 584.25 312.72 582.42 306.38 581.28 300.34 580.72 291.52 581.32 275.53 584.28 268.35 585.75 261.44 586.95 248.69 586.19 242.66 583.83 236.38 580.17 223.53 568.46 216.82 560.62 212.01 554.86 207.19 548.55 202.4 541.77 197.41 534.77 192.54 527.39 187.89 519.72 183.25 511.92 178.99 503.9 175.21 495.74 171.69 487.51 168.81 479.19 166.65 470.84 164.91 462.46 163.95 454.08 163.8 445.73 164.04 437.38 165.01 429.08 166.64 420.84 168.43 412.61 170.64 404.63 173.14 396.91 175.48 389.17 177.92 381.68 180.39 374.41 182.48 367.1 184.53 360 186.53 353.07 188.12 346.08 189.73 339.22 191.4 332.5 192.81 325.66 194.41 318.9 196.27 312.2 198.11 305.34 200.34 298.51 203.01 291.68 205.85 284.66 209.22 277.62 213.13 270.56 217.31 263.31 222.05 256.04 227.3 248.77 232.83 241.36 238.85 233.98 245.28 226.7 251.93 219.38 258.93 212.23 266.22 205.34 273.64 198.57 281.29 192.16 289.1 186.22 296.98 180.58 304.98 175.52 313.05 171.15 321.15 167.23 329.31 164.08 337.49 161.77 345.68 159.97 353.9 159.04 362.12 158.97 370.34 159.36 378.58 160.55 386.8 162.48 395.03 164.67 403.25 167.43 411.44 170.69" stroke-dasharray="9 3" transform="rotate(20.200000000000003, 400, 400)" opacity="0.81"></path><path d="M407.11 181.74C414.83 184.87 422.28 188.2 429.44 191.62 436.58 194.73 443.42 197.8 449.92 200.78 456.38 203.29 462.49 205.66 468.22 207.88 476.56 210.43 491.27 214.5 497.71 216.29 503.9 217.82 515.45 221.82 521.21 224.58 527.61 227.81 542.38 236.66 551.13 242.34 557.7 246.45 564.68 251.02 572.02 256 579.78 261.15 587.69 266.7 595.59 272.58 603.44 278.61 610.9 284.94 617.7 291.52 623.86 298.21 628.95 305.11 632.75 312.16 635.44 319.28 636.62 326.52 636.23 333.83 634.74 341.18 631.85 348.57 627.75 355.96 623.13 363.37 617.85 370.75 612.24 378.09 607.1 385.42 602.4 392.52 598.39 399.37 595.55 406.23 593.64 412.85 592.66 419.23 592.89 425.64 593.84 431.85 595.31 437.86 597.48 443.93 599.7 449.86 601.73 455.68 603.77 461.62 605.16 467.51 605.74 473.4 605.78 479.49 604.79 485.66 602.72 491.93 599.91 498.5 596.04 505.25 591.2 512.22 585.71 519.53 579.42 527.09 572.48 534.91 565.14 543.06 557.35 551.44 549.25 559.99 541.02 568.76 532.64 577.59 524.23 586.37 515.85 595.12 507.51 603.63 499.27 611.72 491.14 619.46 483.13 626.52 475.24 632.75 467.46 638.25 459.79 642.69 452.21 645.9 444.72 648.16 437.28 649.07 429.88 648.6 422.53 647.16 415.18 644.39 407.85 640.38 400.52 635.69 393.19 630.03 385.84 623.59 378.5 617.03 371.32 610.25 364.32 603.51 357.32 597.25 350.52 591.36 343.92 585.97 337.33 581.46 330.98 577.59 324.87 574.4 315.88 571.37 299.3 569.26 291.74 569.59 284.44 570.77 271.03 572.73 264.78 572.88 258.45 572.35 245.89 567.77 239.49 563.6 234.92 560.29 230.33 556.33 225.72 551.76 220.85 546.92 215.98 541.53 211.18 535.65 206.24 529.57 201.46 523.09 196.94 516.26 192.47 509.31 188.41 502.08 184.84 494.65 181.55 487.15 178.89 479.5 176.92 471.75 175.37 463.97 174.56 456.12 174.52 448.24 174.85 440.36 175.86 432.46 177.51 424.57 179.3 416.69 181.51 408.99 184 401.49 186.34 393.98 188.79 386.65 191.29 379.49 193.43 372.3 195.54 365.26 197.6 358.35 199.28 351.37 200.94 344.5 202.63 337.72 204.04 330.83 205.6 323.99 207.35 317.2 209.02 310.27 211.02 303.34 213.38 296.42 215.85 289.35 218.78 282.26 222.18 275.18 225.81 267.95 229.94 260.73 234.57 253.54 239.44 246.28 244.79 239.09 250.56 232.04 256.54 225 262.9 218.19 269.58 211.66 276.41 205.29 283.5 199.32 290.78 193.83 298.17 188.66 305.71 184.06 313.35 180.14 321.04 176.64 328.82 173.89 336.63 171.93 344.46 170.44 352.32 169.76 360.18 169.88 368.06 170.42 375.92 171.68 383.75 173.64 391.58 175.83 399.38 178.55 407.1 181.74" stroke-dasharray="9 5" transform="rotate(24.24, 400, 400)" opacity="0.77"></path><path d="M401.88 192.79C409.13 195.84 416.1 199.09 422.78 202.44 429.45 205.52 435.81 208.57 441.86 211.56 450.73 215.35 466.81 221.66 474.03 224.23 480.98 226.17 493.81 229.79 499.93 231.74 506.34 233.71 520.06 239.11 527.74 242.71 533.43 245.32 539.45 248.34 545.8 251.77 552.62 255.33 559.73 259.3 567.04 263.66 574.61 268.16 582.17 273.03 589.56 278.24 596.79 283.57 603.51 289.21 609.52 295.1 614.86 301.09 619.15 307.31 622.23 313.71 624.3 320.18 625 326.79 624.31 333.52 622.66 340.27 619.8 347.11 615.87 353.99 611.53 360.89 606.6 367.82 601.37 374.74 596.56 381.67 592.1 388.43 588.22 395.02 585.35 401.61 583.27 408.03 582 414.3 581.82 420.59 582.3 426.74 583.29 432.78 584.97 438.89 586.79 444.92 588.53 450.89 590.39 457 591.8 463.11 592.57 469.26 592.99 475.59 592.55 482.03 591.2 488.59 589.25 495.41 586.34 502.4 582.53 509.57 578.13 517.02 572.94 524.68 567.06 532.52 560.75 540.6 553.92 548.82 546.7 557.12 539.25 565.53 531.56 573.91 523.72 582.15 515.83 590.27 507.89 598.07 499.96 605.4 492.07 612.34 484.24 618.59 476.5 624.02 468.83 628.76 461.24 632.49 453.75 635.08 446.32 636.82 438.97 637.33 431.69 636.6 424.46 635.02 417.27 632.26 410.14 628.38 403.03 623.92 395.95 618.59 388.92 612.54 381.9 606.39 375.08 600.02 368.47 593.64 361.87 587.67 355.48 581.98 349.32 576.7 343.17 572.16 337.25 568.17 331.58 564.75 323.21 561.18 307.72 557.62 300.59 557.19 293.62 557.66 280.53 558.71 274.28 558.72 267.87 558.32 254.96 554.72 248.34 551.35 243.66 548.68 238.96 545.42 234.26 541.6 229.35 537.55 224.49 532.98 219.73 527.93 214.89 522.7 210.24 517.04 205.89 511.03 201.63 504.88 197.8 498.43 194.46 491.73 191.41 484.96 188.98 477.98 187.23 470.85 185.86 463.68 185.2 456.39 185.26 449 185.67 441.61 186.72 434.15 188.38 426.63 190.17 419.11 192.36 411.72 194.82 404.47 197.16 397.2 199.62 390.06 202.13 383.03 204.32 375.98 206.49 369.02 208.62 362.16 210.37 355.24 212.11 348.38 213.84 341.58 215.29 334.7 216.84 327.84 218.53 321.01 220.1 314.07 221.92 307.13 224.04 300.2 226.2 293.16 228.76 286.12 231.73 279.09 234.85 271.98 238.43 264.9 242.47 257.9 246.71 250.86 251.4 243.95 256.49 237.21 261.8 230.53 267.48 224.11 273.48 218 279.66 212.09 286.11 206.58 292.78 201.57 299.58 196.87 306.55 192.75 313.66 189.27 320.84 186.2 328.12 183.83 335.45 182.21 342.83 181.02 350.24 180.57 357.66 180.86 365.09 181.52 372.52 182.86 379.9 184.83 387.29 187 394.62 189.67 401.87 192.78" stroke-dasharray="10 5" transform="rotate(28.28, 400, 400)" opacity="0.73"></path><path d="M396.42 203.83C403.19 206.8 409.72 209.97 415.97 213.24 422.22 216.26 428.2 219.29 433.89 222.28 442.28 226.14 457.7 232.76 464.8 235.54 471.77 237.72 485.14 241.69 491.78 243.73 498.8 245.69 513.92 250.71 522.28 253.94 528.32 256.24 534.62 258.89 541.17 261.9 548.04 265 555.08 268.46 562.19 272.29 569.4 276.22 576.47 280.49 583.26 285.09 589.79 289.78 595.74 294.78 600.95 300.05 605.5 305.39 609.04 310.97 611.45 316.76 612.96 322.6 613.25 328.62 612.31 334.78 610.56 340.97 607.75 347.28 604.02 353.68 599.95 360.09 595.37 366.58 590.51 373.12 586.01 379.67 581.79 386.12 578.05 392.45 575.18 398.8 572.98 405.04 571.47 411.2 570.93 417.38 570.98 423.49 571.5 429.55 572.71 435.67 574.1 441.77 575.5 447.88 577.13 454.09 578.43 460.36 579.27 466.69 579.91 473.19 579.86 479.8 579.05 486.53 577.79 493.47 575.7 500.56 572.8 507.8 569.39 515.24 565.22 522.84 560.37 530.55 555.11 538.41 549.29 546.33 543.02 554.25 536.48 562.19 529.61 570.01 522.51 577.62 515.29 585.05 507.93 592.11 500.51 598.66 493.06 604.8 485.61 610.27 478.18 614.92 470.79 618.94 463.44 622.01 456.18 624.04 448.95 625.31 441.79 625.48 434.71 624.53 427.67 622.85 420.69 620.12 413.8 616.39 406.92 612.17 400.11 607.16 393.38 601.5 386.65 595.74 380.16 589.77 373.89 583.75 367.62 578.08 361.59 572.61 355.79 567.47 349.98 562.96 344.4 558.89 339.07 555.31 331.15 551.28 316.41 546.43 309.53 545.27 302.72 545.03 289.7 545.02 283.35 544.76 276.79 544.3 263.5 541.25 256.68 538.46 249.54 534.92 235.14 525.03 228.07 518.75 223.38 514.27 218.92 509.37 214.77 504.09 210.76 498.7 207.17 492.98 204.09 486.98 201.3 480.91 199.11 474.59 197.56 468.06 196.38 461.51 195.86 454.77 196.03 447.89 196.51 441.01 197.59 433.99 199.24 426.87 201.03 419.74 203.19 412.68 205.62 405.7 207.94 398.71 210.39 391.78 212.91 384.92 215.14 378.05 217.36 371.22 219.54 364.45 221.38 357.64 223.19 350.85 224.99 344.1 226.51 337.28 228.08 330.48 229.75 323.69 231.27 316.82 232.98 309.96 234.92 303.11 236.85 296.19 239.11 289.28 241.71 282.42 244.41 275.52 247.51 268.68 251 261.94 254.66 255.22 258.73 248.66 263.19 242.3 267.82 236.04 272.82 230.06 278.15 224.43 283.63 219 289.4 213.99 295.42 209.47 301.56 205.26 307.9 201.61 314.4 198.57 320.98 195.91 327.68 193.92 334.47 192.61 341.3 191.69 348.19 191.46 355.1 191.91 362.03 192.68 368.96 194.07 375.86 196.05 382.77 198.2 389.63 200.81 396.41 203.83" stroke-dasharray="8 6" transform="rotate(32.32, 400, 400)" opacity="0.70"></path><path d="M391.4 214.88C397.72 217.76 403.84 220.83 409.72 224.01 415.6 226.97 421.26 229.96 426.68 232.92 434.72 236.83 449.81 243.72 456.94 246.69 464.06 249.1 478.12 253.49 485.28 255.65 492.84 257.67 509.06 262.52 517.85 265.5 524.07 267.57 530.47 269.95 537.01 272.63 543.75 275.36 550.54 278.42 557.28 281.8 564 285.24 570.49 289 576.59 293.08 582.37 297.21 587.55 301.64 591.97 306.35 597.19 313.6 601.42 329.33 600.25 337.7 598.44 343.36 595.71 349.17 592.18 355.12 588.39 361.07 584.14 367.15 579.64 373.33 575.45 379.52 571.48 385.66 567.89 391.76 565.05 397.87 562.77 403.94 561.06 409.97 560.2 416.03 559.87 422.08 559.97 428.13 560.71 434.23 561.67 440.36 562.7 446.53 564.02 452.79 565.14 459.13 565.93 465.54 566.65 472.09 566.83 478.75 566.41 485.53 565.67 492.45 564.23 499.5 562.09 506.66 559.53 513.96 556.28 521.34 552.39 528.78 548.12 536.29 543.3 543.79 537.99 551.21 532.4 558.59 526.44 565.79 520.17 572.71 513.75 579.41 507.12 585.7 500.35 591.47 493.51 596.83 486.59 601.53 479.65 605.46 472.69 608.81 465.74 611.28 458.83 612.8 451.93 613.66 445.08 613.53 438.3 612.4 431.53 610.65 424.84 607.96 418.23 604.4 411.63 600.42 405.1 595.73 398.66 590.45 392.23 585.09 386.03 579.5 380.06 573.86 374.09 568.49 368.34 563.26 362.82 558.28 357.29 553.84 351.97 549.74 346.87 546.04 339.27 541.66 324.97 535.68 318.21 533.86 311.45 532.92 298.3 531.76 291.8 531.13 285.08 530.47 271.45 527.59 264.51 525.15 257.33 522.16 243.09 513.74 236.24 508.35 231.74 504.5 227.51 500.25 223.61 495.62 219.87 490.91 216.56 485.85 213.75 480.49 211.23 475.07 209.28 469.38 207.94 463.44 206.94 457.48 206.56 451.29 206.82 444.92 207.36 438.54 208.47 431.98 210.11 425.27 211.88 418.56 213.99 411.86 216.38 405.17 218.67 398.49 221.11 391.82 223.62 385.18 225.87 378.53 228.13 371.89 230.37 365.27 232.29 358.62 234.18 351.98 236.06 345.35 237.65 338.68 239.28 332.01 240.97 325.35 242.48 318.65 244.14 311.95 245.97 305.28 247.74 298.58 249.78 291.9 252.09 285.3 254.45 278.69 257.14 272.18 260.18 265.8 263.33 259.47 266.85 253.32 270.71 247.41 274.72 241.63 279.07 236.14 283.74 231 288.54 226.09 293.64 221.59 298.98 217.57 304.44 213.85 310.12 210.66 315.97 208.05 321.9 205.8 327.98 204.15 334.17 203.14 340.41 202.48 346.73 202.44 353.08 203.03 359.47 203.9 365.88 205.33 372.28 207.3 378.68 209.41 385.07 211.95 391.39 214.87" stroke-dasharray="5 6" transform="rotate(36.36, 400, 400)" opacity="0.66"></path><path d="M387.45 225.92C393.35 228.7 399.09 231.67 404.65 234.75 410.21 237.64 415.61 240.57 420.84 243.49 431.34 248.45 441.3 253.2 450.82 257.67 460.68 260.89 470.48 264.09 480.43 267.44 491.17 270.04 502.43 273.26 514.22 277.26 526.81 281.08 539.65 285.99 552.16 292.02 564.23 298.17 574.7 305.5 582.57 313.89 588.14 322.42 590.08 331.92 588.14 342.24 586.3 347.42 583.68 352.78 580.36 358.31 576.85 363.83 572.93 369.52 568.77 375.36 564.89 381.2 561.17 387.06 557.74 392.92 554.96 398.78 552.62 404.66 550.76 410.55 549.25 422.41 549.29 434.44 550.18 446.66 552.35 459.18 553.68 472.09 553.44 485.33 552.4 498.98 548.95 512.97 543.17 527.01 536.1 541.08 527.01 554.72 516.42 567.32 505.13 578.94 492.93 588.62 480.29 595.63 467.49 600.56 454.56 602.18 441.76 600.21 435.37 598.42 429.02 595.81 422.74 592.42 416.46 588.68 410.25 584.31 404.11 579.4 397.98 574.42 392.06 569.23 386.36 563.94 380.65 558.89 375.15 553.92 369.85 549.13 359.19 540.94 349.26 533.95 340.02 528.3 330.52 524.76 321.5 522.13 312.87 519.98 303.72 519.04 294.72 517.72 285.82 515.6 276.3 513.68 266.87 510.4 257.74 505.63 248.4 500.59 239.81 493.97 232.43 485.89 225.76 477.55 220.94 467.9 218.36 457.16 217.54 451.75 217.29 446.09 217.64 440.22 218.24 434.33 219.36 428.24 220.98 421.95 222.71 415.67 224.78 409.34 227.11 403 229.37 396.66 231.77 390.29 234.25 383.92 238.53 371.16 242.83 358.31 247.01 345.49 250.11 332.59 253.41 319.67 257.11 306.88 260.4 294.1 264.63 281.57 269.93 269.6 275.47 257.96 282.31 247.22 290.34 237.79 298.79 229.24 308.33 222.44 318.68 217.73 329.31 214.28 340.56 213.08 352.13 214.22 357.95 215.17 363.83 216.63 369.73 218.57 375.63 220.64 381.55 223.1 387.44 225.92" stroke-dasharray="3 6" transform="rotate(40.400000000000006, 400, 400)" opacity="0.62"></path><path d="M385.07 236.97C396.06 242.23 406.64 248.03 416.77 254 426.97 258.97 436.88 263.82 446.58 268.46 456.61 271.97 466.74 275.45 477.08 279.03 488.05 281.85 499.43 285.15 511.11 289.08 523.24 292.72 535.28 297.28 546.66 302.81 557.36 308.33 566.33 314.92 572.76 322.52 577.11 330.17 578.24 338.79 575.98 348.27 571.98 357.76 565.66 368.06 557.9 379.07 551.09 390.09 545.11 401.34 540.56 412.74 538.53 424.22 537.83 435.99 537.97 447.99 539.45 460.22 540.43 472.81 540.3 485.64 539.76 498.71 537.29 511.95 532.81 525.02 527.33 537.95 519.96 550.25 511.08 561.38 501.51 571.51 490.88 579.72 479.61 585.43 468.11 589.31 456.28 590.23 444.41 587.98 432.52 583.99 420.68 577.3 409.05 568.36 397.42 559.17 386.5 549.47 376.29 540.01 366 532 356.3 524.91 347.14 518.9 337.73 514.72 328.67 511.33 319.89 508.45 310.66 506.74 301.54 504.84 292.55 502.4 283.09 500.31 273.82 497.15 264.97 492.77 256.09 488.28 248.05 482.41 241.28 475.22 235.25 467.85 230.99 459.22 228.83 449.48 227.79 439.66 228.83 428.84 231.85 417.14 235.29 405.44 239.78 393.46 244.82 381.36 249.13 369.26 253.51 357.01 257.82 344.75 261.12 332.49 264.55 320.21 268.25 308.13 271.44 296.15 275.37 284.5 280.15 273.48 284.99 262.88 290.95 253.21 297.96 244.86 305.25 237.36 313.58 231.51 322.73 227.62 332.1 224.84 342.15 224.11 352.63 225.49 363.2 227.67 374.07 231.57 385.06 236.97" stroke-dasharray="5 4" transform="rotate(44.44, 400, 400)" opacity="0.58"></path><path d="M384.55 248.02C394.79 253.05 404.85 258.63 414.68 264.42 424.59 269.37 434.41 274.28 444.2 279.04 454.26 282.8 464.51 286.54 474.96 290.35 485.85 293.43 497 296.88 508.22 300.82 519.58 304.41 530.58 308.76 540.67 313.93 549.94 319.01 557.44 325.04 562.53 331.98 565.82 338.93 566.26 346.8 563.8 355.53 559.96 364.27 554.13 373.84 547.03 384.21 540.75 394.58 535.05 405.28 530.46 416.23 528.01 427.25 526.66 438.6 526.1 450.19 526.86 461.94 527.38 473.98 527.14 486.16 526.84 498.43 525.01 510.7 521.53 522.64 517.34 534.29 511.45 545.19 504.11 554.85 496.17 563.52 487.1 570.36 477.25 574.89 467.14 577.84 456.53 578.15 445.69 575.7 434.81 571.81 423.81 565.57 412.86 557.31 401.9 548.85 391.49 539.83 381.63 530.91 371.7 523.16 362.19 516.07 353.1 509.83 343.79 505.14 334.72 501.13 325.86 497.58 316.65 495.15 307.55 492.65 298.61 489.8 289.38 487.4 280.43 484.19 272 480 263.69 475.83 256.29 470.5 250.17 464 244.8 457.39 241.11 449.63 239.36 440.78 238.62 431.88 239.76 421.97 242.72 411.15 246.06 400.33 250.4 389.16 255.31 377.8 259.61 366.46 264.04 354.94 268.45 343.41 271.95 331.92 275.53 320.46 279.3 309.25 282.51 298.2 286.27 287.56 290.7 277.6 295.04 268.09 300.31 259.53 306.49 252.26 312.82 245.79 320.09 240.86 328.18 237.74 336.41 235.58 345.35 235.26 354.82 236.83 364.34 239.06 374.3 242.85 384.55 248.02" stroke-dasharray="1 0" transform="rotate(48.48, 400, 400)" opacity="0.54"></path><path d="M385.95 259.06C395.49 263.86 405.04 269.19 414.54 274.78 424.11 279.66 433.74 284.57 443.43 289.4 453.34 293.37 463.45 297.34 473.69 301.36 484.19 304.7 494.79 308.32 505.23 312.34 515.58 315.98 525.36 320.23 534.07 325.17 541.91 329.96 548.01 335.57 551.91 342 554.27 348.39 554.16 355.64 551.59 363.72 547.95 371.79 542.62 380.7 536.16 390.42 530.4 400.14 525.01 410.26 520.46 420.65 517.68 431.1 515.79 441.88 514.59 452.88 514.65 463.95 514.64 475.24 514.14 486.56 513.82 497.84 512.35 508.99 509.56 519.67 506.33 529.99 501.64 539.46 495.62 547.67 489.13 554.96 481.52 560.53 473.03 564.01 464.31 566.14 454.95 565.97 445.19 563.39 435.37 559.64 425.28 553.84 415.06 546.27 404.84 538.51 394.97 530.19 385.48 521.83 375.94 514.4 366.68 507.42 357.71 501.07 348.57 496.01 339.58 491.5 330.78 487.4 321.73 484.31 312.8 481.23 304.1 477.95 295.26 475.16 286.78 471.77 278.91 467.62 271.28 463.59 264.58 458.61 259.16 452.62 254.45 446.6 251.31 439.54 249.96 431.49 249.48 423.4 250.71 414.35 253.59 404.41 256.81 394.47 260.98 384.14 265.72 373.62 269.98 363.12 274.42 352.45 278.89 341.79 282.56 331.2 286.31 320.69 290.19 310.47 293.48 300.47 297.19 290.92 301.42 282.08 305.44 273.69 310.22 266.26 315.76 260.05 321.33 254.57 327.75 250.51 334.93 248.09 342.18 246.48 350.15 246.52 358.7 248.24 367.29 250.5 376.4 254.16 385.95 259.06" stroke-dasharray="1 2" transform="rotate(52.52, 400, 400)" opacity="0.51"></path><path d="M389.1 270.11C397.98 274.64 407 279.71 416.08 285.06 425.22 289.82 434.51 294.68 443.9 299.53 453.43 303.64 463.12 307.78 472.84 311.98 482.67 315.56 492.43 319.37 501.84 323.5 511.02 327.23 519.47 331.47 526.78 336.27 533.24 340.89 538.07 346.2 540.91 352.23 542.49 358.19 541.97 364.93 539.37 372.44 535.97 379.92 531.13 388.21 525.3 397.28 520.04 406.36 514.99 415.82 510.54 425.57 507.53 435.34 505.22 445.41 503.47 455.64 502.87 465.89 502.3 476.26 501.44 486.53 500.92 496.71 499.56 506.62 497.2 515.98 494.61 524.92 490.81 532.99 485.86 539.82 480.58 545.83 474.23 550.25 466.99 552.8 459.55 554.24 451.4 553.68 442.72 551.04 433.98 547.48 424.83 542.13 415.39 535.22 405.95 528.16 396.67 520.52 387.62 512.76 378.54 505.72 369.61 498.94 360.88 492.6 352.03 487.32 343.28 482.44 334.7 477.92 325.98 474.27 317.41 470.68 309.13 466.97 300.84 463.77 292.98 460.13 285.79 455.93 278.91 451.91 272.98 447.12 268.26 441.51 264.21 435.92 261.61 429.43 260.62 422.07 260.38 414.69 261.68 406.43 264.45 397.36 267.54 388.28 271.52 378.85 276.06 369.23 280.23 359.64 284.63 349.91 289.11 340.22 292.92 330.64 296.81 321.17 300.8 312.04 304.23 303.15 307.98 294.74 312.11 287.05 315.97 279.79 320.43 273.46 325.52 268.27 330.54 263.72 336.3 260.46 342.74 258.68 349.2 257.56 356.34 257.9 364.1 259.72 371.86 261.98 380.22 265.48 389.1 270.11" stroke-dasharray="2 3" transform="rotate(56.56, 400, 400)" opacity="0.47"></path><path d="M393.61 281.16C401.83 285.41 410.27 290.18 418.83 295.26 427.43 299.86 436.21 304.62 445.06 309.41 453.99 313.6 463 317.86 471.94 322.18 480.86 325.96 489.57 329.94 497.8 334.16 505.69 338.02 512.79 342.29 518.75 347.01 523.93 351.53 527.62 356.63 529.57 362.35 530.52 367.97 529.7 374.28 527.15 381.27 524.01 388.23 519.66 395.92 514.43 404.33 509.67 412.74 504.98 421.5 500.69 430.49 497.55 439.5 494.92 448.74 492.73 458.06 491.55 467.36 490.44 476.68 489.17 485.81 488.33 494.79 486.9 503.42 484.72 511.42 482.5 519.02 479.31 525.74 475.16 531.29 470.8 536.12 465.49 539.53 459.33 541.29 453.03 542.16 445.98 541.3 438.33 538.67 430.63 535.32 422.42 530.43 413.8 524.17 405.17 517.79 396.57 510.84 388.06 503.7 379.53 497.09 371.06 490.6 362.71 484.4 354.3 479.02 345.97 473.93 337.8 469.12 329.59 465.04 321.56 461.02 313.88 456.96 306.28 453.36 299.16 449.47 292.74 445.17 286.67 441.07 281.52 436.38 277.51 431.05 274.11 425.77 272.01 419.75 271.35 412.99 271.33 406.23 272.66 398.72 275.32 390.49 278.25 382.26 282.01 373.74 286.32 365.06 290.35 356.43 294.67 347.71 299.11 339.07 303 330.54 306.99 322.18 311.08 314.19 314.66 306.43 318.48 299.17 322.59 292.63 326.4 286.48 330.68 281.19 335.47 276.96 340.12 273.27 345.4 270.74 351.27 269.51 357.11 268.81 363.59 269.4 370.66 271.28 377.72 273.5 385.38 276.82 393.61 281.16" stroke-dasharray="5 0" transform="rotate(60.599999999999994, 400, 400)" opacity="0.43"></path><path d="M398.91 292.2C406.49 296.16 414.28 300.62 422.2 305.38 430.14 309.78 438.23 314.37 446.35 319.05 454.48 323.24 462.6 327.53 470.55 331.9 478.4 335.82 485.92 339.92 492.88 344.21 499.48 348.18 505.27 352.48 509.96 357.14 515.35 364.08 517.88 380.31 514.93 389.78 512.08 396.26 508.21 403.36 503.55 411.09 499.29 418.82 494.98 426.82 490.91 434.99 487.74 443.15 484.9 451.47 482.38 459.77 480.71 468.04 479.12 476.23 477.45 484.15 476.23 491.9 474.6 499.23 472.44 505.92 468.94 514.96 457.98 527.14 450.45 529.51 445.09 529.91 439.01 528.85 432.31 526.28 425.57 523.17 418.27 518.74 410.49 513.13 402.71 507.41 394.83 501.14 386.97 494.63 379.1 488.52 371.22 482.4 363.43 476.43 355.62 471.1 347.87 465.94 340.31 460.98 332.77 456.61 325.45 452.3 318.52 447.97 311.73 444.06 305.44 439.94 299.86 435.54 294.62 431.34 290.26 426.71 286.94 421.6 284.16 416.55 282.53 410.92 282.16 404.71 282.32 398.5 283.67 391.68 286.19 384.27 288.94 376.87 292.46 369.24 296.51 361.54 300.36 353.88 304.52 346.19 308.86 338.64 312.76 331.19 316.8 323.96 320.94 317.11 324.64 310.48 328.54 304.35 332.66 298.91 338.58 291.65 352.16 282.28 360.07 280.58 365.44 280.24 371.38 281.01 377.86 282.91 384.31 285.05 391.34 288.17 398.91 292.2" stroke-dasharray="5 11" transform="rotate(64.64, 400, 400)" opacity="0.39"></path><path d="M404.35 303.25C411.25 306.89 418.34 311.01 425.5 315.43 432.68 319.58 439.94 323.94 447.15 328.44 454.35 332.55 461.44 336.8 468.27 341.13 474.96 345.11 481.25 349.25 486.94 353.56 494.57 359.74 504.41 373.28 506.02 380.85 506.11 385.95 505 391.51 502.73 397.55 500.18 403.55 496.78 410.07 492.69 417.09 488.9 424.1 485 431.3 481.19 438.58 478.07 445.86 475.13 453.19 472.41 460.43 470.37 467.61 468.38 474.64 466.35 481.34 463.81 490.92 457.19 506.69 452.61 512.21 447.39 515.99 433.59 516.92 425.11 513.88 419.23 511.03 412.8 507.07 405.87 502.08 398.94 497.01 391.87 491.42 384.75 485.55 377.64 479.97 370.49 474.3 363.4 468.67 356.33 463.51 349.34 458.43 342.54 453.47 335.81 448.96 329.33 444.49 323.25 440.02 317.35 435.89 311.96 431.62 307.23 427.17 301.04 420.63 293.76 405.94 293.05 397.6 293.36 391.9 294.7 385.73 297.06 379.13 299.61 372.51 302.87 365.79 306.63 359.06 310.25 352.36 314.21 345.7 318.37 339.23 322.21 332.84 326.21 326.72 330.33 320.99 336.07 312.91 348.09 300.11 354.6 295.83 361.23 292.93 376.42 292.29 385.11 294.6 391.03 296.65 397.45 299.54 404.35 303.25" stroke-dasharray="9 0" transform="rotate(68.68, 400, 400)" opacity="0.35"></path><path d="M409.25 314.29C421.66 320.8 434.5 328.85 446.97 337.57 459.24 345.18 470.63 353.43 479.89 362.12 488 369.93 492.98 378.76 493.89 388.64 493.26 398.22 489.03 409.34 481.82 421.92 475.55 434.48 468.94 447.38 462.79 459.76 458.75 471.9 454.49 482.98 449.51 491.86 445.27 499.68 439.18 504.43 431.1 505.2 422.98 504.41 412.69 499.63 400.52 491.03 388.35 482.18 375.6 471.77 363.06 461.08 350.68 451.71 338.76 442.31 328.29 433.1 318.54 424.95 310.92 416.22 306.45 406.75 303.39 397.57 303.8 387.08 307.93 375.4 312.67 363.72 319.61 352 327.64 341.06 334.74 330.41 342.6 321.03 350.94 313.84 358.41 307.48 366.93 303.81 376.57 303.44 385.91 303.96 396.83 307.59 409.25 314.29" stroke-dasharray="1 0" transform="rotate(72.72, 400, 400)" opacity="0.32"></path><path d="M412.99 325.34C423.95 331.18 434.96 338.47 445.36 346.46 455.55 353.67 464.65 361.56 471.71 369.85 477.9 377.49 481.39 385.95 481.59 395.14 480.79 404.1 477.11 414.19 470.95 425.25 465.5 436.3 459.45 447.3 453.51 457.57 449.12 467.62 444.46 476.49 439.3 483.3 434.84 489.31 429.05 492.67 421.78 492.74 414.57 491.71 405.61 487.44 395.11 479.99 384.6 472.35 373.62 463.22 362.91 453.63 352.38 444.94 342.4 436 333.82 427.15 325.89 419.08 319.88 410.59 316.58 401.7 314.35 393.05 315.01 383.54 318.79 373.36 323.07 363.17 329.33 353.28 336.66 344.3 343.4 335.54 350.93 328.07 358.92 322.56 366.25 317.65 374.43 315.06 383.4 315.21 392.13 315.98 402.04 319.35 412.99 325.34" stroke-dasharray="5 1" transform="rotate(76.76, 400, 400)" opacity="0.28"></path><path d="M415.12 336.39C424.55 341.51 433.72 347.96 442.09 355.11 450.27 361.74 457.3 369.05 462.48 376.73 467.06 383.96 469.41 391.84 469.17 400.2 468.34 408.4 465.23 417.36 460.08 426.86 455.44 436.36 450.07 445.5 444.54 453.77 440.08 461.86 435.28 468.74 430.1 473.78 425.51 478.25 419.98 480.51 413.42 480.11 406.96 478.99 399.21 475.26 390.3 468.94 381.39 462.49 372.23 454.66 363.42 446.3 354.78 438.48 346.75 430.29 340.02 422.09 333.8 414.42 329.25 406.43 326.96 398.28 325.43 390.31 326.26 381.85 329.66 373.13 333.43 364.4 338.94 356.22 345.46 349.03 351.63 341.98 358.61 336.18 366.03 332.11 373.01 328.42 380.67 326.69 388.85 327.2 396.86 328.1 405.68 331.15 415.12 336.39" stroke-dasharray="0 5" transform="rotate(80.80000000000001, 400, 400)" opacity="0.24"></path><path d="M415.36 347.43C423.22 351.81 430.59 357.33 437.07 363.52 443.42 369.39 448.65 375.92 452.31 382.77 455.6 389.34 457.13 396.41 456.68 403.76 455.92 411.01 453.39 418.73 449.21 426.64 445.38 434.55 440.76 441.91 435.83 448.34 431.59 454.64 426.94 459.79 421.98 463.37 417.45 466.59 412.26 468 406.42 467.34 400.68 466.24 394.06 463.1 386.7 457.9 379.34 452.6 371.97 446.1 365.03 439.03 358.21 432.28 352.04 425.08 347.02 417.8 342.35 410.85 339.08 403.65 337.62 396.43 336.66 389.34 337.57 382.02 340.53 374.73 343.76 367.44 348.45 360.85 354.05 355.24 359.48 349.73 365.68 345.36 372.29 342.45 378.65 339.77 385.55 338.68 392.76 339.4 399.88 340.32 407.49 342.98 415.36 347.43" stroke-dasharray="2 0" transform="rotate(84.84, 400, 400)" opacity="0.20"></path><path d="M413.68 358.48C426.22 365.51 436.18 376.26 441.39 388 445.81 399.14 444.94 411.98 438.34 424.6 432.61 437.22 424.12 447.13 414.92 452.19 406.81 456.42 396.48 454.93 384.76 446.85 373.04 438.53 362.18 426.54 354.89 414.15 348.47 402.47 346.73 389.79 351.4 378.05 356.76 366.32 366.53 357.62 377.77 353.51 388.54 349.84 401.14 351.24 413.68 358.48" stroke-dasharray="1 10" transform="rotate(88.88, 400, 400)" opacity="0.16"></path><path d="M410.3 369.53C419.63 374.95 426.58 383.31 429.93 392.49 432.97 401.41 432.28 411.47 427.48 420.89 423.15 430.3 416.36 437.19 408.84 440.37 401.89 443.15 393.5 441.82 384.72 435.8 375.93 429.65 368.37 420.56 363.67 410.99 359.41 401.72 358.56 391.74 362.27 382.88 366.38 374.01 373.88 367.83 382.58 365.19 391.13 362.72 400.97 363.98 410.3 369.53" stroke-dasharray="8 5" transform="rotate(92.92, 400, 400)" opacity="0.13"></path><path d="M405.64 380.57C417.95 387.86 422.9 403.28 416.61 415.75 411.14 428.2 398.35 432.57 386.58 424.76 374.8 416.71 368.2 400.8 373.14 388.87 378.81 376.92 393.32 373.06 405.64 380.57" stroke-dasharray="9 7" transform="rotate(96.96, 400, 400)" opacity="0.09"></path></g></svg>
