<?xml version="1.0" encoding="utf-8"?>
<!-- Generator: Adobe Illustrator 27.7.0, SVG Export Plug-In . SVG Version: 6.00 Build 0)  -->
<svg xmlns:xlink="http://www.w3.org/1999/xlink" version="1.1" xmlns="http://www.w3.org/2000/svg" x="0px" y="0px"
     viewBox="0 0 1695 1860" enable-background="new 0 0 1695 1860" xml:space="preserve">
<g id="Layer_1">
</g>
    <g id="Back" display="none">
</g>
    <g id="Back_00000011715883410946324720000008727957518755627933_" display="none">
</g>
    <g id="Patterns">
</g>
    <g id="Stroke_Base">
</g>
    <g id="Strokes_00000030459055616691488800000000657545366431398069_">
</g>
    <g id="Patterns_00000117650002095936601960000007650837960417762464_">
</g>
    <g id="Skull">
	<g>
		<path fill="none" d="M409.7071533,944.0019531c0.8034668,38.78125,2.0753174,79.0986328,27.7370605,113.1459961l1.0224609,0.84375
			l1.0229492,0.8442383c14.2229004,15.2714844,29.7380371,22.3310547,44.7156982,28.6860352
			c4.2624512,1.730957,8.935791,3.574707,13.8636475,6.0683594l0.8079834,0.21875l0.8082275,0.2192383
			c18.1856689,6.6728516,39.637207,14.8310547,61.9237061,20.8847656
			c22.9433594,6.2319336,41.9783936,9.1098633,58.2974854,9.1098633c8.6247559,0,16.4938965-0.8046875,23.7738037-2.3432617
			c4.3431396-0.9394531,8.5665283-1.4487305,12.9665527-1.4487305c0.5881348,0,1.1802979,0.0087891,1.7755127,0.0273438
			c7.3726807,0.1772461,20.0705566,2.9697266,40.8433838,7.3125l0.4368896,0.1166992l0.4368896,0.1166992
			c5.4108887,0.8408203,8.4781494,1.6586914,10.6713867,2.2436523c1.7558594,0.4682617,3.0736084,0.8198242,4.3919678,1.1713867
			c1.7589111,0.46875,3.0788574,0.8208008,4.3994141,1.1728516c6.1719971,1.6459961,12.6817627,2.1704102,18.7633057,2.578125
			l2.3797607,0.0273438l2.543457-0.5366211c35.1340332-3.4726562,88.7473145-58.534668,88.7473145-58.534668
			c14.7719727-15.8061523,31.7664795-34.1611328,45.2375488-64.3393555
			c7.9189453-17.5322266,12.4575195-37.0405273,16.8280029-55.949707
			c3.8828735-17.1816406,10.4951172-45.7255859,17.6610107-51.9682617l2.6517944-2.4257812l2.6530151-2.4277344
			c8.6060791-9.5483398,19.2219849-15.6992188,30.6193848-17.512207
			c23.3886108-3.5483398,43.7994995-15.6025391,65.1151733-37.7949219
			c12.6018677-12.5541992,23.6275024-26.6484375,32.5790405-42.3618164
			c5.7572021-9.7192383,10.5516357-19.6210938,14.5395508-30.2700195l1.1188965-2.1904297
			c1.277832-2.7597656,2.7144775-6.0888672,4.4691162-10.5566406c3.0317383-7.2260742,7.0302734-14.2783203,11.3547363-20.6762695
			c8.3371582-11.6660156,14.7380371-23.6782227,20.3256836-36.4262695l0.4752197-1.7060547
			c8.7740479-20.5356445,20.4144287-47.7138672,16.4429932-79.0708008l-0.4991455-1.8447266l-0.4989014-1.8442383
			c-3.6816406-17.6088867-10.9929199-27.4995117-16.0146484-34.6791992
			c-2.9078369-3.9335938-5.3308105-7.7895508-7.2705078-11.5698242l-0.6459961-1.2592773l-0.645752-1.2583008
			c-8.1965332-13.3876953-11.8967285-23.1845703-15.4302979-33.5083008
			c-8.6300049-25.3691406-17.8100586-44.9282227-50.5626831-66.2924805l-0.4644165-0.0600586l-0.4643555-0.0605469
			c-13.5769043-7.9707031-32.4319458-13.7685547-57.0720215-16.9233398
			c-15.8508911-2.0292969-31.621521-2.3808594-41.788208-2.5751953c-3.348877-0.0942383-6.5289917-0.1665039-9.1436768-0.1665039
			c-1.6920166,0-3.147644,0.0302734-4.2579346,0.1049805c-0.8157959-0.1049805-1.7972412-0.2314453-2.7767334-0.2314453
			c-0.6234131,0-1.2460327,0.0512695-1.8244629,0.1918945c-24.8098145,0.1069336-48.9769287,11.2602539-64.8120117,19.0458984
			l-0.4346924-0.0581055c-14.5936279,6.8139648-35.7312012,13.2397461-48.7989502,15.2646484
			c-1.3139648,0.2836914-2.6236572,0.4189453-3.9125977,0.4189453c-4.7570801,0-9.2249756-1.8432617-12.5157471-4.8701172
			c-1.8164062-1.3393555-3.0543213-3.1416016-5.1386719-5.0585938l-0.423584-0.0581055l-1.8112793-1.3349609
			c-6.7712402-6.890625-16.9576416-16.9194336-33.6999512-19.1640625c-0.8342285-0.1118164-2.0852051-0.2797852-2.9187012-0.3916016
			l-0.416748-0.0556641l-0.416626-0.0561523c-2.03125-0.0810547-4.1466064-0.1357422-6.3428955-0.1357422
			c-16.2570801,0-36.9108887,2.9951172-60.0782471,20.5068359l-2.2347412,1.8217773l-2.3856201,2.3330078
			c-13.0253906,12.5576172-19.9089355,24.3754883-25.9296875,34.7124023
			c-2.0241699,3.9770508-4.4515381,7.8930664-7.5858154,12.7724609l-0.1522217,0.512207l-0.1520996,0.512207
			c-7.1253662,11.2294922-12.9443359,23.7285156-17.9610596,36.3564453
			c-1.927002,5.0654297-4.2556152,10.0673828-6.9854736,15.0048828
			c-3.9890137,6.3452148-8.5878906,14.7416992-10.4577637,18.2021484
			c-6.407959,10.246582-17.7443848,27.1982422-23.1627197,32.7392578l-1.2543945,1.4018555l-1.2540283,1.4013672
			c-1.2539062,1.4013672-2.6605225,3.3154297-4.4638672,5.1591797
			c-10.7178955,12.1479492-26.9564209,30.2939453-35.4116211,55.7983398l-0.7675781,2.5673828l-0.9212646,3.081543
			c-1.0749512,3.5957031-1.9105225,7.78125-2.1992188,11.5302734l-0.387085,12.4423828
			c0.1723633,2.2133789-0.597168,4.7890625-1.6068115,6.7729492c-1.1636963,2.4990234-2.9605713,4.328125-4.6030273,5.6416016
			c-24.1019287,18.0996094-35.8996582,29.8774414-49.4500732,43.440918
			c-2.8607178,2.6762695-5.8739014,5.8642578-9.2718506,8.9692383l-0.694458,0.9443359l-0.694458,0.9448242
			c-29.2513428,31.9238281-39.0297852,54.9077148-43.1629639,103.9750977l-0.1551514,0.515625l-0.1551514,0.515625
			c-0.9584961,11.3764648-1.3061523,23.4726562-0.574707,34.7441406
			C409.3582764,932.7856445,409.7250977,938.4379883,409.7071533,944.0019531z"/>
        <path fill="none" d="M378.4750977,1122.1503906l2.0402832,2.4770508
			c19.3361816,22.6738281,41.0118408,32.1074219,58.501709,40.3623047c4.6578369,1.9887695,9.7657471,4.109375,14.2670898,6.7016602
			l2.0330811,1.2338867l2.2114258,0.6401367c20.625,8.565918,45.0390625,18.2553711,70.8742676,25.7607422
			c29.2318115,8.4916992,54.1254883,12.7382812,75.4527588,12.7382812c10.5313721,0,20.1933594-1.0356445,29.078125-3.1069336
			c1.8607178-0.3779297,3.6395264-0.46875,5.3930664-0.46875c0.8187256,0,1.631958,0.0195312,2.4453125,0.0395508
			c5.118042,0.125,21.0706787,4.0102539,38.5701904,8.3325195l0.9656982,0.2753906l0.9660645,0.2758789
			c4.53125,0.6186523,7.4366455,1.4472656,9.3753662,2.0004883c1.4550781,0.4150391,2.9110107,0.8300781,3.8820801,1.1069336
			c1.9431152,0.5541992,3.8878174,1.1088867,5.34729,1.5253906c9.2626953,2.6416016,18.4282227,3.8994141,27.8043213,4.5332031
			l5.7750244,0.2836914l5.4727783-0.4848633c51.5657959-5.2514648,128.972168-81.4614258,128.972168-81.4614258
			c17.618042-19.359375,41.5896606-45.3798828,60.8944702-88.3251953
			c11.8604736-26.3666992,17.609314-52.7836914,22.9768066-75.8520508c0.5338745-1.9003906,1.2455444-4.434082,2.1349487-7.6005859
			c2.65625-7.4794922,7.0578003-15.2407227,12.4979858-20.7578125c5.6228638-6.1552734,12.2940063-10.0712891,18.9696655-11.9765625
			c28.7816772-8.5874023,55.6422119-25.8173828,82.4530029-52.659668
			c17.4023438-17.3959961,33.3859863-37.8320312,46.4777832-60.2192383
			c8.4384766-13.8681641,15.4145508-28.6904297,21.2941895-43.7124023l1.2536621-2.4526367
			c0.7055664-2.5532227,2.135376-5.644043,3.5651855-8.734375c2.5073242-4.9052734,4.8383789-9.1723633,7.71875-13.3417969
			c11.3538818-16.0507812,20.6889648-33.1391602,28.5449219-51.1499023l0.5266113-1.9111328
			c11.2385254-26.0947266,30.3161621-70.1621094,22.9277344-120.7075195l-0.4360352-4.6538086l-1.1599121-4.0996094
			c-6.4420166-28.347168-18.3105469-44.9394531-25.3146973-54.3139648
			c-1.6542969-2.1640625-3.3071289-4.3256836-4.7855225-7.1079102l-1.4771729-2.7792969l-1.4754639-2.7763672
			c-6.9678955-11.2226562-9.9238281-18.6733398-13.6252441-29.4052734
			c-11.9337158-32.7480469-25.8421631-61.6503906-71.8635254-90.8286133l-0.8699951-0.722168l-0.8693848-0.722168
			c-19.1959229-11.4887695-44.6994629-18.6674805-76.6934814-22.234375
			c-19.6184692-2.1870117-38.109314-2.4228516-50.3695068-2.5795898c-7.2680054,0.3989258-12.8694458,0.3759766-16.489563,0.574707
			c-0.8267212-0.0932617-1.6530762-0.1860352-2.5949707-0.1860352c-0.7416992,0-1.5551147,0.0576172-2.4963989,0.2182617
			c-35.5543823,0.8071289-67.9886475,16.2924805-87.6374512,25.9584961
			c-8.4967041,3.7719727-17.279541,6.8994141-26.3443604,9.3842773c-2.3703613,0.487793-4.6674805,0.7314453-6.8922119,0.7314453
			c-1.1970215,0-2.3735352-0.0708008-3.5284424-0.2119141c-3.2969971-0.402832-6.2537842-1.9550781-8.5689697-4.0229492
			c-10.4678955-8.9873047-30.8499756-23.2373047-50.2352295-25.5209961
			c-1.838623-0.2167969-3.2167969-0.3793945-5.0532227-0.5957031l-0.9177246-0.1079102l-0.9173584-0.1083984
			c-2.3209229-0.0991211-4.753418-0.1601562-7.2987061-0.1601562c-23.0383301,0-55.0217285,5.0234375-91.4644775,32.4194336
			l-5.3153076,3.9638672l-5.8079834,5.6342773c-20.1402588,19.9765625-31.232666,38.7880859-38.7344971,51.6938477
			c-2.6455078,4.2797852-4.5201416,7.5048828-7.1647949,11.7836914l-0.7700195,1.0537109l-0.7700195,1.0541992
			c-9.2000732,15.5561523-17.8604736,32.3505859-24.3504639,49.4755859
			c-1.9411621,4.965332-2.1086426,5.5244141-3.2124023,7.6943359c-4.3457031,6.9326172-8.7598877,15.609375-11.3995361,19.8789062
			c-6.6448975,10.074707-14.0524902,21.1914062-16.7834473,24.2646484l-1.9633789,2.0239258l-2.1306152,2.5830078
			c-0.7659912,1.0473633-2.7277832,3.0693359-4.0911865,4.6040039
			c-13.6170654,15.3232422-38.6428223,43.300293-51.9525146,84.5180664l-1.5179443,5.0395508l-1.0939941,5.121582
			l-4.307251,12.8115234c-1.6065674,3.8442383-4.2298584,8.0864258-7.1925049,10.4814453
			c-13.9405518,12.1147461-24.2237549,22.5410156-34.4869385,32.9472656
			c-3.2772217,3.4921875-6.3833008,6.4233398-9.6566162,9.9121094l-1.9291992,1.9799805l-1.9284668,1.9799805
			c-40.9428711,44.8432617-57.677124,84.0517578-63.9088135,151.0756836l-0.0997314,1.7885742l-0.0997314,1.7890625
			c-0.869873,13.1020508-1.5996094,28.6958008-0.6750488,44.7446289
			c-0.0581055,6.0825195,0.0554199,11.6040039,0.1690674,17.1318359
			c0.5687256,45.5737305,1.7922363,102.9199219,37.2773438,151.1035156L378.4750977,1122.1503906z M405.5806885,892.0600586
			c0.0233154-0.2768555,0.0753174-0.550293,0.1555176-0.8164062l0.1552734-0.5161133l0.03479-0.1157227
			c4.1945801-49.269043,14.1137695-73.0854492,44.0180664-105.7646484l0.567627-0.7724609l0.694458-0.9443359
			c0.1551514-0.2109375,0.3306885-0.40625,0.5240479-0.5825195c1.852417-1.6928711,3.602417-3.4267578,5.2947998-5.1030273
			c1.3453369-1.3330078,2.6169434-2.5927734,3.8931885-3.7885742c13.6116943-13.6245117,25.3879395-25.4047852,49.777832-43.7250977
			c1.6022949-1.2895508,2.7250977-2.6547852,3.4312744-4.1708984c0.0196533-0.0424805,0.0400391-0.0844727,0.0612793-0.1259766
			c0.8143311-1.6000977,1.2790527-3.4243164,1.1837158-4.6479492c-0.0113525-0.1445312-0.0146484-0.2900391-0.0102539-0.4350586
			l0.387207-12.4423828c0.0018311-0.0610352,0.005127-0.121582,0.0098877-0.1826172
			c0.2960205-3.8442383,1.1542969-8.3525391,2.3549805-12.3691406l0.9212646-3.081543l0.7675781-2.5673828
			c0.0113525-0.0375977,0.0231934-0.0751953,0.0356445-0.112793c8.5800781-25.8808594,24.9019775-44.3745117,35.7026367-56.6123047
			l0.5062256-0.5737305c0.0452881-0.0512695,0.092041-0.1015625,0.1397705-0.1503906
			c1.0126953-1.0351562,1.9006348-2.1137695,2.7593994-3.1572266c0.5460205-0.6630859,1.0617676-1.2895508,1.5834961-1.8725586
			l1.2539062-1.4013672l1.2543945-1.4018555c0.0393066-0.0439453,0.0797119-0.0869141,0.1209717-0.1289062
			c4.6337891-4.7387695,15.0664062-19.9760742,22.5638428-31.9560547
			c1.8636475-3.4462891,6.4680176-11.8457031,10.4693604-18.2211914c2.6033936-4.7192383,4.8552246-9.5615234,6.6939697-14.3950195
			c0.006958-0.0180664,0.0140381-0.0361328,0.0212402-0.0541992c5.7585449-14.4956055,11.6500244-26.4580078,18.0014648-36.5493164
			l0.1469727-0.4946289c0.1072998-0.3608398,0.2652588-0.7050781,0.4688721-1.0219727
			c3.2409668-5.0458984,5.4886475-8.6962891,7.3863525-12.425293c0.0343018-0.0668945,0.0705566-0.1333008,0.1085205-0.1987305
			c6.1795654-10.609375,13.1837158-22.6347656,26.5892334-35.559082l2.3856201-2.3330078
			c0.0861816-0.0839844,0.1761475-0.1645508,0.2695312-0.2407227l2.2348633-1.8217773
			c0.0378418-0.0307617,0.0762939-0.0610352,0.1152344-0.090332c25.2764893-19.105957,47.7697754-21.3154297,62.4902344-21.3154297
			c2.0324707,0,4.1593018,0.0454102,6.5020752,0.1386719c0.1252441,0.0048828,0.2502441,0.015625,0.3746338,0.0322266
			l0.4125977,0.0556641l0.4188232,0.0561523l1.1168213,0.1499023l1.8015137,0.2416992
			c18.2752686,2.4501953,29.2138672,13.3994141,35.7982178,20.0976562l0.8404541,0.6191406
			c0.5443115,0.1767578,1.0469971,0.4692383,1.47229,0.8603516c1.0039062,0.9233398,1.8168945,1.8037109,2.5343018,2.5805664
			c0.8552246,0.9257812,1.5307617,1.6572266,2.2705078,2.2026367c0.116333,0.0859375,0.2279053,0.1782227,0.3342285,0.2758789
			c2.6350098,2.4238281,6.2098389,3.8139648,9.8077393,3.8139648c1.0255127,0,2.0578613-0.1108398,3.0683594-0.3286133
			c0.0767822-0.0166016,0.1540527-0.03125,0.2316895-0.0429688c13.2017822-2.0458984,34.1624756-8.6064453,47.7192383-14.9365234
			c0.4036865-0.1884766,0.8337402-0.3071289,1.2724609-0.3535156c19.1467285-9.3637695,41.7645264-18.7973633,65.2352295-19.0068359
			c0.6972046-0.1308594,1.4401855-0.1948242,2.2556763-0.1948242c1.069519,0,2.0654297,0.1098633,2.9096069,0.2158203
			c1.0813599-0.0600586,2.4367065-0.0893555,4.1251221-0.0893555c2.8964844,0,6.4680786,0.0898438,9.2202148,0.1669922
			c8.9799805,0.171875,25.6951904,0.4916992,42.2196655,2.6069336c24.1060181,3.0864258,43.5717773,8.8139648,57.8768311,17.0283203
			l0.1293945,0.0166016c0.5965576,0.0771484,1.1680298,0.2880859,1.671936,0.6166992
			c34.420166,22.4516602,43.6607666,43.3574219,52.1618652,68.347168
			c3.4488525,10.0766602,6.9624023,19.4936523,15.0571289,32.7148438c0.0524902,0.0859375,0.1015625,0.1733398,0.1474609,0.2626953
			l0.645874,1.2587891l0.645874,1.2587891c1.8325195,3.5712891,4.1634521,7.2783203,6.9282227,11.0180664
			c0.020752,0.0283203,0.0412598,0.0566406,0.0612793,0.0854492l0.6268311,0.894043
			c5.1906738,7.3979492,12.2955322,17.5249023,16.0010986,35.1435547l0.4689941,1.7333984l0.4991455,1.8447266
			c0.0482178,0.1782227,0.0839844,0.359375,0.1071777,0.5424805c4.0917969,32.3076172-7.8597412,60.3769531-16.6290283,80.9013672
			l-0.4040527,1.4511719c-0.0507812,0.1816406-0.1141357,0.3598633-0.1899414,0.5327148
			c-6.2810059,14.3295898-12.8605957,26.1206055-20.7033691,37.1020508
			c-4.5186768,6.6899414-8.1972656,13.3847656-10.9343262,19.8999023c-1.59729,4.0649414-3.0843506,7.5761719-4.5456543,10.7319336
			c-0.0214844,0.046875-0.0441895,0.0927734-0.0675049,0.1386719l-1.0159912,1.9892578
			c-3.986084,10.605957-8.8105469,20.6376953-14.7446289,30.6591797
			c-8.8273926,15.4892578-19.9925537,30.0097656-33.1862183,43.1586914
			c-22.0443726,22.9414062-43.4523315,35.3173828-67.3396606,38.940918
			c-10.4163208,1.6572266-20.1941528,7.2724609-28.2766113,16.2397461c-0.0858154,0.0957031-0.1762085,0.1865234-0.270813,0.2729492
			l-2.6535034,2.4287109l-2.6517944,2.4257812c-0.0239258,0.0214844-0.0480957,0.0429688-0.0725098,0.0644531
			c-6.3809814,5.5585938-13.6502075,37.7246094-16.3911133,49.8530273
			c-4.3939819,19.0107422-8.9375,38.668457-17.0726929,56.6791992
			c-13.8897705,31.1162109-31.6761475,50.1479492-45.9676514,65.4404297
			c-0.0186768,0.0195312-0.0375977,0.0395508-0.0565186,0.059082c-2.2260742,2.2861328-54.8309326,55.9262695-90.9962158,59.7021484
			l-2.3345947,0.4926758c-0.2714844,0.0571289-0.5480957,0.0859375-0.8255615,0.0859375
			c-0.0155029,0-0.0310059,0-0.0465088-0.0004883l-2.3797607-0.0273438
			c-0.0738525-0.0004883-0.1477051-0.003418-0.2214355-0.0083008c-6.3442383-0.425293-13.0778809-0.9848633-19.5263672-2.7041016
			l-0.5014648-0.1342773l-3.8977051-1.0390625l-2.067749-0.5512695l-2.324707-0.6201172
			c-2.1322021-0.5683594-5.0522461-1.347168-10.2547607-2.1557617c-0.1408691-0.0219727-0.2805176-0.0512695-0.418335-0.0883789
			l-0.4364014-0.1166992l-0.3304443-0.0878906l-5.1286621-1.0742188
			c-17.1737061-3.6005859-28.5192871-5.9794922-34.9125977-6.1333008c-0.553833-0.0170898-1.1047363-0.0253906-1.6520996-0.0253906
			c-3.9291992,0-7.894043,0.4443359-12.1392822,1.3623047c-7.62854,1.6123047-15.9055176,2.4296875-24.6009521,2.4296875
			c-17.0185547,0-36.4307861-3.0253906-59.3460693-9.25c-20.1258545-5.4667969-39.4234619-12.5786133-56.4493408-18.8535156
			c-1.9123535-0.7050781-3.793457-1.3979492-5.6411133-2.0761719l-0.6384277-0.1733398l-0.8079834-0.21875
			c-0.2628174-0.0712891-0.5175781-0.1689453-0.760498-0.2919922c-4.3388672-2.1953125-8.4414062-3.8569336-12.4089355-5.4633789
			l-1.1536865-0.4677734c-0.019165-0.0078125-0.038208-0.015625-0.057373-0.0239258
			c-16.027832-6.800293-31.5998535-14.1728516-45.8991699-29.4482422l-0.822998-0.6791992l-1.0224609-0.8432617
			c-0.2419434-0.199707-0.4595947-0.4272461-0.6483154-0.6777344
			c-26.8887939-35.675293-27.7670898-78.0683594-28.5419922-115.4707031
			c-0.0006104-0.0317383-0.0009766-0.0639648-0.0008545-0.0957031c0.0174561-5.4287109-0.3508301-11.1025391-0.7069092-16.5898438
			C404.3179932,916.8857422,404.5186768,904.6655273,405.5806885,892.0600586z"/>
        <path fill="#D35353" d="M365.7470703,628.9907227c4.706665-5.5273438,8.9328613-12.3051758,11.9306641-19.3022461
			c25.8691406-57.9243164,59.6568604-96.2373047,75.0789795-113.9863281l1.9204102-2.0083008l0.7512207-1.0356445
			c0.1668701-0.5488281,0.7515869-1.0356445,0.9182129-1.5849609c1.2515869-2.6831055,2.7546387-4.7548828,3.8394775-6.8896484
			c9.838501-23.7797852,21.7703857-47.253418,35.0581055-69.4116211l1.8389893-3.175293l1.8391113-3.175293
			c0.6605225-0.9111328,0.9974365-1.8657227,2.3074951-4.2236328c-3.7736816,3.8071289-7.5144043,7.6650391-11.2163086,11.5805664
			c-12.8779297,21.7900391-24.1390381,44.2148438-33.4608154,66.7246094
			c-0.3859863,0.7441406-0.8575439,1.5317383-1.3553467,2.362793c-0.7819824,1.3056641-1.668457,2.7856445-2.4758301,4.5166016
			c-0.0147705,0.0317383-0.0290527,0.0634766-0.0429688,0.0957031c-0.0097656,0.0131836-0.0194092,0.0263672-0.0290527,0.0395508
			c-0.192627,0.265625-0.4719238,0.6508789-0.7192383,1.1508789l-0.331543,0.4570312l-1.7329102,1.8120117
			c-0.0439453,0.0458984-0.0866699,0.0932617-0.128418,0.1411133l-0.9031982,1.0390625
			c-15.9667969,18.3647461-49.19104,56.5786133-74.8085938,113.9399414
			c-0.0083008,0.0180664-0.0164795,0.0371094-0.0245361,0.0556641c-2.7885742,6.5087891-6.8013916,13.0019531-11.2993164,18.2841797
			l-22.1672363,26.5405273c-1.4455566,3.6977539-2.8616943,7.4125977-4.2512207,11.1411133
			c1.0070801-1.1420898,1.9952393-2.284668,3.0196533-3.4267578L365.7470703,628.9907227z"/>
        <path fill="#D35353" d="M1157.7275391,1006.6347656c-20.6081543,20.6132812-43.3989258,38.5288086-66.4719238,53.46875
			c-10.8487549,7.2441406-19.6374512,17.7597656-24.5496826,31.3037109
			c-3.8255615,9.6020508-7.470459,18.5483398-11.2982178,28.1557617
			c-33.401001,74.1083984-75.263916,119.621582-94.8240967,139.7836914l-38.8852539,38.9047852
			c5.4592896-3.4306641,10.8822632-6.9731445,16.2688599-10.6186523l25.4454956-25.4584961
			c0.0141602-0.0141602,0.0279541-0.0283203,0.0418091-0.0424805
			c10.0909424-10.4013672,25.4822998-26.9082031,42.5697021-50.0727539
			c20.6095581-27.9384766,38.451355-58.5058594,53.0303345-90.8525391c0.0240479-0.0537109,0.0472412-0.1083984,0.0692139-0.1630859
			c1.9119873-4.7993164,3.7785645-9.4335938,5.6447754-14.0673828c1.8695068-4.6416016,3.7387695-9.2827148,5.6533203-14.0883789
			c0.0153809-0.0385742,0.0302734-0.0776367,0.0444336-0.1166992c4.3736572-12.059082,12.3248291-22.2011719,22.994873-29.3300781
			c24.7148438-16.0063477,47.2888184-34.1669922,67.0952148-53.9780273
			c5.8930664-5.7749023,11.6466064-11.7124023,17.2612305-17.7988281c1.6530762-3.7792969,3.2719727-7.5864258,4.8709717-11.4091797
			C1174.6643066,989.3803711,1166.3435059,998.1914062,1157.7275391,1006.6347656z"/>
        <path fill="#D35353" d="M359.2967529,684.5356445l3.873291-4.0175781
			c2.5267334-2.4921875,4.6368408-5.0654297,6.9942627-6.9970703l17.0065918-22.3911133
			c5.7607422-7.262207,10.4334717-15.3222656,14.0135498-24.1748047
			c22.7283936-52.847168,54.0429688-88.4018555,68.4790039-104.9770508
			c0.7692871-1.0581055,1.9678955-2.0498047,2.5671387-2.5458984l3.338623-3.6054688
			c1.5401611-2.1181641,3.2508545-4.7993164,5.1318359-8.0429688c1.8812256-3.2446289,4.7034912-8.1118164,6.925293-12.4814453
			c9.1213379-22.7255859,20.2275391-44.5708008,32.9008789-65.6230469l1.7145996-2.6884766l1.7149658-2.6889648
			c1.1114502-2.1860352,2.4880371-3.753418,4.5421143-7.5654297c9.5961914-16.8208008,27.5214844-47.7382812,60.4031982-79.8701172
			l11.064209-10.9443359l10.6894531-8.1064453c6.7044678-5.2353516,13.541748-10.0693359,20.4758301-14.5473633
			c-12.9997559,7.4770508-25.8131104,15.5444336-38.4006348,24.1845703l-6.6418457,6.5698242
			c-33.9143066,33.140625-52.2518311,65.2841797-61.0645752,80.7319336c-0.0158691,0.027832-0.0316162,0.0561523-0.046875,0.0844727
			c-1.0297852,1.9106445-1.8793945,3.2202148-2.6291504,4.375c-0.6583252,1.0146484-1.2821045,1.9755859-1.8636475,3.0927734
			l-1.6154785,2.5332031l-1.7147217,2.6884766c-0.0184326,0.0292969-0.0366211,0.0585938-0.0544434,0.0878906
			c-13.1418457,21.8305664-24.2838135,44.0444336-33.1190186,66.0292969
			c-2.157959,4.2280273-4.9077148,8.9707031-6.7347412,12.121582c-1.7528076,3.0229492-3.3570557,5.5478516-4.776123,7.519043
			l-2.9962158,3.2353516c-0.7329102,0.6108398-1.9715576,1.6796875-2.9282227,2.9458008l-0.5268555,0.6044922
			c-14.8847656,17.0849609-45.8579102,52.6352539-68.5091553,105.3032227
			c-0.0114746,0.0263672-0.0227051,0.0532227-0.0336914,0.0805664c-3.4196777,8.4560547-7.9412842,16.2578125-13.4390869,23.1884766
			c-0.0174561,0.0219727-0.0345459,0.0444336-0.0516357,0.0664062l-16.7336426,22.0317383
			c-1.5462646,1.3168945-2.9699707,2.8295898-4.3503418,4.2958984c-0.819458,0.8706055-1.666748,1.7705078-2.5404053,2.6323242
			c-0.0238037,0.0234375-0.0474854,0.0473633-0.0706787,0.0712891l-3.873291,4.0175781l-3.8704834,4.0141602
			c-0.0305176,0.0317383-0.0606689,0.0639648-0.09021,0.0966797c-14.9143066,16.5288086-27.6646729,32.746582-38.6425781,49.1787109
			c-1.0640869,4.0625-2.0939941,8.1245117-3.083252,12.1855469c12.3293457-19.8725586,27.0688477-39.1499023,44.6954346-58.6845703
			L359.2967529,684.5356445z"/>
        <path fill="#D35353" d="M757.1573486,263.8051758c2.1774902,0,4.3536377,0.0375977,6.5356445,0.1142578l1.4077148,0.1362305
			l2.3479004,0.2275391c2.8203125,0.2734375,5.6435547,0.5473633,8.9415283,0.8666992
			c16.0777588,1.5585938,31.0976562,5.4003906,45.3591309,12.1762695c5.7237549,2.5219727,12.0455322,3.800293,18.6674805,3.800293
			c7.5860596,0,15.5665283-1.6762695,23.5029297-5.0800781c23.973999-9.7675781,55.401001-20.1401367,89.2523804-21.887207
			c1.5686035-0.2944336,3.0470581-0.284668,4.3806152-0.4238281c-3.7687988-1.0917969-7.565918-2.1230469-11.3908691-3.0942383
			c-25.8534546,2.1889648-53.3311768,9.3071289-83.7514038,21.7011719c-0.022583,0.0087891-0.0450439,0.0185547-0.0675049,0.027832
			c-7.3583984,3.15625-14.7354736,4.7563477-21.9262695,4.7563477c-6.0849609,0-11.8054199-1.1567383-17.0030518-3.4379883
			c-14.2523193-6.7641602-29.5083008-10.859375-46.6374512-12.5200195l-6.9321289-0.671875l-2.0093994-0.1948242
			l-2.3481445-0.2275391l-1.4080811-0.1362305c-0.081543-0.0078125-0.1634521-0.0131836-0.2454834-0.0161133
			c-2.2086182-0.0771484-4.4547119-0.1166992-6.6755371-0.1166992c-13.022583,0-26.3463135,1.3354492-40.4259033,4.0195312
			c-12.6608887,4.4311523-25.2225342,9.4360352-37.657959,14.987793c9.0683594-3.4819336,18.2109375-6.4057617,27.3878174-8.7319336
			C723.6152344,266.0566406,740.3382568,263.8051758,757.1573486,263.8051758z"/>
        <path fill="#D35353" d="M1137.1356201,971.2231445c-22.4849854,22.6523438-47.527832,41.7890625-73.7572021,56.9907227
			c-6.3012695,3.4863281-11.8487549,8.5532227-16.4641113,14.5380859
			c-4.6125488,5.9819336-8.2980957,12.8867188-10.8753662,20.0546875
			c-4.6029053,14.4765625-10.3167725,28.6943359-16.5856934,42.7817383
			c-29.147583,64.6201172-66.2124634,104.8950195-84.6661987,124.9472656l-36.5437012,37.1240234
			c-52.4620972,49.3823242-105.2405396,75.1323242-160.7958374,79.5473633l-11.2974854,0.7797852l-11.8962402-0.8369141
			c-14.5494385-0.9628906-28.9693604-4.0170898-42.9416504-8.3447266c-1.9897461-0.6162109-4.4747314-1.3862305-6.9573975-2.1547852
			l-0.4962158-0.1538086l-2.4796143-0.7680664c-0.4957275-0.1533203-1.4866943-0.4604492-3.9625244-1.2275391l-2.4733887-0.765625
			l-1.9770508-0.612793l-11.5227051-2.8706055c-5.3983154-1.2045898-10.8687744-2.1186523-16.4311523-2.1186523
			c-2.7241211,0-5.4703369,0.2192383-8.2408447,0.730957c-7.3172607,0.6948242-14.7143555,1.0424805-22.2260742,1.0424805
			c-30.9362793,0-63.8261719-5.8935547-101.1860352-17.6821289c-12.2822266-3.8754883-24.2821045-8.1591797-35.7478027-12.5532227
			c3.8046875,2.9404297,7.6737061,5.7988281,11.5985107,8.5844727c7.4660645,2.6953125,15.1417236,5.3208008,22.9455566,7.7832031
			c38.1031494,12.0229492,71.5950928,17.8676758,102.3897705,17.8676758c7.5913086,0,15.1965332-0.3569336,22.6043701-1.0605469
			c0.1166992-0.0107422,0.2329102-0.0273438,0.3483887-0.0483398c2.4205322-0.4472656,4.878418-0.6645508,7.5141602-0.6645508
			c4.4797363,0,9.2647705,0.6201172,15.5101318,2.0117188l11.3692627,2.8320312l1.8670654,0.5791016l2.4750977,0.7661133
			l1.2700195,0.3935547l2.6936035,0.8339844l2.4777832,0.7675781l0.4953613,0.1538086l5.0682373,1.5693359l1.8900146,0.5854492
			c15.2905273,4.7363281,30.0476074,7.6010742,43.8609619,8.5151367l11.8797607,0.8359375
			c0.0936279,0.0063477,0.1873779,0.0097656,0.2811279,0.0097656c0.0916748,0,0.1834717-0.0029297,0.2750244-0.0092773
			l11.2973633-0.7797852c57.0516357-4.5341797,110.4414062-30.9057617,163.2620239-80.6254883
			c0.0369873-0.034668,0.0734253-0.0703125,0.1090088-0.1064453l36.5437012-37.1240234
			c0.0314331-0.0322266,0.062439-0.0644531,0.0927124-0.0976562
			c18.1637573-19.7368164,55.9567261-60.8037109,85.3691406-126.0112305
			c7.0863037-15.9238281,12.5560303-30.03125,16.7281494-43.1411133
			c2.4821777-6.8818359,6.0273438-13.4150391,10.2543945-18.8974609c4.5095215-5.847168,9.6345215-10.3833008,15.2329102-13.4804688
			c0.0231934-0.0126953,0.0462646-0.0258789,0.0690918-0.0395508
			c27.1427002-15.7304688,52.2254639-35.1083984,74.5532227-57.5957031
			c27.2668457-26.1762695,51.022583-56.480957,70.6113281-90.0771484c3.3344727-5.5947266,6.5300293-11.25,9.5942383-16.9506836
			c1.3529053-5.4472656,2.6374512-10.8798828,3.8586426-16.2978516
			c-5.2456055,10.7089844-10.911499,21.1713867-16.9084473,31.2338867
			C1187.588501,915.4384766,1164.2426758,945.2060547,1137.1356201,971.2231445z"/>
        <path fill="#D35353" d="M1231.0322266,722.0585938l-0.5380859,1.9663086
			c-9.7209473,22.3637695-21.7321777,44.328125-35.6578369,64.5522461l-1.1098633,1.8657227
			c-0.1800537,0.6567383-0.1800537,0.6567383-1.1097412,1.8657227c-1.1096191,1.8652344-1.6500244,3.8354492-2.1905518,5.8061523
			l-1.289917,2.5224609c-7.1159668,19.3999023-16.328125,37.7197266-27.0582275,55.0463867
			c-16.6236572,27.9418945-36.0596924,53.1835938-58.6357422,74.90625
			c-22.1148682,22.4150391-45.0827637,39.6689453-68.3116455,51.8916016
			c-10.2009277,5.3510742-19.2888794,13.0180664-27.2769775,23.0029297
			c-7.9799194,9.9750977-13.4264526,21.2246094-16.8894653,33.6396484
			c-4.1962891,15.0429688-10.2033691,30.3637695-16.5709839,44.9042969
			c-24.3855591,54.2578125-54.3382568,87.3095703-73.0255737,107.0004883l-26.4904175,27.3520508
			c-45.3366699,44.440918-90.6212158,67.9936523-137.6882324,72.3730469l-2.2038574,0.0463867
			c-2.3874512,0.1484375-4.7731934,0.2963867-7.114624,0.2963867c-1.4821777,0-2.9464111-0.0595703-4.3825684-0.215332
			l-2.6958008-0.1030273c-12.2581787-0.859375-24.0965576-2.9960938-35.5158691-6.4013672
			c-1.980957-0.5908203-3.960083-1.1811523-5.9377441-1.7709961l-0.4941406-0.1474609
			c-0.9880371-0.2944336-1.9758301-0.5888672-2.9631348-0.8833008c-0.9869385-0.2944336-2.9595947-0.8828125-6.9005127-2.0581055
			l-1.4760742-0.4404297l-1.4753418-0.4399414c-5.4024658-1.6108398-12.4448242-3.0214844-18.3095703-4.7714844
			c-5.0009766-1.0859375-9.9515381-1.6787109-14.9884033-1.6787109c-3.4918213,0-7.0247803,0.284668-10.6462402,0.887207
			c-6.010376,0.496582-12.175293,0.7519531-18.5093994,0.7519531c-27.5249023,0-58.2958984-4.8232422-93.9864502-15.65625
			c-27.1630859-8.2451172-53.3063965-18.8427734-74.6763916-27.9667969l-2.9595947-1.5571289l-2.9556885-1.5546875
			c-4.2926025-1.9575195-8.8432617-4.6518555-13.1190186-6.6010742
			c-16.1341553-7.6455078-37.227417-17.6992188-58.288208-37.6757812c2.1452637,3.7670898,4.3400879,7.4916992,6.5838623,11.1738281
			c18.3265381,15.105957,36.0289307,23.5004883,49.9914551,30.1166992c0.0178223,0.0083008,0.0356445,0.0166016,0.0537109,0.0249023
			c2.0336914,0.9272461,4.1286621,2.0292969,6.3465576,3.1958008c2.1888428,1.1513672,4.4512939,2.3417969,6.668457,3.3574219
			l2.8565674,1.5029297l2.9594727,1.5571289c0.0953369,0.050293,0.192627,0.0961914,0.291748,0.1386719
			c20.0859375,8.5756836,46.7723389,19.5214844,75.0852051,28.1157227
			c35.0909424,10.6513672,66.2142334,15.8286133,95.1484375,15.8286133c6.3502197,0,12.6884766-0.2573242,18.838623-0.765625
			c0.1094971-0.0087891,0.2186279-0.0224609,0.3270264-0.0405273c3.3685303-0.5605469,6.6362305-0.8325195,9.9898682-0.8325195
			c4.5511475,0,9.1304932,0.5087891,13.9953613,1.5561523c3.0515137,0.9042969,6.3685303,1.7133789,9.5780029,2.4960938
			c3.1038818,0.7568359,6.0356445,1.4716797,8.581665,2.230957l1.4753418,0.4394531l1.4752197,0.4404297l6.9008789,2.0581055
			l0.1566162,0.046875l2.8078613,0.8369141l0.4924316,0.1469727l4.8980713,1.4609375l1.0402832,0.3100586
			c11.6593018,3.4770508,23.8990479,5.6835938,36.3793945,6.5585938c0.0422363,0.0029297,0.0845947,0.0053711,0.1270752,0.0068359
			l2.5587158,0.0976562c1.4366455,0.1503906,2.967041,0.2236328,4.6723633,0.2236328
			c2.444458,0,4.9022217-0.1513672,7.2811279-0.2993164l2.1213379-0.0444336
			c0.0957031-0.0019531,0.1911621-0.0073242,0.286377-0.0161133c48.4273682-4.5058594,94.2602539-28.5478516,140.1179199-73.4995117
			c0.0246582-0.0239258,0.0490723-0.0488281,0.0731201-0.0737305l26.4904785-27.3520508
			c23.682373-24.9541016,50.9453125-57.2905273,73.8006592-108.1435547
			c7.5894775-17.3300781,13.0715942-32.1914062,16.7754517-45.4692383
			c3.4625244-12.4130859,8.7485352-22.9511719,16.1599731-32.215332
			c7.6057739-9.5073242,16.3574219-16.8955078,26.0117188-21.9594727
			c23.9731445-12.6142578,47.2753906-30.3066406,69.2646484-52.5878906
			c22.0733643-21.2460938,42.0057373-46.7080078,59.2446289-75.6777344
			c11.263916-18.1928711,20.4512939-36.8696289,27.3095703-55.5151367l1.1799316-2.3071289
			c0.1245117-0.2436523,0.223877-0.4995117,0.2961426-0.7631836c0.480957-1.7539062,0.8991699-3.2783203,1.6625977-4.6323242
			c0.7653809-0.9975586,1.1436768-1.5224609,1.463623-2.4658203l0.7958984-1.3378906
			c13.7886963-20.0415039,25.8864746-41.9501953,35.9567871-65.1171875
			c0.0759277-0.1748047,0.1394043-0.3549805,0.1896973-0.5390625l0.4645996-1.6972656l0.4793701-1.1142578
			c1.8956299-4.4047852,4.0267334-9.3657227,6.2523193-14.8046875c0.0612793-3.7050781,0.0957031-7.3999023,0.0936279-11.0795898
			C1237.8515625,706.265625,1234.1118164,714.8979492,1231.0322266,722.0585938z"/>
        <path fill="#D35353" d="M377.0192871,720.9296875l2.704834-3.0498047l2.7060547-3.0507812
			c3.1273193-2.9692383,6.4279785-6.5048828,9.5592041-9.4780273c4.4899902-4.5043945,9.1550293-9.5776367,14.0753174-14.0087891
			c3.1420898-2.9833984,6.0338135-6.6152344,8.5030518-10.3286133l7.5823975-11.7119141
			c3.40979-5.3334961,5.9699707-10.8256836,8.1048584-16.3955078
			c18.5955811-49.5859375,47.9088135-82.5400391,62.4044189-99.1137695
			c1.2041016-0.9892578,2.7487793-3.1074219,3.3510742-3.6025391l3.5234375-4.1694336l1.2055664-0.9907227
			c2.1494141-2.6162109,6.3568115-9.0478516,10.1318359-15.550293c2.2276611-4.3803711,6.1737061-11.4487305,9.7807617-17.3896484
			l0.1697998-0.5644531c8.0192871-20.6025391,18.2132568-40.8774414,29.8195801-59.7856445l0.9451904-1.628418l0.9453125-1.628418
			c1.8908691-3.2573242,3.612793-5.9521484,5.6730957-9.7729492c8.5131836-14.6650391,22.8798828-39.6860352,49.6219482-66.137207
			l8.4793701-8.3188477l7.8189697-6.0771484c54.1497803-41.4648438,101.6501465-43.4106445,122.1181641-43.4106445
			c1.6569824,0,3.1347656,0.0126953,4.4266357,0.0180664l0.9333496,0.1000977l1.8676758,0.199707
			c2.3364258,0.25,4.6750488,0.5004883,7.0157471,0.7509766c20.2177734,2.1630859,38.588623,9.5136719,54.7868652,21.4794922
			c2.84375,2.1186523,6.5128174,3.1259766,9.8768311,3.4975586c0.6716309,0.0742188,1.3397217,0.1108398,2.0056152,0.1108398
			c3.1512451,0,6.2668457-0.8261719,9.6186523-2.4511719c21.5111084-10.3569336,60.9561768-29.8413086,105.3659058-31.3886719
			c0.9302368-0.1669922,1.8295898-0.2250977,2.671875-0.2250977c1.1260376,0,2.1500854,0.1040039,3.0106812,0.1914062
			c4.1866455-0.1870117,10.3925171-0.1699219,17.7927856-0.6469727c13.4993286,0.1357422,33.8702393,0.340332,55.418396,2.5087891
			c25.0374756,2.519043,46.602417,7.1743164,65.3306885,13.8422852c-2.8704834-2.4121094-5.7751465-4.7763672-8.7124023-7.0947266
			c-16.7785645-5.0805664-35.413208-8.6342773-56.2178955-10.7275391
			c-21.7245483-2.1860352-42.2141113-2.3920898-55.772522-2.5283203c-0.0141602-0.0004883-0.0285034-0.0004883-0.0428467-0.0004883
			c-0.0863037,0-0.1758423,0.0029297-0.2607422,0.0083008c-4.7228394,0.3046875-9.0426636,0.40625-12.5137329,0.4882812
			c-1.8522949,0.043457-3.4682617,0.081543-4.9060059,0.1416016c-0.8760376-0.0878906-1.9311523-0.1826172-3.1264038-0.1826172
			c-1.083313,0-2.0941772,0.0776367-3.0797119,0.2373047c-44.1116333,1.6083984-83.8158569,20.7460938-105.1670532,31.0371094
			l-1.526123,0.7353516c-2.8956299,1.4038086-5.3977051,2.0551758-7.883667,2.0551758
			c-0.5170898,0-1.0440674-0.0288086-1.5665283-0.0869141c-2.282959-0.2519531-5.5113525-0.9301758-7.9262695-2.7290039
			c-16.9963379-12.5556641-36.0856934-20.0380859-56.7507324-22.2495117l-3.8215332-0.4086914l-3.1942139-0.3422852
			l-1.868042-0.199707l-0.9324951-0.0996094c-0.1357422-0.0146484-0.2723389-0.0224609-0.4088135-0.0229492l-1.2261963-0.0063477
			c-0.9837646-0.0058594-2.0571289-0.0117188-3.2177734-0.0117188c-11.1323242,0-28.3713379,0.6523438-49.461792,6.2915039
			c-26.0384521,6.9628906-51.3017578,19.7290039-75.0882568,37.9433594l-7.8416748,6.0947266
			c-0.1212158,0.0942383-0.2369385,0.1953125-0.3466797,0.3027344l-8.4793701,8.3188477
			c-26.7746582,26.4833984-41.2727051,51.4643555-49.9350586,66.3901367l-0.3449707,0.5942383
			c-0.0209961,0.0361328-0.041626,0.0727539-0.0614014,0.1098633c-1.331543,2.4692383-2.4976807,4.4204102-3.7321777,6.4863281
			c-0.6202393,1.0380859-1.2402344,2.0756836-1.8796387,3.1767578l-0.9451904,1.628418l-0.9195557,1.5844727
			c-11.9909668,19.5400391-22.1220703,39.8564453-30.1135254,60.387207
			c-0.038208,0.0981445-0.0725098,0.1977539-0.1029053,0.2988281l-0.0235596,0.078125
			c-3.3619385,5.5639648-7.2655029,12.5131836-9.6109619,17.1142578c-3.8833008,6.6811523-7.6191406,12.2905273-9.473877,14.6342773
			l-0.8885498,0.7299805c-0.1868896,0.1533203-0.3596191,0.3237305-0.5157471,0.5087891l-3.354248,3.9692383
			c-0.3986816,0.3813477-0.7963867,0.8491211-1.3035889,1.4458008c-0.5063477,0.5952148-1.2717285,1.4956055-1.7008057,1.8481445
			c-0.1694336,0.1391602-0.3270264,0.2919922-0.4714355,0.4570312l-0.8289795,0.9472656
			c-15.3096924,17.4936523-43.8068848,50.0561523-62.3099365,99.3950195
			c-2.2860107,5.9643555-4.8178711,11.0908203-7.7296143,15.6455078l-7.5700684,11.6928711
			c-2.460083,3.6992188-5.1876221,7.0205078-7.8638916,9.5678711c-3.5255127,3.1782227-6.8822021,6.6328125-10.1282959,9.9741211
			c-1.3905029,1.4311523-2.704834,2.7836914-4.0229492,4.1069336c-1.598999,1.5200195-3.2418213,3.1821289-4.8311768,4.7905273
			c-1.5584717,1.5771484-3.1700439,3.2080078-4.6876221,4.6489258c-0.0828857,0.0786133-0.1623535,0.1611328-0.2384033,0.246582
			l-2.7060547,3.0507812l-2.704834,3.050293c-51.3652344,56.7880859-74.4366455,111.0537109-82.2614746,193.5175781
			c-0.0554199,0.5834961,0.0181885,1.1723633,0.2154541,1.7241211l0.402832,1.1269531l-0.1707764,1.4472656
			c-0.0075684,0.0649414-0.0135498,0.1298828-0.0180664,0.1953125c-0.4071045,5.9384766-0.7980957,12.355957-1.0709229,19.1611328
			c0.6694336,17.965332,2.0888672,35.690918,4.2421875,53.1132812c-0.0310059-1.5131836-0.060791-3.0117188-0.0904541-4.4916992
			c-0.2657471-5.0234375-0.3568115-10.6147461-0.2071533-15.5214844c-0.8193359-19.324707,0.0838623-36.921875,1.1169434-51.987793
			l0.2805176-2.3789062l-0.7185059-2.0102539C303.5252686,830.203125,326.3775635,776.918457,377.0192871,720.9296875z"/>
        <path fill="#D35353" d="M375.1743164,1124.4101562c0.0668945,0.0976562,0.1380615,0.1918945,0.2133789,0.2832031
			l2.0402832,2.4775391c0.0145264,0.0170898,0.0290527,0.034668,0.0439453,0.0522461
			c18.8908691,22.1518555,40.0667725,32.0966797,57.0819092,40.0874023
			c0.9291992,0.4365234,1.8482666,0.8681641,2.7559814,1.2963867c0.045166,0.0214844,0.0906982,0.0419922,0.1365967,0.0615234
			l1.0704346,0.456543c4.3225098,1.8413086,8.7915039,3.7451172,12.7344971,6.0117188l1.9907227,1.2080078
			c0.3010254,0.1826172,0.6246338,0.324707,0.9628906,0.4228516l1.9960938,0.5776367
			c20.5467529,8.5307617,45.0415039,18.2558594,71.0860596,25.8222656
			c29.8743896,8.6782227,54.920166,12.8964844,76.5686035,12.8964844c10.7338867,0,20.8018799-1.0751953,29.9267578-3.1972656
			c1.3100586-0.2612305,2.7148438-0.3779297,4.5443115-0.3779297c0.7858887,0,1.5666504,0.0195312,2.3474121,0.0385742
			c4.9206543,0.1201172,23.0458984,4.5952148,37.6380615,8.1992188l0.899292,0.2563477l0.9641113,0.2753906
			c0.1828613,0.0522461,0.3690186,0.0913086,0.557251,0.1171875c4.2518311,0.5805664,7.0003662,1.3647461,8.8190918,1.8833008
			l3.8831787,1.1074219l5.3461914,1.5253906c8.5979004,2.4516602,17.6958008,3.9379883,28.6320801,4.6772461
			c0.0244141,0.0019531,0.0489502,0.003418,0.0733643,0.0043945l5.7750244,0.2836914
			c0.0654297,0.003418,0.1309814,0.0048828,0.1964111,0.0048828c0.1177979,0,0.2355957-0.0053711,0.3530273-0.015625
			l5.4729004-0.4848633c0.017334-0.0014648,0.03479-0.003418,0.0522461-0.0048828
			c22.1315918-2.2539062,51.0144043-16.8896484,85.8461914-43.5009766
			c25.6993408-19.6342773,45.331665-38.8974609,45.5269775-39.0898438c0.052124-0.0512695,0.1027832-0.1040039,0.1519775-0.1577148
			l0.7564697-0.8310547c17.5293579-19.2578125,41.5368042-45.6318359,60.8280029-88.5463867
			c11.3029175-25.1274414,17.116333-50.2236328,22.2453613-72.3657227l0.9585571-4.1323242l1.7192383-6.1201172l0.3538208-1.2597656
			c2.6644897-7.4501953,6.8634033-14.4287109,11.5326538-19.1640625c0.0356445-0.0366211,0.0706787-0.0732422,0.1050415-0.1108398
			c4.8046875-5.2597656,10.7225952-9.0039062,17.1141357-10.8276367
			c29.3170776-8.7470703,56.8393555-26.3012695,84.1853027-53.6796875
			c18.2202148-18.2133789,34.0617676-38.7363281,47.0822754-60.9951172
			c7.8677979-12.9345703,15.1048584-27.777832,21.5114746-44.1191406l1.1633301-2.2758789
			c0.123291-0.2412109,0.2219238-0.4941406,0.2939453-0.7553711c0.6132812-2.2192383,1.9788818-5.1782227,3.3063965-8.0473633
			c2.4714355-4.8325195,4.6813965-8.8662109,7.4130859-12.8203125c11.0762939-15.6582031,20.5445557-32.6220703,28.920166-51.824707
			c0.0759277-0.1738281,0.1394043-0.3535156,0.1899414-0.5361328l0.4533691-1.6450195l0.0043945-0.0102539
			c11.4467773-26.5776367,30.6002197-71.0478516,23.1135254-122.5004883l-0.4265137-4.5527344
			c-0.0227051-0.2421875-0.0673828-0.4819336-0.133667-0.7158203l-1.1317139-4
			c-6.8671875-30.1259766-19.7790527-47.4091797-25.9875488-55.71875c-1.6262207-2.1279297-3.1345215-4.1010742-4.4576416-6.5908203
			l-1.4771729-2.7792969l-1.4755859-2.7763672c-0.0419922-0.0791016-0.0865479-0.1567383-0.1337891-0.2329102
			c-6.5026855-10.4736328-9.3405762-17.2875977-13.2421875-28.5996094c-0.0075684-0.0219727-0.0152588-0.043457-0.0231934-0.0654297
			c-6.5406494-17.9487305-13.0665283-32.9316406-23.6553955-47.7128906
			c-11.9134521-16.6303711-28.1420898-31.3476562-49.6074219-44.9863281L1081.6865234,385.75l-0.8691406-0.7216797
			c-0.1577148-0.1308594-0.3254395-0.25-0.5012207-0.3549805c-19.4093018-11.6166992-45.0229492-19.0673828-78.3045044-22.777832
			c-19.8092651-2.2080078-38.4307251-2.4462891-50.7528076-2.6035156c-0.0178833-0.0004883-0.0361328-0.0004883-0.0545654-0.0004883
			c-0.0744629,0-0.1523438,0.0019531-0.2244873,0.0058594c-4.1995239,0.2304688-7.9025879,0.3198242-10.8781128,0.3916016
			c-2.0194702,0.0488281-3.7832031,0.0913086-5.2733765,0.1655273c-0.7967529-0.0878906-1.6889648-0.1743164-2.7139282-0.1743164
			c-0.949707,0-1.8907471,0.0742188-2.8672485,0.2260742c-37.2768555,0.9248047-70.8600464,17.421875-88.9606323,26.3261719
			c-8.2067871,3.6391602-16.8112793,6.7055664-25.5793457,9.1157227c-2.0509033,0.4145508-4.0563965,0.6245117-5.9630127,0.6245117
			c-1.0300293,0-2.0540771-0.0615234-3.0437012-0.1821289c-2.8634033-0.3500977-5.0549316-1.8442383-6.3892822-3.0361328
			c-0.0194092-0.0170898-0.0391846-0.034668-0.05896-0.0512695c-6.425293-5.5166016-29.19104-23.7280273-52.3728027-26.4589844
			l-0.887207-0.1044922l-4.1662598-0.4912109l-0.9179688-0.1079102l-0.9156494-0.1079102
			c-0.0991211-0.0117188-0.1987305-0.0200195-0.2984619-0.0244141c-2.5825195-0.1103516-5.0258789-0.1635742-7.4694824-0.1635742
			c-33.4263916,0-64.1308594,10.8671875-93.8681641,33.222168l-5.3028564,3.9545898
			c-0.1384277,0.1035156-0.2700195,0.215332-0.3939209,0.3354492l-5.8079834,5.6342773
			c-20.8922119,20.722168-32.4621582,40.6064453-39.3798828,52.5073242c-1.3248291,2.144043-2.4729004,4.050293-3.583374,5.894043
			c-1.0806885,1.7944336-2.1976318,3.6484375-3.4720459,5.7124023l-0.6784668,0.9287109l-0.7703857,1.0546875
			c-0.0760498,0.1040039-0.1470947,0.2119141-0.2128906,0.3232422
			c-10.4620361,17.6899414-18.7547607,34.5439453-24.6479492,50.0942383l-0.8000488,2.0522461
			c-1.1495361,2.9550781-1.387207,3.565918-2.1583252,5.090332c-2.526001,4.043457-5.0250244,8.565918-7.2332764,12.5625
			c-1.6013184,2.8979492-2.9864502,5.4047852-4.0518799,7.1328125c-4.3999023,6.6713867-13.4630127,20.409668-16.348877,23.7006836
			l-1.8969727,1.9555664c-0.0748291,0.0771484-0.1464844,0.1572266-0.2148438,0.2397461l-2.1306152,2.5830078
			c-0.0493164,0.0600586-0.0970459,0.121582-0.1428223,0.184082c-0.376709,0.5151367-1.4458008,1.6757812-2.3048096,2.6083984
			c-0.5390625,0.5854492-1.0780029,1.1708984-1.5480957,1.7001953l-0.282959,0.3183594
			c-13.6330566,15.340332-39.0095215,43.894043-52.4857178,85.6274414c-0.0081787,0.0249023-0.0159912,0.050293-0.0235596,0.0751953
			l-1.5178223,5.0395508c-0.0317383,0.1049805-0.0588379,0.2109375-0.0817871,0.3183594l-1.0463867,4.8989258l-4.1873779,12.4545898
			c-1.574707,3.7216797-3.8520508,7.0795898-5.9628906,8.7856445c-0.0368652,0.0297852-0.0733643,0.0605469-0.1091309,0.0917969
			c-14.0587158,12.2172852-24.5577393,22.862793-34.7110596,33.1572266
			c-0.0233154,0.0239258-0.0462646,0.0478516-0.0689697,0.0717773c-1.5985107,1.7036133-3.199585,3.3144531-4.7478027,4.8730469
			c-1.5811768,1.5908203-3.2158203,3.2358398-4.8839111,5.0126953l-1.9020996,1.9521484l-1.9289551,1.9804688
			c-0.0301514,0.0307617-0.0595703,0.0620117-0.088623,0.09375
			c-41.6561279,45.6245117-58.6491699,85.7670898-64.9376221,153.4023438
			c-0.0046387,0.0493164-0.0083008,0.0986328-0.0109863,0.1479492l-0.0997314,1.7885742l-0.0997314,1.7890625
			c-0.8137207,12.2524414-1.6281738,28.4819336-0.682373,45.0644531c-0.0556641,6.09375,0.0595703,11.6967773,0.1708984,17.1166992
			c0.5445557,43.6333008,1.289917,103.4277344,38.0145264,153.3374023L375.1743164,1124.4101562z M339.4174805,951.5615234
			c-0.9245605-16.0488281-0.1948242-31.6425781,0.6750488-44.7446289l0.0997314-1.7890625l0.0997314-1.7885742
			c6.2316895-67.0239258,22.9659424-106.2324219,63.9088135-151.0756836l1.9284668-1.9799805l1.9291992-1.9799805
			c3.2733154-3.4887695,6.3793945-6.4199219,9.6566162-9.9121094c10.2631836-10.40625,20.5463867-20.8325195,34.4869385-32.9472656
			c2.9626465-2.3950195,5.5859375-6.637207,7.1925049-10.4814453l4.307251-12.8115234l1.0939941-5.121582l1.5179443-5.0395508
			c13.3096924-41.2177734,38.3354492-69.1948242,51.9525146-84.5180664c1.3634033-1.534668,3.3251953-3.5566406,4.0911865-4.6040039
			l2.1306152-2.5830078l1.9633789-2.0239258c2.730957-3.0732422,10.1385498-14.1899414,16.7834473-24.2646484
			c2.6396484-4.2695312,7.053833-12.9462891,11.3995361-19.8789062c1.1037598-2.1699219,1.2712402-2.7290039,3.2124023-7.6943359
			c6.4899902-17.125,15.1503906-33.9194336,24.3504639-49.4755859l0.7700195-1.0541992l0.7700195-1.0537109
			c2.6446533-4.2788086,4.5192871-7.5039062,7.1647949-11.7836914
			c7.5018311-12.9057617,18.5942383-31.7172852,38.7344971-51.6938477l5.8079834-5.6342773l5.3153076-3.9638672
			c36.442749-27.3959961,68.4261475-32.4194336,91.4644775-32.4194336c2.5452881,0,4.9777832,0.0610352,7.2987061,0.1601562
			l0.9173584,0.1083984l0.9177246,0.1079102c1.8364258,0.2163086,3.2145996,0.3789062,5.0532227,0.5957031
			c19.3852539,2.2836914,39.767334,16.5336914,50.2352295,25.5209961c2.3151855,2.0678711,5.2719727,3.6201172,8.5689697,4.0229492
			c1.1549072,0.1411133,2.3314209,0.2119141,3.5284424,0.2119141c2.2247314,0,4.5218506-0.2436523,6.8922119-0.7314453
			c9.0648193-2.4848633,17.8476562-5.6123047,26.3443604-9.3842773
			c19.6488037-9.6660156,52.0830688-25.1513672,87.6374512-25.9584961c0.9412842-0.1606445,1.7546997-0.2182617,2.4963989-0.2182617
			c0.9418945,0,1.7682495,0.0927734,2.5949707,0.1860352c3.6201172-0.1987305,9.2215576-0.1757812,16.489563-0.574707
			c12.2601929,0.1567383,30.7510376,0.3925781,50.3695068,2.5795898
			c31.9940186,3.5668945,57.4975586,10.7456055,76.6934814,22.234375l0.8693848,0.722168l0.8699951,0.722168
			c46.0213623,29.1782227,59.9298096,58.0805664,71.8635254,90.8286133
			c3.701416,10.7319336,6.6573486,18.1826172,13.6252441,29.4052734l1.4754639,2.7763672l1.4771729,2.7792969
			c1.4783936,2.7822266,3.1312256,4.9438477,4.7855225,7.1079102c7.0041504,9.3745117,18.8726807,25.9667969,25.3146973,54.3139648
			l1.1599121,4.0996094l0.4360352,4.6538086c7.3884277,50.5454102-11.689209,94.612793-22.9277344,120.7075195l-0.5266113,1.9111328
			c-7.855957,18.0107422-17.19104,35.0991211-28.5449219,51.1499023c-2.8803711,4.1694336-5.2114258,8.4365234-7.71875,13.3417969
			c-1.4298096,3.090332-2.8596191,6.1811523-3.5651855,8.734375l-1.2536621,2.4526367
			c-5.8796387,15.0219727-12.8557129,29.8442383-21.2941895,43.7124023
			c-13.0917969,22.387207-29.0754395,42.8232422-46.4777832,60.2192383
			c-26.810791,26.8422852-53.6713257,44.0722656-82.4530029,52.659668
			c-6.6756592,1.9052734-13.3468018,5.8212891-18.9696655,11.9765625
			c-5.4401855,5.5170898-9.8417358,13.2783203-12.4979858,20.7578125c-0.8894043,3.1665039-1.6010742,5.7001953-2.1349487,7.6005859
			c-5.3674927,23.0683594-11.116333,49.4853516-22.9768066,75.8520508
			c-19.3048096,42.9453125-43.2764282,68.9658203-60.8944702,88.3251953c0,0-77.4063721,76.2099609-128.972168,81.4614258
			l-5.4727783,0.4848633l-5.7750244-0.2836914c-9.3760986-0.6337891-18.541626-1.8916016-27.8043213-4.5332031
			c-1.4594727-0.4165039-3.4041748-0.9711914-5.34729-1.5253906c-0.9710693-0.2768555-2.427002-0.6918945-3.8820801-1.1069336
			c-1.9387207-0.5532227-4.8441162-1.3818359-9.3753662-2.0004883l-0.9660645-0.2758789l-0.9656982-0.2753906
			c-17.4995117-4.3222656-33.4521484-8.2075195-38.5701904-8.3325195c-0.8133545-0.0200195-1.6265869-0.0395508-2.4453125-0.0395508
			c-1.75354,0-3.5323486,0.0908203-5.3930664,0.46875c-8.8847656,2.0712891-18.5467529,3.1069336-29.078125,3.1069336
			c-21.3272705,0-46.2209473-4.246582-75.4527588-12.7382812c-25.8352051-7.5053711-50.2492676-17.1948242-70.8742676-25.7607422
			l-2.2114258-0.6401367l-2.0330811-1.2338867c-4.5013428-2.5922852-9.6092529-4.7128906-14.2670898-6.7016602
			c-17.4898682-8.2548828-39.1655273-17.6884766-58.501709-40.3623047l-2.0402832-2.4770508l-1.6112061-2.3535156
			c-35.4851074-48.1835938-36.7086182-105.5297852-37.2773438-151.1035156
			C339.4729004,963.1655273,339.359375,957.644043,339.4174805,951.5615234z"/>
        <path fill="#D35353" d="M405.7071533,943.9892578c-0.0001221,0.0317383,0.0002441,0.0639648,0.0008545,0.0957031
			c0.7749023,37.4023438,1.6531982,79.7954102,28.5419922,115.4707031c0.1887207,0.2504883,0.4063721,0.4780273,0.6483154,0.6777344
			l1.0224609,0.8432617l0.822998,0.6791992c14.2993164,15.2753906,29.8713379,22.6479492,45.8991699,29.4482422
			c0.019165,0.0083008,0.038208,0.0161133,0.057373,0.0239258l1.1536865,0.4677734
			c3.9675293,1.6064453,8.0700684,3.2680664,12.4089355,5.4633789c0.2429199,0.1230469,0.4976807,0.2207031,0.760498,0.2919922
			l0.8079834,0.21875l0.6384277,0.1733398c1.8476562,0.6782227,3.7287598,1.3710938,5.6411133,2.0761719
			c17.0258789,6.2749023,36.3234863,13.3867188,56.4493408,18.8535156c22.9152832,6.2246094,42.3275146,9.25,59.3460693,9.25
			c8.6954346,0,16.9724121-0.8173828,24.6009521-2.4296875c4.2452393-0.9179688,8.210083-1.3623047,12.1392822-1.3623047
			c0.5473633,0,1.0982666,0.0083008,1.6520996,0.0253906c6.3933105,0.1538086,17.7388916,2.5327148,34.9125977,6.1333008
			l5.1286621,1.0742188l0.3304443,0.0878906l0.4364014,0.1166992c0.1378174,0.0371094,0.2774658,0.0664062,0.418335,0.0883789
			c5.2025146,0.8085938,8.1225586,1.5874023,10.2547607,2.1557617l2.324707,0.6201172l2.067749,0.5512695l3.8977051,1.0390625
			l0.5014648,0.1342773c6.4484863,1.7192383,13.1821289,2.2788086,19.5263672,2.7041016
			c0.0737305,0.0048828,0.147583,0.0078125,0.2214355,0.0083008l2.3797607,0.0273438
			c0.0155029,0.0004883,0.0310059,0.0004883,0.0465088,0.0004883c0.2774658,0,0.5540771-0.0288086,0.8255615-0.0859375
			l2.3345947-0.4926758c36.1652832-3.7758789,88.7701416-57.4160156,90.9962158-59.7021484
			c0.0189209-0.0195312,0.0378418-0.0395508,0.0565186-0.059082c14.2915039-15.2924805,32.0778809-34.3242188,45.9676514-65.4404297
			c8.1351929-18.0107422,12.6787109-37.668457,17.0726929-56.6791992
			c2.7409058-12.128418,10.0101318-44.2944336,16.3911133-49.8530273c0.0244141-0.0214844,0.048584-0.0429688,0.0725098-0.0644531
			l2.6517944-2.4257812l2.6535034-2.4287109c0.0946045-0.0864258,0.1849976-0.1772461,0.270813-0.2729492
			c8.0824585-8.9672852,17.8602905-14.5825195,28.2766113-16.2397461
			c23.8873291-3.6235352,45.2952881-15.9995117,67.3396606-38.940918
			c13.1936646-13.1489258,24.3588257-27.6694336,33.1862183-43.1586914
			c5.934082-10.0214844,10.7585449-20.0532227,14.7446289-30.6591797l1.0159912-1.9892578
			c0.0233154-0.0458984,0.0460205-0.0917969,0.0675049-0.1386719c1.4613037-3.1557617,2.9483643-6.6669922,4.5456543-10.7319336
			c2.7370605-6.5151367,6.4156494-13.2099609,10.9343262-19.8999023
			c7.8427734-10.9814453,14.4223633-22.7724609,20.7033691-37.1020508c0.0758057-0.1728516,0.1391602-0.3510742,0.1899414-0.5327148
			l0.4040527-1.4511719c8.7692871-20.5244141,20.7208252-48.59375,16.6290283-80.9013672
			c-0.0231934-0.1831055-0.05896-0.3642578-0.1071777-0.5424805l-0.4991455-1.8447266l-0.4689941-1.7333984
			c-3.7055664-17.6186523-10.8104248-27.7456055-16.0010986-35.1435547l-0.6268311-0.894043
			c-0.0200195-0.0288086-0.0405273-0.0571289-0.0612793-0.0854492c-2.7647705-3.7397461-5.0957031-7.4467773-6.9282227-11.0180664
			l-0.645874-1.2587891l-0.645874-1.2587891c-0.0458984-0.0893555-0.0949707-0.1767578-0.1474609-0.2626953
			c-8.0947266-13.2211914-11.6082764-22.6381836-15.0571289-32.7148438
			c-8.5010986-24.9897461-17.7416992-45.8955078-52.1618652-68.347168c-0.5039062-0.3286133-1.0753784-0.5395508-1.671936-0.6166992
			l-0.1293945-0.0166016c-14.3050537-8.2143555-33.770813-13.9418945-57.8768311-17.0283203
			c-16.5244751-2.1152344-33.2396851-2.4350586-42.2196655-2.6069336c-2.7521362-0.0771484-6.3237305-0.1669922-9.2202148-0.1669922
			c-1.6884155,0-3.0437622,0.0292969-4.1251221,0.0893555c-0.8441772-0.105957-1.8400879-0.2158203-2.9096069-0.2158203
			c-0.8154907,0-1.5584717,0.0639648-2.2556763,0.1948242c-23.4707031,0.2094727-46.088501,9.6430664-65.2352295,19.0068359
			c-0.4387207,0.0463867-0.8687744,0.1650391-1.2724609,0.3535156
			c-13.5567627,6.3300781-34.5174561,12.890625-47.7192383,14.9365234
			c-0.0776367,0.0117188-0.1549072,0.0263672-0.2316895,0.0429688c-1.010498,0.2177734-2.0428467,0.3286133-3.0683594,0.3286133
			c-3.5979004,0-7.1727295-1.3901367-9.8077393-3.8139648c-0.1063232-0.0976562-0.2178955-0.1899414-0.3342285-0.2758789
			c-0.7397461-0.5454102-1.4152832-1.2768555-2.2705078-2.2026367c-0.7174072-0.7768555-1.5303955-1.6572266-2.5343018-2.5805664
			c-0.425293-0.3911133-0.9279785-0.6835938-1.47229-0.8603516l-0.8404541-0.6191406
			c-6.5843506-6.6982422-17.5229492-17.6474609-35.7982178-20.0976562l-1.8015137-0.2416992l-1.1168213-0.1499023
			l-0.4188232-0.0561523l-0.4125977-0.0556641c-0.1243896-0.0166016-0.2493896-0.0273438-0.3746338-0.0322266
			c-2.3427734-0.0932617-4.4696045-0.1386719-6.5020752-0.1386719c-14.720459,0-37.2137451,2.2094727-62.4902344,21.3154297
			c-0.0389404,0.0292969-0.0773926,0.0595703-0.1152344,0.090332l-2.2348633,1.8217773
			c-0.0933838,0.0761719-0.1833496,0.1567383-0.2695312,0.2407227l-2.3856201,2.3330078
			c-13.4055176,12.9243164-20.409668,24.949707-26.5892334,35.559082c-0.0379639,0.0654297-0.0742188,0.1318359-0.1085205,0.1987305
			c-1.8977051,3.7290039-4.1453857,7.3793945-7.3863525,12.425293c-0.2036133,0.3168945-0.3615723,0.6611328-0.4688721,1.0219727
			l-0.1469727,0.4946289c-6.3514404,10.0913086-12.2429199,22.0537109-18.0014648,36.5493164
			c-0.0072021,0.0180664-0.0142822,0.0361328-0.0212402,0.0541992c-1.8387451,4.8334961-4.0905762,9.6757812-6.6939697,14.3950195
			c-4.0013428,6.3754883-8.6057129,14.7749023-10.4693604,18.2211914
			c-7.4974365,11.9799805-17.9300537,27.2172852-22.5638428,31.9560547
			c-0.0412598,0.0419922-0.081665,0.0849609-0.1209717,0.1289062l-1.2543945,1.4018555l-1.2539062,1.4013672
			c-0.5217285,0.5830078-1.0374756,1.2094727-1.5834961,1.8725586c-0.8587646,1.043457-1.7467041,2.1220703-2.7593994,3.1572266
			c-0.0477295,0.0488281-0.0944824,0.0991211-0.1397705,0.1503906l-0.5062256,0.5737305
			c-10.8006592,12.237793-27.1225586,30.7314453-35.7026367,56.6123047c-0.0124512,0.0375977-0.024292,0.0751953-0.0356445,0.112793
			l-0.7675781,2.5673828l-0.9212646,3.081543c-1.2006836,4.0166016-2.05896,8.5249023-2.3549805,12.3691406
			c-0.0047607,0.0610352-0.0080566,0.121582-0.0098877,0.1826172l-0.387207,12.4423828
			c-0.0043945,0.1450195-0.0010986,0.2905273,0.0102539,0.4350586c0.0953369,1.2236328-0.3693848,3.0478516-1.1837158,4.6479492
			c-0.0212402,0.0415039-0.041626,0.0834961-0.0612793,0.1259766c-0.7061768,1.5161133-1.8289795,2.8813477-3.4312744,4.1708984
			c-24.3898926,18.3203125-36.1661377,30.1005859-49.777832,43.7250977
			c-1.2762451,1.1958008-2.5478516,2.4555664-3.8931885,3.7885742c-1.6923828,1.6762695-3.4423828,3.4101562-5.2947998,5.1030273
			c-0.1933594,0.1762695-0.3688965,0.371582-0.5240479,0.5825195l-0.694458,0.9443359l-0.567627,0.7724609
			c-29.9042969,32.6791992-39.8234863,56.4956055-44.0180664,105.7646484l-0.03479,0.1157227l-0.1552734,0.5161133
			c-0.0802002,0.2661133-0.1322021,0.5395508-0.1555176,0.8164062c-1.0620117,12.6054688-1.2626953,24.8256836-0.5804443,35.3393555
			C405.3563232,932.8867188,405.7246094,938.5605469,405.7071533,943.9892578z M409.5665283,892.3959961l0.1551514-0.515625
			l0.1551514-0.515625c4.1331787-49.0673828,13.9116211-72.0512695,43.1629639-103.9750977l0.694458-0.9448242l0.694458-0.9443359
			c3.3979492-3.1049805,6.4111328-6.2929688,9.2718506-8.9692383c13.550415-13.5634766,25.3481445-25.3413086,49.4500732-43.440918
			c1.6424561-1.3134766,3.4393311-3.1425781,4.6030273-5.6416016c1.0096436-1.9838867,1.7791748-4.5595703,1.6068115-6.7729492
			l0.387085-12.4423828c0.2886963-3.7490234,1.1242676-7.9345703,2.1992188-11.5302734l0.9212646-3.081543l0.7675781-2.5673828
			c8.4552002-25.5043945,24.6937256-43.6503906,35.4116211-55.7983398c1.8033447-1.84375,3.2099609-3.7578125,4.4638672-5.1591797
			l1.2540283-1.4013672l1.2543945-1.4018555c5.418335-5.5410156,16.7547607-22.4926758,23.1627197-32.7392578
			c1.869873-3.4604492,6.46875-11.8569336,10.4577637-18.2021484c2.7298584-4.9375,5.0584717-9.9394531,6.9854736-15.0048828
			c5.0167236-12.6279297,10.8356934-25.1269531,17.9610596-36.3564453l0.1520996-0.512207l0.1522217-0.512207
			c3.1342773-4.8793945,5.5616455-8.7954102,7.5858154-12.7724609c6.020752-10.3369141,12.9042969-22.1547852,25.9296875-34.7124023
			l2.3856201-2.3330078l2.2347412-1.8217773c23.1673584-17.5117188,43.821167-20.5068359,60.0782471-20.5068359
			c2.1962891,0,4.3116455,0.0546875,6.3428955,0.1357422l0.416626,0.0561523l0.416748,0.0556641
			c0.8334961,0.1118164,2.0844727,0.2797852,2.9187012,0.3916016c16.7423096,2.2446289,26.9287109,12.2734375,33.6999512,19.1640625
			l1.8112793,1.3349609l0.423584,0.0581055c2.0843506,1.9169922,3.3222656,3.7192383,5.1386719,5.0585938
			c3.2907715,3.0268555,7.758667,4.8701172,12.5157471,4.8701172c1.2889404,0,2.5986328-0.1352539,3.9125977-0.4189453
			c13.067749-2.0249023,34.2053223-8.4506836,48.7989502-15.2646484l0.4346924,0.0581055
			c15.835083-7.7856445,40.0021973-18.9389648,64.8120117-19.0458984c0.5784302-0.140625,1.2010498-0.1918945,1.8244629-0.1918945
			c0.9794922,0,1.9609375,0.1264648,2.7767334,0.2314453c1.1102905-0.074707,2.565918-0.1049805,4.2579346-0.1049805
			c2.6146851,0,5.7947998,0.0722656,9.1436768,0.1665039c10.166687,0.1943359,25.9373169,0.5458984,41.788208,2.5751953
			c24.6400757,3.1547852,43.4951172,8.9526367,57.0720215,16.9233398l0.4643555,0.0605469l0.4644165,0.0600586
			c32.7526245,21.3642578,41.9326782,40.9233398,50.5626831,66.2924805
			c3.5335693,10.3237305,7.2337646,20.1206055,15.4302979,33.5083008l0.645752,1.2583008l0.6459961,1.2592773
			c1.9396973,3.7802734,4.3626709,7.6362305,7.2705078,11.5698242c5.0217285,7.1796875,12.3330078,17.0703125,16.0146484,34.6791992
			l0.4989014,1.8442383l0.4991455,1.8447266c3.9714355,31.3569336-7.6689453,58.5351562-16.4429932,79.0708008l-0.4752197,1.7060547
			c-5.5876465,12.7480469-11.9885254,24.7602539-20.3256836,36.4262695
			c-4.3244629,6.3979492-8.322998,13.4501953-11.3547363,20.6762695c-1.7546387,4.4677734-3.1912842,7.796875-4.4691162,10.5566406
			l-1.1188965,2.1904297c-3.987915,10.6489258-8.7823486,20.5507812-14.5395508,30.2700195
			c-8.9515381,15.7133789-19.9771729,29.8076172-32.5790405,42.3618164
			c-21.3156738,22.1923828-41.7265625,34.246582-65.1151733,37.7949219
			c-11.3973999,1.8129883-22.0133057,7.9638672-30.6193848,17.512207l-2.6530151,2.4277344l-2.6517944,2.4257812
			c-7.1658936,6.2426758-13.7781372,34.7866211-17.6610107,51.9682617
			c-4.3704834,18.9091797-8.9090576,38.4174805-16.8280029,55.949707
			c-13.4710693,30.1782227-30.4655762,48.5332031-45.2375488,64.3393555c0,0-53.6132812,55.0620117-88.7473145,58.534668
			l-2.543457,0.5366211l-2.3797607-0.0273438c-6.081543-0.4077148-12.5913086-0.9321289-18.7633057-2.578125
			c-1.3205566-0.3520508-2.6405029-0.7041016-4.3994141-1.1728516c-1.3183594-0.3515625-2.6361084-0.703125-4.3919678-1.1713867
			c-2.1932373-0.5849609-5.260498-1.402832-10.6713867-2.2436523l-0.4368896-0.1166992l-0.4368896-0.1166992
			c-20.7728271-4.3427734-33.4707031-7.1352539-40.8433838-7.3125c-0.5952148-0.0185547-1.1873779-0.0273438-1.7755127-0.0273438
			c-4.4000244,0-8.6234131,0.5092773-12.9665527,1.4487305c-7.2799072,1.5385742-15.1490479,2.3432617-23.7738037,2.3432617
			c-16.3190918,0-35.354126-2.8779297-58.2974854-9.1098633c-22.286499-6.0537109-43.7380371-14.2119141-61.9237061-20.8847656
			l-0.8082275-0.2192383l-0.8079834-0.21875c-4.9278564-2.4936523-9.6011963-4.3374023-13.8636475-6.0683594
			c-14.9776611-6.3549805-30.4927979-13.4145508-44.7156982-28.6860352l-1.0229492-0.8442383l-1.0224609-0.84375
			c-25.6617432-34.0473633-26.9335938-74.3647461-27.7370605-113.1459961
			c0.0179443-5.5639648-0.348877-11.2163086-0.715332-16.8618164
			C408.260376,915.8686523,408.6080322,903.7724609,409.5665283,892.3959961z"/>
	</g>
        <g>
		<defs>
			<path id="SVGID_00000044884045102756212610000008158479215242665892_" d="M-787.1478271,87.4163742
				c-310.5153809-8.5086288,516.8659668,110.9271164,317.5673523,824.8219604
				C-656,1580-1474.8275146,1476.918335-1172.0860596,1576.3077393
				c343.8919678,112.8990479,753.0428467-178.9532471,863.7907104-651.6835938
				C-200.8782959,466.1114197-436.7426758,97.0180511-787.1478271,87.4163742z"/>
		</defs>
            <clipPath id="SVGID_00000097483983614639790440000005796165177720754822_">
			<use xlink:href="#SVGID_00000044884045102756212610000008158479215242665892_" overflow="visible"/>
		</clipPath>
            <g clip-path="url(#SVGID_00000097483983614639790440000005796165177720754822_)">
			
				<linearGradient id="SVGID_1_" gradientUnits="userSpaceOnUse" x1="-1057.0749512" y1="691.0861206"
                                x2="193.2782593" y2="691.0861206"
                                gradientTransform="matrix(1.0024102 0.0688477 -0.0974102 1.031763 -95.1693726 -253.0195618)">
				<stop offset="0" style="stop-color:#B5DFFF"/>
                    <stop offset="0.384857" style="stop-color:#F8E8DB"/>
                    <stop offset="0.6578333" style="stop-color:#F7D0CF"/>
                    <stop offset="1" style="stop-color:#DACDFF"/>
			</linearGradient>

                <line fill="none" stroke="url(#SVGID_1_)" stroke-width="4" stroke-miterlimit="10" x1="-1199.5640869"
                      y1="155.6561584" x2="8.7090683" y2="704.9084473"/>

                <linearGradient id="SVGID_00000134213945963121337480000016534989690347439256_"
                                gradientUnits="userSpaceOnUse" x1="-1044.0352783" y1="654.4858398" x2="206.3178711"
                                y2="654.4858398"
                                gradientTransform="matrix(1.0024102 0.0688477 -0.0974102 1.031763 -95.1693726 -253.0195618)">
				<stop offset="0" style="stop-color:#B5DFFF"/>
                    <stop offset="0.384857" style="stop-color:#F8E8DB"/>
                    <stop offset="0.6578333" style="stop-color:#F7D0CF"/>
                    <stop offset="1" style="stop-color:#DACDFF"/>
			</linearGradient>

                <line fill="none" stroke="url(#SVGID_00000134213945963121337480000016534989690347439256_)"
                      stroke-width="4" stroke-miterlimit="10" x1="-1182.9277344" y1="118.791069" x2="25.345356"
                      y2="668.043335"/>

                <linearGradient id="SVGID_00000048459242335428642380000014037491340273940901_"
                                gradientUnits="userSpaceOnUse" x1="-1030.9957275" y1="617.8855591" x2="219.3574982"
                                y2="617.8855591"
                                gradientTransform="matrix(1.0024102 0.0688477 -0.0974102 1.031763 -95.1693726 -253.0195618)">
				<stop offset="0" style="stop-color:#B5DFFF"/>
                    <stop offset="0.384857" style="stop-color:#F8E8DB"/>
                    <stop offset="0.6578333" style="stop-color:#F7D0CF"/>
                    <stop offset="1" style="stop-color:#DACDFF"/>
			</linearGradient>

                <line fill="none" stroke="url(#SVGID_00000048459242335428642380000014037491340273940901_)"
                      stroke-width="4" stroke-miterlimit="10" x1="-1166.2915039" y1="81.9259872" x2="41.9816437"
                      y2="631.1782837"/>

                <linearGradient id="SVGID_00000135690122027604068200000018034740767995787906_"
                                gradientUnits="userSpaceOnUse" x1="-1024.5279541" y1="599.5666504" x2="225.8251648"
                                y2="599.5666504"
                                gradientTransform="matrix(1.0024102 0.0688477 -0.0974102 1.031763 -95.1693726 -253.0195618)">
				<stop offset="0" style="stop-color:#B5DFFF"/>
                    <stop offset="0.384857" style="stop-color:#F8E8DB"/>
                    <stop offset="0.6578333" style="stop-color:#F7D0CF"/>
                    <stop offset="1" style="stop-color:#DACDFF"/>
			</linearGradient>

                <line fill="none" stroke="url(#SVGID_00000135690122027604068200000018034740767995787906_)"
                      stroke-width="4" stroke-miterlimit="10" x1="-1158.0238037" y1="63.47052" x2="50.2493553"
                      y2="612.7227783"/>

                <linearGradient id="SVGID_00000111900385026236650270000011230658697265051275_"
                                gradientUnits="userSpaceOnUse" x1="-1018.0603027" y1="581.2477417" x2="232.2928467"
                                y2="581.2477417"
                                gradientTransform="matrix(1.0024102 0.0688477 -0.0974102 1.031763 -95.1693726 -253.0195618)">
				<stop offset="0" style="stop-color:#B5DFFF"/>
                    <stop offset="0.384857" style="stop-color:#F8E8DB"/>
                    <stop offset="0.6578333" style="stop-color:#F7D0CF"/>
                    <stop offset="1" style="stop-color:#DACDFF"/>
			</linearGradient>

                <line fill="none" stroke="url(#SVGID_00000111900385026236650270000011230658697265051275_)"
                      stroke-width="4" stroke-miterlimit="10" x1="-1149.7561035" y1="45.015049" x2="58.517067"
                      y2="594.267334"/>

                <linearGradient id="SVGID_00000030485286639938401210000009613050326320482177_"
                                gradientUnits="userSpaceOnUse" x1="-1011.5926514" y1="562.928833" x2="238.7605286"
                                y2="562.928833"
                                gradientTransform="matrix(1.0024102 0.0688477 -0.0974102 1.031763 -95.1693726 -253.0195618)">
				<stop offset="0" style="stop-color:#B5DFFF"/>
                    <stop offset="0.384857" style="stop-color:#F8E8DB"/>
                    <stop offset="0.6578333" style="stop-color:#F7D0CF"/>
                    <stop offset="1" style="stop-color:#DACDFF"/>
			</linearGradient>

                <line fill="none" stroke="url(#SVGID_00000030485286639938401210000009613050326320482177_)"
                      stroke-width="4" stroke-miterlimit="10" x1="-1141.4884033" y1="26.5595818" x2="66.7847748"
                      y2="575.8118286"/>

                <linearGradient id="SVGID_00000035530277705223116880000007511349899779835803_"
                                gradientUnits="userSpaceOnUse" x1="-1005.125" y1="544.6099854" x2="245.2281952"
                                y2="544.6099854"
                                gradientTransform="matrix(1.0024102 0.0688477 -0.0974102 1.031763 -95.1693726 -253.0195618)">
				<stop offset="0" style="stop-color:#B5DFFF"/>
                    <stop offset="0.384857" style="stop-color:#F8E8DB"/>
                    <stop offset="0.6578333" style="stop-color:#F7D0CF"/>
                    <stop offset="1" style="stop-color:#DACDFF"/>
			</linearGradient>

                <line fill="none" stroke="url(#SVGID_00000035530277705223116880000007511349899779835803_)"
                      stroke-width="4" stroke-miterlimit="10" x1="-1133.2205811" y1="8.1041126" x2="75.0524902"
                      y2="557.3563843"/>

                <linearGradient id="SVGID_00000173850834032154198730000016226653476897617050_"
                                gradientUnits="userSpaceOnUse" x1="-998.6572876" y1="526.2910767" x2="251.6958771"
                                y2="526.2910767"
                                gradientTransform="matrix(1.0024102 0.0688477 -0.0974102 1.031763 -95.1693726 -253.0195618)">
				<stop offset="0" style="stop-color:#B5DFFF"/>
                    <stop offset="0.384857" style="stop-color:#F8E8DB"/>
                    <stop offset="0.6578333" style="stop-color:#F7D0CF"/>
                    <stop offset="1" style="stop-color:#DACDFF"/>
			</linearGradient>

                <line fill="none" stroke="url(#SVGID_00000173850834032154198730000016226653476897617050_)"
                      stroke-width="4" stroke-miterlimit="10" x1="-1124.9528809" y1="-10.3513556" x2="83.3201981"
                      y2="538.9009399"/>

                <linearGradient id="SVGID_00000174587403413158652120000006376720248377751207_"
                                gradientUnits="userSpaceOnUse" x1="-992.1896362" y1="507.972168" x2="258.1635437"
                                y2="507.972168"
                                gradientTransform="matrix(1.0024102 0.0688477 -0.0974102 1.031763 -95.1693726 -253.0195618)">
				<stop offset="0" style="stop-color:#B5DFFF"/>
                    <stop offset="0.384857" style="stop-color:#F8E8DB"/>
                    <stop offset="0.6578333" style="stop-color:#F7D0CF"/>
                    <stop offset="1" style="stop-color:#DACDFF"/>
			</linearGradient>

                <line fill="none" stroke="url(#SVGID_00000174587403413158652120000006376720248377751207_)"
                      stroke-width="4" stroke-miterlimit="10" x1="-1116.6851807" y1="-28.8068237" x2="91.5879059"
                      y2="520.4454346"/>

                <linearGradient id="SVGID_00000147212177208707327330000010172368938215273402_"
                                gradientUnits="userSpaceOnUse" x1="-985.7219238" y1="489.6532898" x2="264.6312256"
                                y2="489.6532898"
                                gradientTransform="matrix(1.0024102 0.0688477 -0.0974102 1.031763 -95.1693726 -253.0195618)">
				<stop offset="0" style="stop-color:#B5DFFF"/>
                    <stop offset="0.384857" style="stop-color:#F8E8DB"/>
                    <stop offset="0.6578333" style="stop-color:#F7D0CF"/>
                    <stop offset="1" style="stop-color:#DACDFF"/>
			</linearGradient>

                <line fill="none" stroke="url(#SVGID_00000147212177208707327330000010172368938215273402_)"
                      stroke-width="4" stroke-miterlimit="10" x1="-1108.4174805" y1="-47.2622948" x2="99.8556213"
                      y2="501.9899902"/>

                <linearGradient id="SVGID_00000182517189695891970060000006652718535592384152_"
                                gradientUnits="userSpaceOnUse" x1="-979.2542725" y1="471.3344116" x2="271.0989075"
                                y2="471.3344116"
                                gradientTransform="matrix(1.0024102 0.0688477 -0.0974102 1.031763 -95.1693726 -253.0195618)">
				<stop offset="0" style="stop-color:#B5DFFF"/>
                    <stop offset="0.384857" style="stop-color:#F8E8DB"/>
                    <stop offset="0.6578333" style="stop-color:#F7D0CF"/>
                    <stop offset="1" style="stop-color:#DACDFF"/>
			</linearGradient>

                <line fill="none" stroke="url(#SVGID_00000182517189695891970060000006652718535592384152_)"
                      stroke-width="4" stroke-miterlimit="10" x1="-1100.1497803" y1="-65.7177582" x2="108.1233292"
                      y2="483.5345154"/>

                <linearGradient id="SVGID_00000066517876564655621150000012566166107945315733_"
                                gradientUnits="userSpaceOnUse" x1="-972.7866211" y1="453.0155029" x2="277.5665894"
                                y2="453.0155029"
                                gradientTransform="matrix(1.0024102 0.0688477 -0.0974102 1.031763 -95.1693726 -253.0195618)">
				<stop offset="0" style="stop-color:#B5DFFF"/>
                    <stop offset="0.384857" style="stop-color:#F8E8DB"/>
                    <stop offset="0.6578333" style="stop-color:#F7D0CF"/>
                    <stop offset="1" style="stop-color:#DACDFF"/>
			</linearGradient>

                <line fill="none" stroke="url(#SVGID_00000066517876564655621150000012566166107945315733_)"
                      stroke-width="4" stroke-miterlimit="10" x1="-1091.8820801" y1="-84.173233" x2="116.3910446"
                      y2="465.0790405"/>

                <linearGradient id="SVGID_00000161609187753069907240000015320563511768918682_"
                                gradientUnits="userSpaceOnUse" x1="-966.2667847" y1="434.7153625" x2="284.0863953"
                                y2="434.7153625"
                                gradientTransform="matrix(1.0024102 0.0688477 -0.0974102 1.031763 -95.1693726 -253.0195618)">
				<stop offset="0" style="stop-color:#B5DFFF"/>
                    <stop offset="0.384857" style="stop-color:#F8E8DB"/>
                    <stop offset="0.6578333" style="stop-color:#F7D0CF"/>
                    <stop offset="1" style="stop-color:#DACDFF"/>
			</linearGradient>

                <line fill="none" stroke="url(#SVGID_00000161609187753069907240000015320563511768918682_)"
                      stroke-width="4" stroke-miterlimit="10" x1="-1083.5639648" y1="-102.6057739" x2="124.7091827"
                      y2="446.6464844"/>

                <linearGradient id="SVGID_00000121262026396858142680000014193061313764473018_"
                                gradientUnits="userSpaceOnUse" x1="-1064.6373291" y1="709.0114746" x2="185.7157898"
                                y2="709.0114746"
                                gradientTransform="matrix(1.0024102 0.0688477 -0.0974102 1.031763 -95.1693726 -253.0195618)">
				<stop offset="0" style="stop-color:#B5DFFF"/>
                    <stop offset="0.384857" style="stop-color:#F8E8DB"/>
                    <stop offset="0.6578333" style="stop-color:#F7D0CF"/>
                    <stop offset="1" style="stop-color:#DACDFF"/>
			</linearGradient>

                <line fill="none" stroke="url(#SVGID_00000121262026396858142680000014193061313764473018_)"
                      stroke-width="4" stroke-miterlimit="10" x1="-1208.8908691" y1="173.630188" x2="-0.6177342"
                      y2="722.8824463"/>

                <linearGradient id="SVGID_00000109739608977891974760000015531153763508953269_"
                                gradientUnits="userSpaceOnUse" x1="-1051.5977783" y1="672.4111328" x2="198.7554169"
                                y2="672.4111328"
                                gradientTransform="matrix(1.0024102 0.0688477 -0.0974102 1.031763 -95.1693726 -253.0195618)">
				<stop offset="0" style="stop-color:#B5DFFF"/>
                    <stop offset="0.384857" style="stop-color:#F8E8DB"/>
                    <stop offset="0.6578333" style="stop-color:#F7D0CF"/>
                    <stop offset="1" style="stop-color:#DACDFF"/>
			</linearGradient>

                <line fill="none" stroke="url(#SVGID_00000109739608977891974760000015531153763508953269_)"
                      stroke-width="4" stroke-miterlimit="10" x1="-1192.2545166" y1="136.7651062" x2="16.0185528"
                      y2="686.017395"/>

                <linearGradient id="SVGID_00000115512483290604268150000003873964219492950190_"
                                gradientUnits="userSpaceOnUse" x1="-1038.6102295" y1="635.7921143" x2="211.7428894"
                                y2="635.7921143"
                                gradientTransform="matrix(1.0024102 0.0688477 -0.0974102 1.031763 -95.1693726 -253.0195618)">
				<stop offset="0" style="stop-color:#B5DFFF"/>
                    <stop offset="0.384857" style="stop-color:#F8E8DB"/>
                    <stop offset="0.6578333" style="stop-color:#F7D0CF"/>
                    <stop offset="1" style="stop-color:#DACDFF"/>
			</linearGradient>

                <line fill="none" stroke="url(#SVGID_00000115512483290604268150000003873964219492950190_)"
                      stroke-width="4" stroke-miterlimit="10" x1="-1175.6687012" y1="99.8770905" x2="32.6044083"
                      y2="649.1293335"/>
		</g>
	</g>
</g>
    <g id="Layer_9">
</g>
</svg>
