<?xml version="1.0" encoding="UTF-8"?>
<svg id="Skull" xmlns="http://www.w3.org/2000/svg" viewBox="0 0 1276 1507" style="position: absolute;">
    <defs>
        <mask id="skull-layer-1" x="0" y="0">

            <g id="Layer_1">
            </g>
            <g id="Back" display="none">
            </g>
            <g id="Back_00000011715883410946324720000008727957518755627933_" display="none">
            </g>
            <g id="Patterns">
            </g>
            <g id="Stroke_Base">
            </g>
            <g id="Strokes_00000030459055616691488800000000657545366431398069_">
            </g>
            <g id="Patterns_00000117650002095936601960000007650837960417762464_">
            </g>
            <g id="Skull">
                <rect width="1695" height="1860"/>
                <g>
                    <g enable-background="new    ">
                        <path fill="#FFFFFF" d="M453.2843628,1171.6914062l2.0328369,1.2338867l2.2114258,0.6401367
				c20.6251221,8.565918,45.0392456,18.2553711,70.8743286,25.7602539
				c43.666687,12.6850586,77.6535645,15.8974609,104.5310059,9.6318359
				c2.7296753-0.5541992,5.2825928-0.4916992,7.8381958-0.4291992c5.118042,0.125,21.0708008,4.0102539,38.5702515,8.3325195
				l0.9658813,0.2753906l0.9658203,0.2758789c4.531189,0.6186523,7.4367065,1.4472656,9.3754272,2
				c1.4553223,0.4155273,2.9110718,0.8305664,3.881897,1.1074219c1.9431763,0.5541992,3.8881836,1.1088867,5.3475342,1.5253906
				c9.2627563,2.6416016,18.4282837,3.8994141,27.8042603,4.5332031l5.7752075,0.2836914l5.4724121-0.4848633
				c51.5658569-5.2514648,128.9724731-81.4614258,128.9724731-81.4614258
				c17.6179199-19.3598633,41.5895996-45.3798828,60.8944092-88.3251953
				c11.8604736-26.3666992,17.609375-52.7836914,22.9766846-75.8520508c0.5338135-1.9003906,1.2456055-4.434082,2.1350098-7.6005859
				c2.65625-7.4794922,7.0577393-15.2407227,12.4978027-20.7578125
				c5.6230469-6.1552734,12.2943115-10.0712891,18.9697266-11.9765625
				c28.7816162-8.5878906,55.642334-25.8173828,82.4528809-52.659668
				c17.402832-17.3959961,33.3864746-37.8320312,46.4780273-60.2192383
				c8.4382324-13.8681641,15.4145508-28.6904297,21.2943115-43.7124023l1.2532959-2.4526367
				c0.7055664-2.5532227,2.135498-5.644043,3.5654297-8.734375c2.5074463-4.9052734,4.8382568-9.1723633,7.7186279-13.3417969
				c11.354126-16.0507812,20.6890869-33.1391602,28.5450439-51.1503906l0.5267334-1.9111328
				c11.2382812-26.0942383,30.3162842-70.1616211,22.9276123-120.7070312l-0.4361572-4.6538086l-1.1599121-4.0996094
				c-6.4417725-28.347168-18.3104248-44.9394531-25.3145752-54.3139648
				c-1.6542969-2.1640625-3.3068848-4.3256836-4.7856445-7.1079102l-1.4770508-2.7792969l-1.4755859-2.7763672
				c-6.9680176-11.2226562-9.9238281-18.6733398-13.625-29.4052734
				c-11.9338379-32.7480469-25.8421631-61.6508789-71.8635254-90.8286133l-0.8701172-0.722168l-0.8692627-0.722168
				c-19.1959229-11.4887695-44.699585-18.6674805-76.6934814-22.234375
				c-19.6186523-2.1870117-38.109375-2.4228516-50.369751-2.5795898c-7.2679443,0.3989258-12.8692627,0.3759766-16.489502,0.574707
				c-1.4776611-0.1665039-2.9544678-0.3325195-5.0915527,0.0322266
				c-35.5540771,0.8071289-67.9884033,16.2924805-87.6373291,25.9584961
				c-8.4963379,3.7719727-17.2792969,6.8994141-26.3439941,9.3842773c-3.6462402,0.75-7.1196289,0.9228516-10.4208984,0.5195312
				c-3.296875-0.402832-6.2537842-1.9550781-8.5688477-4.0229492
				c-10.4682617-8.9873047-30.8502808-23.2373047-50.2352905-25.5209961
				c-1.8389282-0.2167969-3.2169189-0.3793945-5.0532837-0.5957031l-0.9178467-0.1079102l-0.9171753-0.1083984
				c-23.3290405-0.996582-58.2941895,1.8364258-98.7633667,32.2592773l-5.3153076,3.9638672l-5.8079834,5.6342773
				c-20.1401367,19.9765625-31.2324219,38.7880859-38.7345581,51.6933594
				c-2.6453247,4.2802734-4.5201416,7.5053711-7.1646118,11.7841797l-0.7698975,1.0537109l-0.7700806,1.0541992
				c-9.2000122,15.5561523-17.8603516,32.3505859-24.350647,49.4755859
				c-1.9408569,4.965332-2.1083374,5.5244141-3.2122192,7.6943359c-4.3457031,6.9326172-8.7598267,15.609375-11.3997192,19.8789062
				c-6.6448364,10.074707-14.0523682,21.1914062-16.7832642,24.2646484l-1.9633179,2.0239258l-2.1307983,2.5830078
				c-0.7657471,1.0473633-2.7277222,3.0693359-4.0909424,4.6040039
				c-13.6172485,15.3232422-38.6430664,43.300293-51.9528198,84.5180664l-1.5178833,5.0395508l-1.0940552,5.1210938
				l-4.307251,12.8120117c-1.6062622,3.8442383-4.2297974,8.0864258-7.1924438,10.480957
				c-13.9406128,12.1152344-24.2236328,22.5415039-34.4869995,32.9472656
				c-3.2771606,3.4926758-6.3830566,6.4238281-9.6563721,9.9125977l-1.9293823,1.9799805l-1.9284058,1.9794922
				c-40.9429932,44.8432617-57.677124,84.0527344-63.9087524,151.0761719l-0.0996094,1.7885742l-0.0999756,1.7890625
				c-0.869751,13.1020508-1.5994873,28.6958008-0.6751099,44.7446289
				c-0.0580444,6.0820312,0.0554199,11.6040039,0.1690674,17.1313477
				c0.5690308,45.5742188,1.7924805,102.9204102,37.2775269,151.1040039l1.6112061,2.3535156l2.0404053,2.4770508
				c19.3358765,22.6743164,41.0115967,32.1074219,58.5015869,40.3623047
				C443.6750488,1166.9785156,448.7828979,1169.0991211,453.2843628,1171.6914062z M437.4442139,1057.1474609
				c-25.6618652-34.046875-26.9334717-74.3642578-27.7369385-113.1455078
				c0.0178833-5.5644531-0.348938-11.2163086-0.715332-16.8618164c-0.7315063-11.2714844-0.3838501-23.3676758,0.574707-34.7441406
				l0.1550903-0.515625l0.1551514-0.515625c4.1329346-49.0673828,13.9115601-72.0512695,43.1629028-103.9750977l0.694397-0.9448242
				l0.694458-0.9443359c3.3978882-3.1049805,6.4110718-6.2929688,9.2717896-8.9692383
				c13.5504761-13.5634766,25.3482056-25.3417969,49.4500122-43.440918
				c1.6425171-1.3134766,3.4396362-3.1425781,4.6032104-5.6416016c1.0095825-1.9838867,1.7791138-4.5595703,1.6068726-6.7729492
				l0.3870239-12.4423828c0.2888184-3.7490234,1.1243896-7.9345703,2.1994019-11.5302734l0.9212036-3.081543l0.7675781-2.5673828
				c8.4550781-25.5043945,24.6934814-43.6503906,35.4116211-55.7983398c1.8031006-1.84375,3.2098999-3.7578125,4.463623-5.1591797
				l1.2542725-1.4013672l1.2542114-1.4018555c5.418335-5.5410156,16.7548828-22.4926758,23.1629028-32.7392578
				c1.869751-3.4609375,6.4685669-11.8569336,10.4575806-18.2026367c2.7299194-4.9370117,5.0584717-9.9389648,6.9854126-15.0043945
				c5.0167847-12.628418,10.8357544-25.1269531,17.9611816-36.3564453l0.1521606-0.512207l0.1522217-0.512207
				c3.1343384-4.8793945,5.5615234-8.7958984,7.5857544-12.7724609
				c6.0206909-10.3369141,12.9042969-22.1547852,25.9295044-34.7124023l2.3856812-2.3330078l2.2349243-1.8217773
				c26.2972412-19.8774414,49.3550415-21.0507812,66.4210815-20.3710938l0.4165649,0.0561523l0.416626,0.0556641
				c0.8338013,0.1118164,2.0844727,0.2792969,2.9189453,0.3916016
				c16.7421875,2.2446289,26.9286499,12.2734375,33.6997681,19.1640625l1.8112793,1.3349609l0.4235229,0.0581055
				c2.0846558,1.9169922,3.3226318,3.7192383,5.1390381,5.0585938c4.1821899,3.847168,10.2653198,5.7817383,16.4282837,4.4511719
				c13.067749-2.0249023,34.2050781-8.4506836,48.7988281-15.2651367l0.4345703,0.0585938
				c15.8354492-7.7856445,40.0024414-18.9389648,64.8121338-19.0458984
				c1.4873047-0.3618164,3.2659912-0.1323242,4.6011963,0.0395508c2.8258057-0.1899414,7.8857422-0.0932617,13.4016113,0.0615234
				c10.1668701,0.1943359,25.9375,0.5454102,41.7883301,2.5751953c24.6400146,3.1547852,43.4951172,8.9526367,57.0720215,16.9233398
				l0.4643555,0.0605469l0.4643555,0.0600586c32.7521973,21.3642578,41.9326172,40.9233398,50.5625,66.2924805
				c3.5336914,10.3237305,7.2340088,20.1206055,15.4306641,33.5083008l0.6455078,1.2583008l0.645874,1.2592773
				c1.9400635,3.7802734,4.362915,7.6362305,7.270874,11.5698242c5.0212402,7.1796875,12.3328857,17.0703125,16.0144043,34.6791992
				l0.4990234,1.8442383l0.4990234,1.8447266c3.9714355,31.3569336-7.6690674,58.5351562-16.4431152,79.0708008
				l-0.4750977,1.7060547c-5.5878906,12.7480469-11.9886475,24.7602539-20.3256836,36.4262695
				c-4.324585,6.3979492-8.3231201,13.4501953-11.3547363,20.6762695c-1.7543945,4.4677734-3.19104,7.796875-4.4692383,10.5566406
				l-1.1186523,2.1899414c-3.9881592,10.6494141-8.7822266,20.5512695-14.5400391,30.2705078
				c-8.9511719,15.7133789-19.9765625,29.8076172-32.5786133,42.3618164
				c-21.3156738,22.1923828-41.7265625,34.246582-65.1152344,37.7949219
				c-11.3974609,1.8129883-22.0131836,7.9638672-30.6193848,17.512207l-2.6531982,2.4277344l-2.6514893,2.4257812
				c-7.1660156,6.2426758-13.7781982,34.7866211-17.6611328,51.9677734
				c-4.3703613,18.909668-8.9090576,38.4179688-16.8278809,55.9501953
				c-13.4711914,30.1782227-30.4655762,48.5332031-45.2375488,64.3393555c0,0-53.6132812,55.0620117-88.7474365,58.534668
				l-2.543335,0.5366211l-2.3798218-0.0273438c-6.081604-0.4077148-12.5914307-0.9321289-18.7634277-2.578125
				c-1.3204346-0.3520508-2.640564-0.7041016-4.3994751-1.1733398c-1.3181763-0.3515625-2.6360474-0.7026367-4.3919678-1.1708984
				c-2.1931763-0.5849609-5.2603149-1.402832-10.6713257-2.2436523l-0.4369507-0.1166992l-0.4368286-0.1166992
				c-20.7728882-4.3427734-33.4707642-7.1352539-40.8433228-7.3125c-5.0474854-0.15625-9.8181763,0.3564453-14.7419434,1.4213867
				c-21.0543823,4.4501953-47.0025024,2.7587891-82.071167-6.7666016
				c-22.2869263-6.0537109-43.7384033-14.2119141-61.9238892-20.8847656l-0.8084106-0.2192383l-0.8078613-0.21875
				c-4.9279175-2.4936523-9.6011353-4.3374023-13.8635864-6.0683594
				c-14.9778442-6.3549805-30.4928589-13.4145508-44.7156982-28.6860352l-1.0231934-0.8442383L437.4442139,1057.1474609z"/>
                    </g>
                </g>
            </g>
            <g id="Layer_9">
            </g>
        </mask>
        <mask id="skull-layer-2" x="0" y="0">

            <g id="Layer_1">
            </g>
            <g id="Back" display="none">
            </g>
            <g id="Back_00000011715883410946324720000008727957518755627933_" display="none">
            </g>
            <g id="Patterns">
            </g>
            <g id="Stroke_Base">
            </g>
            <g id="Strokes_00000030459055616691488800000000657545366431398069_">
            </g>
            <g id="Patterns_00000117650002095936601960000007650837960417762464_">
            </g>
            <g id="Skull">
                <rect width="1695" height="1860"/>
                <g>
                    <g enable-background="new    ">
                        <path fill="#FFFFFF" d="M428.9975586,1227.0908203l2.9556885,1.5546875l2.9595947,1.5571289
				c21.3699951,9.1240234,47.5134277,19.7216797,74.6762695,27.9667969
				c43.9039307,13.3261719,80.3675537,17.5585938,112.4960327,14.9042969
				c8.8450928-1.4711914,17.166626-1.0473633,25.6345215,0.7915039c5.8647461,1.75,12.9071655,3.1606445,18.3094482,4.7714844
				l1.475647,0.4404297l1.4760742,0.4399414c3.9408569,1.175293,5.9133911,1.7636719,6.9005737,2.0581055
				c0.9872437,0.2944336,1.9747925,0.5888672,2.9628296,0.8833008l0.4944458,0.1474609
				c1.9775391,0.5898438,3.9569092,1.1801758,5.9375,1.7709961c11.4196167,3.4052734,23.2576904,5.5419922,35.5158081,6.4013672
				l2.6959839,0.1030273c3.7047729,0.4023438,7.5985107,0.1606445,11.4972534-0.0810547l2.2035522-0.0463867
				c47.0673828-4.3793945,92.3516235-27.9321289,137.6885376-72.3730469l26.4904785-27.3520508
				c18.6871338-19.690918,48.6397705-52.7426758,73.0252686-107.0004883
				c6.3677979-14.5405273,12.3747559-29.8613281,16.5708008-44.9042969
				c3.4631348-12.4150391,8.90979-23.6650391,16.8896484-33.6396484
				c7.9884033-9.9848633,17.076416-17.6518555,27.2772217-23.0029297
				c23.2288818-12.2226562,46.1966553-29.4765625,68.3115234-51.8916016
				c22.5760498-21.7226562,42.012085-46.9643555,58.6358643-74.90625
				c10.7297363-17.3266602,19.9418945-35.6464844,27.0581055-55.0463867l1.2897949-2.5224609
				c0.5405273-1.9707031,1.0809326-3.940918,2.1905518-5.8061523c0.9299316-1.2089844,0.9299316-1.2089844,1.1099854-1.8657227
				l1.1097412-1.8657227c13.9256592-20.2246094,25.9368896-42.1884766,35.6578369-64.5522461l0.5379639-1.9663086
				c2.9395752-6.8349609,6.4803467-15,10.0950928-24.3320312c-0.3391113-158.8759766-58.8068848-293.7705078-155.5043945-375.234375
				c-18.5629883-6.5297852-39.8897705-11.0961914-64.5883789-13.5810547
				c-21.5480957-2.168457-41.9190674-2.3730469-55.4182129-2.5087891
				c-7.4001465,0.4775391-13.6062012,0.4599609-17.7927246,0.6469727c-1.5045166-0.152832-3.5087891-0.3564453-5.6828613,0.0336914
				c-44.4094238,1.546875-83.8546143,21.0317383-105.3657227,31.3886719
				c-4.0599365,1.9682617-7.7744141,2.7651367-11.6241455,2.340332c-3.3640137-0.371582-7.0328369-1.3789062-9.876709-3.4975586
				c-16.1983643-11.9658203-34.5692749-19.3164062-54.7872925-21.4794922
				c-2.3404541-0.2509766-4.6791382-0.5009766-7.015686-0.7509766l-1.8674927-0.199707l-0.9335938-0.1000977
				c-17.2498169-0.0742188-68.0111694-1.4287109-126.5444336,43.3925781l-7.8190308,6.0771484l-8.4794312,8.3193359
				c-26.7421875,26.4506836-41.1088257,51.4716797-49.6221924,66.1367188
				c-2.0602417,3.8208008-3.7820435,6.515625-5.6727905,9.7729492l-0.9455566,1.628418l-0.9452515,1.628418
				c-11.6063232,18.9082031-21.8001099,39.1831055-29.8192749,59.7856445l-0.1697998,0.5644531
				c-3.6072388,5.940918-7.5534058,13.0092773-9.7810059,17.3896484c-3.7748413,6.5024414-7.9822388,12.934082-10.1318359,15.550293
				l-1.2056274,0.9907227l-3.5233154,4.1694336c-0.6022949,0.4946289-2.1469116,2.6132812-3.3509521,3.6025391
				c-14.4954834,16.5737305-43.8087158,49.527832-62.404541,99.1137695
				c-2.1348877,5.5698242-4.6951294,11.0625-8.1049194,16.3955078l-7.5822754,11.7119141
				c-2.4691162,3.7133789-5.3610229,7.3452148-8.5031128,10.3286133
				c-4.9202881,4.4311523-9.5853882,9.5043945-14.0752563,14.0087891c-3.1314087,2.9731445-6.4318237,6.5087891-9.5592041,9.4780273
				l-2.7061768,3.0507812l-2.7046509,3.0498047c-50.6417236,55.9887695-73.4939575,109.2734375-81.2720947,191.2416992
				l0.718811,2.0102539l-0.2807007,2.3789062c-1.0330811,15.065918-1.9365234,32.6630859-1.1169434,51.987793
				c-0.1497803,4.9067383-0.0585327,10.4980469,0.2070312,15.5214844c0.0690308,3.4492188,0.1395264,6.9931641,0.223877,10.6162109
				c9.0792847,68.425293,29.7106323,132.0839844,60.8731079,186.9545898
				c21.4697876,20.7578125,43.0664062,31.0585938,59.5061646,38.8491211
				C420.1542358,1222.4389648,424.7051392,1225.1328125,428.9975586,1227.0908203z M380.515564,1124.6274414l-2.0404053-2.4770508
				l-1.6112061-2.3535156c-35.4850464-48.1835938-36.7084961-105.5297852-37.2775269-151.1040039
				c-0.1136475-5.5273438-0.2271118-11.0493164-0.1690674-17.1313477
				c-0.9243774-16.0488281-0.1946411-31.6425781,0.6751099-44.7446289l0.0999756-1.7890625l0.0996094-1.7885742
				c6.2316284-67.0234375,22.9657593-106.2329102,63.9087524-151.0761719l1.9284058-1.9794922l1.9293823-1.9799805
				c3.2733154-3.4887695,6.3792114-6.4199219,9.6563721-9.9125977
				c10.2633667-10.4057617,20.5463867-20.8320312,34.4869995-32.9472656
				c2.9626465-2.3945312,5.5861816-6.6367188,7.1924438-10.480957l4.307251-12.8120117l1.0940552-5.1210938l1.5178833-5.0395508
				c13.3097534-41.2177734,38.3355713-69.1948242,51.9528198-84.5180664
				c1.3632202-1.534668,3.3251953-3.5566406,4.0909424-4.6040039l2.1307983-2.5830078l1.9633179-2.0239258
				c2.730896-3.0732422,10.1384277-14.1899414,16.7832642-24.2646484
				c2.6398926-4.2695312,7.0540161-12.9462891,11.3997192-19.8789062c1.1038818-2.1699219,1.2713623-2.7290039,3.2122192-7.6943359
				c6.4902954-17.125,15.1506348-33.9194336,24.350647-49.4755859l0.7700806-1.0541992l0.7698975-1.0537109
				c2.6444702-4.2788086,4.5192871-7.5039062,7.1646118-11.7841797
				c7.5021362-12.9052734,18.5944214-31.7167969,38.7345581-51.6933594l5.8079834-5.6342773l5.3153076-3.9638672
				c40.4691772-30.4228516,75.4343262-33.2558594,98.7633667-32.2592773l0.9171753,0.1083984l0.9178467,0.1079102
				c1.8363647,0.2163086,3.2143555,0.3789062,5.0532837,0.5957031
				c19.3850098,2.2836914,39.7670288,16.5336914,50.2352905,25.5209961
				c2.3150635,2.0678711,5.2719727,3.6201172,8.5688477,4.0229492c3.3012695,0.4033203,6.7746582,0.2304688,10.4208984-0.5195312
				c9.0646973-2.4848633,17.8476562-5.6123047,26.3439941-9.3842773
				c19.6489258-9.6660156,52.083252-25.1513672,87.6373291-25.9584961c2.137085-0.3647461,3.6138916-0.1987305,5.0915527-0.0322266
				c3.6202393-0.1987305,9.2215576-0.1757812,16.489502-0.574707c12.260376,0.1567383,30.7510986,0.3925781,50.369751,2.5795898
				c31.9938965,3.5668945,57.4975586,10.7456055,76.6934814,22.234375l0.8692627,0.722168l0.8701172,0.722168
				c46.0213623,29.1777344,59.9296875,58.0805664,71.8635254,90.8286133
				c3.7011719,10.7319336,6.6569824,18.1826172,13.625,29.4052734l1.4755859,2.7763672l1.4770508,2.7792969
				c1.4787598,2.7822266,3.1313477,4.9438477,4.7856445,7.1079102c7.0041504,9.3745117,18.8728027,25.9667969,25.3145752,54.3139648
				l1.1599121,4.0996094l0.4361572,4.6538086c7.3886719,50.5454102-11.6893311,94.612793-22.9276123,120.7070312
				l-0.5267334,1.9111328c-7.855957,18.0112305-17.190918,35.0996094-28.5450439,51.1503906
				c-2.8803711,4.1694336-5.2111816,8.4365234-7.7186279,13.3417969c-1.4299316,3.090332-2.8598633,6.1811523-3.5654297,8.734375
				l-1.2532959,2.4526367c-5.8797607,15.0219727-12.8560791,29.8442383-21.2943115,43.7124023
				c-13.0915527,22.387207-29.0751953,42.8232422-46.4780273,60.2192383
				c-26.8105469,26.8422852-53.6712646,44.0717773-82.4528809,52.659668
				c-6.675415,1.9052734-13.3466797,5.8212891-18.9697266,11.9765625
				c-5.4400635,5.5170898-9.8415527,13.2783203-12.4978027,20.7578125
				c-0.8894043,3.1665039-1.6011963,5.7001953-2.1350098,7.6005859
				c-5.3673096,23.0683594-11.1162109,49.4853516-22.9766846,75.8520508
				c-19.3048096,42.9453125-43.2764893,68.965332-60.8944092,88.3251953c0,0-77.4066162,76.2099609-128.9724731,81.4614258
				l-5.4724121,0.4848633l-5.7752075-0.2836914c-9.3759766-0.6337891-18.5415039-1.8916016-27.8042603-4.5332031
				c-1.4593506-0.4165039-3.4043579-0.9711914-5.3475342-1.5253906c-0.9708252-0.2768555-2.4265747-0.6918945-3.881897-1.1074219
				c-1.9387207-0.5527344-4.8442383-1.3813477-9.3754272-2l-0.9658203-0.2758789l-0.9658813-0.2753906
				c-17.4994507-4.3222656-33.4522095-8.2075195-38.5702515-8.3325195c-2.555603-0.0625-5.1085205-0.125-7.8381958,0.4291992
				c-26.8774414,6.265625-60.8643188,3.0532227-104.5310059-9.6318359
				c-25.835083-7.5048828-50.2492065-17.1943359-70.8743286-25.7602539l-2.2114258-0.6401367l-2.0328369-1.2338867
				c-4.5014648-2.5922852-9.609314-4.7128906-14.2672119-6.7016602
				C421.5271606,1156.7348633,399.8514404,1147.3017578,380.515564,1124.6274414z"/>
                    </g>
                </g>
            </g>
            <g id="Layer_9">
            </g>
        </mask>
        <mask id="skull-layer-3" x="0" y="0">

            <g id="Layer_1">
            </g>
            <g id="Back" display="none">
            </g>
            <g id="Back_00000011715883410946324720000008727957518755627933_" display="none">
            </g>
            <g id="Patterns">
            </g>
            <g id="Stroke_Base">
            </g>
            <g id="Strokes_00000030459055616691488800000000657545366431398069_">
            </g>
            <g id="Patterns_00000117650002095936601960000007650837960417762464_">
            </g>
            <g id="Skull">
                <rect width="1695" height="1860"/>
                <g>
                    <g enable-background="new    ">
                        <path fill="#FFFFFF" d="M616.7711182,1328.8642578c8.4279785-1.5571289,16.630188-0.4067383,24.6721191,1.3876953
				l11.522583,2.8710938l1.9771729,0.6123047l2.4735107,0.7661133c2.4755859,0.7666016,3.4668579,1.0737305,3.9624634,1.2270508
				l2.4797974,0.7680664l0.4961548,0.1538086c2.4823608,0.7685547,4.9674683,1.5385742,6.9573975,2.1547852
				c13.9720459,4.3276367,28.3921509,7.3813477,42.9417114,8.3447266l11.895874,0.8364258l11.2974243-0.7792969
				c55.5553589-4.4150391,108.3340454-30.1650391,160.7959595-79.5478516l36.5439453-37.1235352
				c18.4536133-20.0522461,55.5184326-60.3271484,84.6661377-124.9472656
				c6.269165-14.0874023,11.9827881-28.3051758,16.5856934-42.7817383
				c2.5771484-7.1679688,6.2624512-14.0727539,10.8752441-20.0546875
				c4.6153564-5.9848633,10.1628418-11.0517578,16.4638672-14.5380859
				c26.2297363-15.2016602,51.2724609-34.3383789,73.7575684-56.9907227
				c27.1069336-26.0170898,50.4526367-55.784668,69.9575195-89.2363281
				c5.9731445-10.0224609,11.6237793-20.440918,16.8538818-31.109375
				c11.7325439-52.3735352,17.2852783-103.7670898,17.1800537-153.1508789
				c-3.6147461,9.3320312-7.1555176,17.4970703-10.0950928,24.3320312l-0.5379639,1.9663086
				c-9.7209473,22.3637695-21.7321777,44.3276367-35.6578369,64.5522461l-1.1097412,1.8657227
				c-0.1800537,0.6567383-0.1800537,0.6567383-1.1099854,1.8657227c-1.1096191,1.8652344-1.6500244,3.8354492-2.1905518,5.8061523
				l-1.2897949,2.5224609c-7.1162109,19.3999023-16.3283691,37.7197266-27.0581055,55.0463867
				c-16.6237793,27.9418945-36.0598145,53.1835938-58.6358643,74.90625
				c-22.1148682,22.4150391-45.0826416,39.6689453-68.3115234,51.8916016
				c-10.2008057,5.3510742-19.2888184,13.0180664-27.2772217,23.0029297
				c-7.9798584,9.9746094-13.4265137,21.2246094-16.8896484,33.6396484
				c-4.1960449,15.0429688-10.2030029,30.3637695-16.5708008,44.9042969
				c-24.385498,54.2578125-54.3381348,87.3095703-73.0252686,107.0004883l-26.4904785,27.3520508
				c-45.3369141,44.440918-90.6211548,67.9936523-137.6885376,72.3730469l-2.2035522,0.0463867
				c-3.8987427,0.2416992-7.7924805,0.4833984-11.4972534,0.0810547l-2.6959839-0.1030273
				c-12.2581177-0.859375-24.0961914-2.9960938-35.5158081-6.4013672c-1.9805908-0.5908203-3.9599609-1.1811523-5.9375-1.7709961
				l-0.4944458-0.1474609c-0.9880371-0.2944336-1.9755859-0.5888672-2.9628296-0.8833008
				c-0.9871826-0.2944336-2.9597168-0.8828125-6.9005737-2.0581055l-1.4760742-0.4399414l-1.475647-0.4404297
				c-5.4022827-1.6108398-12.4447021-3.0214844-18.3094482-4.7714844
				c-8.4678955-1.8388672-16.7894287-2.2626953-25.6345215-0.7915039
				c-32.128479,2.6542969-68.5921021-1.578125-112.4960327-14.9042969
				c-27.1628418-8.2451172-53.3062744-18.8427734-74.6762695-27.9667969l-2.9595947-1.5571289l-2.9556885-1.5546875
				c-4.2924194-1.9580078-8.8433228-4.6518555-13.1189575-6.6010742
				c-16.4397583-7.7905273-38.036377-18.0913086-59.5061646-38.8491211
				c26.2745972,46.2641602,60.1213989,86.4282227,100.9453735,117.9189453
				c11.5515747,4.4321289,23.6533203,8.7558594,36.0410767,12.6650391
				C539.7907104,1326.8754883,579.3185425,1332.4213867,616.7711182,1328.8642578z"/>
                    </g>
                    <g enable-background="new    ">
                        <path fill="#FFFFFF" d="M295.0684204,968.5483398c-0.8195801-19.324707,0.0838623-36.921875,1.1169434-51.987793
				l0.2807007-2.3789062l-0.718811-2.0102539c7.7781372-81.9682617,30.6303711-135.2529297,81.2720947-191.2416992
				l2.7046509-3.0498047l2.7061768-3.0507812c3.1273804-2.9692383,6.4277954-6.5048828,9.5592041-9.4780273
				c4.4898682-4.5043945,9.1549683-9.5776367,14.0752563-14.0087891c3.1420898-2.9833984,6.0339966-6.6152344,8.5031128-10.3286133
				l7.5822754-11.7119141c3.40979-5.3330078,5.9700317-10.8256836,8.1049194-16.3955078
				c18.5958252-49.5859375,47.9090576-82.5400391,62.404541-99.1137695
				c1.2040405-0.9892578,2.7486572-3.1079102,3.3509521-3.6025391l3.5233154-4.1694336l1.2056274-0.9907227
				c2.1495972-2.6162109,6.3569946-9.0478516,10.1318359-15.550293c2.2276001-4.3803711,6.1737671-11.4487305,9.7810059-17.3896484
				l0.1697998-0.5644531c8.019165-20.6025391,18.2129517-40.8774414,29.8192749-59.7856445l0.9452515-1.628418l0.9455566-1.628418
				c1.8907471-3.2573242,3.6125488-5.9521484,5.6727905-9.7729492
				c8.5133667-14.6650391,22.8800049-39.6860352,49.6221924-66.1367188l8.4794312-8.3193359l7.8190308-6.0771484
				c58.5332642-44.8212891,109.2946167-43.4667969,126.5444336-43.3925781l0.9335938,0.1000977l1.8674927,0.199707
				c2.3365479,0.25,4.6752319,0.5,7.015686,0.7509766c20.2180176,2.1630859,38.5889282,9.5136719,54.7872925,21.4794922
				c2.8438721,2.1186523,6.5126953,3.1259766,9.876709,3.4975586c3.8497314,0.4248047,7.564209-0.3720703,11.6241455-2.340332
				c21.5111084-10.3569336,60.9562988-29.8417969,105.3657227-31.3886719
				c2.1740723-0.3901367,4.1783447-0.1865234,5.6828613-0.0336914c4.1865234-0.1870117,10.3925781-0.1694336,17.7927246-0.6469727
				c13.4991455,0.1357422,33.8701172,0.340332,55.4182129,2.5087891
				c24.6986084,2.4848633,46.0253906,7.0512695,64.5883789,13.5810547
				c-35.0430908-29.5224609-75.0275879-51.9360352-119.0395508-66.0019531
				c-0.092041-0.0297852-0.1838379-0.0595703-0.2758789-0.0888672c-2.7456055-0.875-5.5087891-1.7133789-8.2854004-2.5229492
				c-0.1574707-0.0458984-0.3122559-0.097168-0.4697266-0.1430664c-1.3334961,0.1391602-2.8117676,0.1293945-4.380127,0.4238281
				c-33.8515625,1.7470703-65.2785645,12.1191406-89.2525635,21.887207
				c-14.8636475,6.3754883-29.8890381,6.6914062-42.1705322,1.2797852
				c-14.2612305-6.7758789-29.28125-10.6176758-45.3589478-12.1762695
				c-3.2977905-0.3193359-6.1212158-0.5932617-8.9412842-0.8666992l-2.3479614-0.2275391l-1.407959-0.1362305
				c-19.0354004-0.6669922-37.8568726,1.6162109-57.2313843,6.1611328
				c-14.227356,3.605957-28.3728027,8.6049805-42.2670288,14.9873047
				c-5.3181152,2.5595703-10.6082153,5.2182617-15.8685913,7.9741211
				c-12.8725586,7.015625-25.479126,15.2539062-37.670105,24.7734375l-10.6895142,8.1064453l-11.0641479,10.9443359
				c-32.8815918,32.1318359-50.8070068,63.0493164-60.4033203,79.8701172
				c-2.0539551,3.8120117-3.430481,5.3793945-4.5419922,7.5654297l-1.7147827,2.6889648l-1.7148438,2.6884766
				c-12.6732178,21.0522461-23.7794189,42.8974609-32.9008789,65.6230469
				c-2.2217407,4.3696289-5.0441284,9.2368164-6.925293,12.480957c-1.8809204,3.2441406-3.5914307,5.925293-5.1318359,8.0429688
				l-3.338562,3.605957c-0.5993652,0.4960938-1.7977905,1.487793-2.5670776,2.5458984
				c-14.4360352,16.5751953-45.7507324,52.1293945-68.479126,104.9770508
				c-3.5800171,8.8525391-8.2527466,16.9125977-14.0134888,24.1748047l-17.0064697,22.390625
				c-2.357666,1.9321289-4.4675903,4.5053711-6.9944458,6.9975586l-3.8733521,4.0170898l-3.8703613,4.0146484
				c-17.6590576,19.5708008-32.4197998,38.8657227-44.7470703,58.7451172
				c-21.0001221,85.6430664-25.4645996,169.8818359-15.1798706,247.3911133
				c-0.0843506-3.6230469-0.1548462-7.1669922-0.223877-10.6162109
				C295.0098877,979.0463867,294.9186401,973.4550781,295.0684204,968.5483398z"/>
                    </g>
                </g>
            </g>
            <g id="Layer_9">
            </g>
        </mask>
        <mask id="skull-layer-4" x="0" y="0">

            <g id="Layer_1">
            </g>
            <g id="Back" display="none">
            </g>
            <g id="Back_00000011715883410946324720000008727957518755627933_" display="none">
            </g>
            <g id="Patterns">
            </g>
            <g id="Stroke_Base">
            </g>
            <g id="Strokes_00000030459055616691488800000000657545366431398069_">
            </g>
            <g id="Patterns_00000117650002095936601960000007650837960417762464_">
            </g>
            <g id="Skull">
                <rect width="1695" height="1860"/>
                <g>
                    <g enable-background="new    ">
                        <path fill="#FFFFFF" d="M359.2966309,684.5351562l3.8733521-4.0170898
				c2.5268555-2.4921875,4.6367798-5.0654297,6.9944458-6.9975586l17.0064697-22.390625
				c5.7607422-7.262207,10.4334717-15.3222656,14.0134888-24.1748047
				c22.7283936-52.8476562,54.0430908-88.4018555,68.479126-104.9770508
				c0.7692871-1.0581055,1.9677124-2.0498047,2.5670776-2.5458984l3.338562-3.605957
				c1.5404053-2.1176758,3.2509155-4.7988281,5.1318359-8.0429688c1.8811646-3.2441406,4.7035522-8.1113281,6.925293-12.480957
				c9.12146-22.7255859,20.2276611-44.5708008,32.9008789-65.6230469l1.7148438-2.6884766l1.7147827-2.6889648
				c1.1115112-2.1860352,2.4880371-3.753418,4.5419922-7.5654297c9.5963135-16.8208008,27.5217285-47.7382812,60.4033203-79.8701172
				l11.0641479-10.9443359l10.6895142-8.1064453c12.190979-9.5195312,24.7975464-17.7578125,37.670105-24.7734375
				c-52.0045776,27.2416992-101.2260742,64.043457-145.479187,108.34375
				c-0.3441772,0.5932617-0.6777954,1.1689453-0.9994507,1.7241211c-0.2279053,0.3935547-0.4320679,0.7543945-0.6173096,1.0878906
				c-1.3101807,2.3579102-1.6472168,3.3125-2.3077393,4.2236328l-1.8390503,3.175293l-1.8388672,3.175293
				c-13.2877808,22.1582031-25.2196045,45.6318359-35.0579834,69.4116211
				c-1.085022,2.1342773-2.5881348,4.206543-3.8397217,6.8896484c-0.166626,0.5493164-0.7515259,1.0361328-0.9182129,1.5849609
				l-0.7511597,1.0356445l-1.9202881,2.0083008c-15.4221802,17.7490234-49.210022,56.0620117-75.0789185,113.9863281
				c-2.9981689,6.9970703-7.2243042,13.7744141-11.9307251,19.3027344l-26.444397,31.6611328
				c-1.0092773,1.1254883-2.008667,2.2504883-3.0004883,3.3754883c-0.026001,0.0292969-0.0526123,0.0585938-0.0785522,0.0883789
				c-1.7884521,4.8261719-3.5169678,9.6938477-5.2172241,14.5800781c-0.3738403,1.074707-0.7478027,2.1489258-1.1173096,3.2265625
				c-0.4951782,1.4433594-0.9932251,2.8847656-1.4804688,4.3339844c-0.9203491,2.7363281-1.8276978,5.4814453-2.7194824,8.2363281
				c-0.2597656,0.8022461-0.5167847,1.605957-0.7740479,2.4101562c-0.9909668,3.0957031-1.9716187,6.1982422-2.9257812,9.3173828
				c-0.9125977,2.9829102-1.7953491,5.9633789-2.6669312,8.9433594c-0.2625122,0.8974609-0.5233765,1.7949219-0.7821655,2.6923828
				c-0.6738892,2.3359375-1.3320923,4.6704102-1.9810181,7.0039062c-0.5541382,1.9931641-1.0924683,3.984375-1.62854,5.9755859
				c-0.25354,0.9414062-0.5065308,1.8833008-0.7561035,2.824707c-1.2059326,4.5493164-2.3825684,9.0952148-3.4955444,13.6342773
				c12.3272705-19.8793945,27.0880127-39.1743164,44.7470703-58.7451172L359.2966309,684.5351562z"/>
                    </g>
                    <g enable-background="new    ">
                        <path fill="#FFFFFF" d="M763.6928711,263.9194336l1.407959,0.1362305l2.3479614,0.2275391
				c2.8200684,0.2734375,5.6434937,0.5473633,8.9412842,0.8666992c16.0776978,1.5585938,31.0977173,5.4003906,45.3589478,12.1762695
				c12.2814941,5.4116211,27.3068848,5.0957031,42.1705322-1.2797852
				c23.973999-9.7680664,55.401001-20.1401367,89.2525635-21.887207c1.5683594-0.2944336,3.0466309-0.284668,4.380127-0.4238281
				c-0.2226562-0.0644531-0.4488525-0.1220703-0.6717529-0.1860352c-2.5079346-0.7216797-5.0252686-1.4248047-7.5579834-2.0932617
				c-0.005127-0.0014648-0.010376-0.0024414-0.0155029-0.0039062c-2.6895752-0.7099609-5.394165-1.387207-8.1113281-2.0366211
				c-0.2230225-0.0532227-0.4472656-0.1035156-0.6705322-0.1567383c-2.4001465-0.5683594-4.8122559-1.1103516-7.2336426-1.6308594
				c-0.3815918-0.0820312-0.7619629-0.1665039-1.1437988-0.2470703c-2.5939941-0.5488281-5.1992188-1.0722656-7.8172607-1.5654297
				c-0.3299561-0.0625-0.6619873-0.1191406-0.9923096-0.1806641c-2.267334-0.4208984-4.5447998-0.8183594-6.829834-1.1972656
				c-0.5892334-0.0976562-1.1777344-0.1967773-1.7681885-0.2919922c-2.5733643-0.4140625-5.1552734-0.8071289-7.7506104-1.1679688
				c-0.2746582-0.0380859-0.5512695-0.0708008-0.8261719-0.1083984c-2.3330078-0.3193359-4.6762695-0.6123047-7.0268555-0.8881836
				c-0.6785889-0.0795898-1.3575439-0.1582031-2.0375977-0.2338867c-2.612793-0.2919922-5.2321777-0.5664062-7.8662109-0.8046875
				c-2.1450195-0.1933594-4.2902832-0.3623047-6.4353027-0.5195312c-0.7800293-0.0571289-1.5598145-0.1064453-2.3397217-0.1586914
				c-1.3212891-0.0883789-2.6427002-0.1694336-3.9639893-0.2441406c-1.0169678-0.0576172-2.0340576-0.1123047-3.0510254-0.1616211
				c-0.9291992-0.0449219-1.8581543-0.0810547-2.7872314-0.1191406
				c-70.479126-2.9003906-140.7537231,13.7036133-206.4609375,45.3286133
				c13.8942261-6.3823242,28.0396729-11.3813477,42.2670288-14.9873047
				C725.8359985,265.5356445,744.6574707,263.2524414,763.6928711,263.9194336z"/>
                    </g>
                    <g enable-background="new    ">
                        <path fill="#FFFFFF" d="M1218.0303955,875.3618164c2.1212158-8.1796875,4.0928955-16.3422852,5.916748-24.484375
				c-5.2301025,10.668457-10.8807373,21.0869141-16.8538818,31.109375
				c-19.5048828,33.4516602-42.8505859,63.2192383-69.9575195,89.2363281
				c-22.4851074,22.6523438-47.527832,41.7890625-73.7575684,56.9907227
				c-6.3010254,3.4863281-11.8485107,8.5532227-16.4638672,14.5380859
				c-4.612793,5.9819336-8.2980957,12.8867188-10.8752441,20.0546875
				c-4.6029053,14.4765625-10.3165283,28.6943359-16.5856934,42.7817383
				c-29.1477051,64.6201172-66.2125244,104.8950195-84.6661377,124.9472656l-36.5439453,37.1235352
				c-52.4619141,49.3828125-105.2406006,75.1328125-160.7959595,79.5478516l-11.2974243,0.7792969l-11.895874-0.8364258
				c-14.5495605-0.9633789-28.9696655-4.0170898-42.9417114-8.3447266
				c-1.9899292-0.6162109-4.4750366-1.3862305-6.9573975-2.1547852l-0.4961548-0.1538086l-2.4797974-0.7680664
				c-0.4956055-0.1533203-1.4868774-0.4604492-3.9624634-1.2270508l-2.4735107-0.7661133l-1.9771729-0.6123047l-11.522583-2.8710938
				c-8.0419312-1.7944336-16.2441406-2.9448242-24.6721191-1.3876953
				c-37.4525757,3.5571289-76.9804077-1.9887695-123.4122314-16.6396484
				c-12.3877563-3.9091797-24.489502-8.2329102-36.0410767-12.6650391
				c17.1677856,13.2426758,35.5890503,24.9453125,55.1960449,34.9384766
				c0.3618774,0.1845703,0.7206421,0.3735352,1.083313,0.5566406c1.1636353,0.5878906,2.3342285,1.1655273,3.5062866,1.7416992
				c0.8988647,0.4414062,1.7996826,0.8798828,2.7034912,1.3144531c1.0216064,0.4912109,2.0426025,0.9829102,3.0704956,1.4643555
				c1.7190552,0.8056641,3.4451904,1.6010742,5.1817627,2.3808594c0.7650757,0.34375,1.5354614,0.6787109,2.303894,1.0170898
				c1.4621582,0.644043,2.9285278,1.28125,4.4028931,1.9067383c0.7686157,0.3261719,1.5392456,0.6484375,2.3111572,0.9697266
				c1.565918,0.6508789,3.1387329,1.2910156,4.7182617,1.9208984c0.5513306,0.2197266,1.0993042,0.4448242,1.6522827,0.6621094
				c2.1018066,0.8261719,4.2160645,1.6323242,6.3417358,2.4208984c0.5612183,0.2080078,1.1265259,0.409668,1.6894531,0.6152344
				c1.6852417,0.6152344,3.3777466,1.2192383,5.0778198,1.8110352c0.6342163,0.2207031,1.2678223,0.4418945,1.9040527,0.6591797
				c2.2081299,0.7543945,4.4241333,1.4960938,6.6570435,2.2099609c1.8944092,0.605957,3.7921753,1.1938477,5.692627,1.7670898
				c0.9081421,0.2734375,1.8187866,0.5341797,2.7282715,0.800293c0.9620361,0.2817383,1.9231567,0.5683594,2.8866577,0.8417969
				c1.2860107,0.3647461,2.5743408,0.7163086,3.862854,1.0664062c0.5487061,0.1489258,1.0965576,0.3032227,1.6456909,0.4492188
				c1.6231079,0.4331055,3.24823,0.8530273,4.8752441,1.2626953c0.1660767,0.0415039,0.3318481,0.0849609,0.4979248,0.1264648
				c110.9195557,27.7338867,230.6913452,1.2026367,338.4346313-68.2568359l34.8416748-34.859375
				c19.5603027-20.1621094,61.4233398-65.6757812,94.824585-139.7836914
				c3.8275146-9.6074219,7.4724121-18.5537109,11.2980957-28.1557617
				c4.9121094-13.5439453,13.7006836-24.0600586,24.5493164-31.3037109
				c23.0732422-14.9399414,45.8640137-32.8554688,66.472168-53.46875
				c8.4443359-8.2749023,16.6070557-16.9067383,24.4890137-25.8447266
				c11.4328613-26.9746094,21.4172363-54.8808594,29.7927246-83.5849609c0.125-0.4277344,0.2480469-0.8569336,0.3723145-1.2851562
				c1.125-3.8813477,2.2263184-7.7744141,3.2919922-11.684082c0.7419434-2.722168,1.4655762-5.4428711,2.1733398-8.1616211
				C1217.9089355,875.8369141,1217.96875,875.5991211,1218.0303955,875.3618164z"/>
                    </g>
                </g>
            </g>
            <g id="Layer_9">
            </g>
        </mask>
        <mask id="skull-layer-5" x="0" y="0">

            <g id="Layer_1">
            </g>
            <g id="Back" display="none">
            </g>
            <g id="Back_00000011715883410946324720000008727957518755627933_" display="none">
            </g>
            <g id="Patterns">
            </g>
            <g id="Stroke_Base">
            </g>
            <g id="Strokes_00000030459055616691488800000000657545366431398069_">
            </g>
            <g id="Patterns_00000117650002095936601960000007650837960417762464_">
            </g>
            <g id="Skull">
                <rect width="1695" height="1860"/>
                <g>
                    <g>
                        <path fill="#FFFFFF" d="M365.7472534,628.9912109c4.7064209-5.5283203,8.9325562-12.3056641,11.9307251-19.3027344
				c25.8688965-57.9243164,59.6567383-96.2373047,75.0789185-113.9863281l1.9202881-2.0083008l0.7511597-1.0356445
				c0.166687-0.5488281,0.7515869-1.0356445,0.9182129-1.5849609c1.2515869-2.6831055,2.7546997-4.7553711,3.8397217-6.8896484
				c9.8383789-23.7797852,21.7702026-47.253418,35.0579834-69.4116211l1.8388672-3.175293l1.8390503-3.175293
				c0.6605225-0.9111328,0.9975586-1.8657227,2.3077393-4.2236328
				c-69.8267822,70.4453125-127.5778809,159.6230469-164.9275513,259.8300781c0.9918213-1.125,1.9912109-2.25,3.0004883-3.3754883
				L365.7472534,628.9912109z"/>
                    </g>
                    <g>
                        <path fill="#FFFFFF" d="M1157.7275391,1006.6347656c-20.6081543,20.6132812-43.3989258,38.5288086-66.472168,53.46875
				c-10.8486328,7.2436523-19.637207,17.7597656-24.5493164,31.3037109
				c-3.8256836,9.6020508-7.4705811,18.5483398-11.2980957,28.1557617
				c-33.4012451,74.1079102-75.2642822,119.621582-94.824585,139.7836914l-34.8416748,34.859375
				c-107.7432861,69.4594727-227.5150757,95.9907227-338.4346313,68.2568359
				c245.8760376,61.7001953,530.3640747-141.0039062,624.7022095-465.2578125
				c-8.3754883,28.7041016-18.3598633,56.6103516-29.7927246,83.5849609
				C1174.3345947,989.7280273,1166.171875,998.3598633,1157.7275391,1006.6347656z"/>
                    </g>
                </g>
            </g>
            <g id="Layer_9">
            </g>
        </mask>
        <mask id="myMask">
            <!--
                The white color will show the underlying content,
                while the black color will hide it.
            -->
            <!--            <rect x="0" y="0" width="100%" height="100%" fill="white"/>-->
        </mask>
    </defs>
</svg>
