<?xml version="1.0" encoding="UTF-8"?>
<svg id="Skull" xmlns="http://www.w3.org/2000/svg" viewBox="0 0 1695 1860">
    <defs>
        <style>
            .cls-1 {
            fill: #fff;
            }
        </style>
    </defs>
    <rect width="1695" height="1860"/>
    <path class="cls-1"
          d="m1199.7,1255.27c37.23-48.29,70.13-101.21,97.78-157.3,28.67-58.14,51.84-119.99,68.89-183.85,32.13-120.4,40.24-237.55,24.09-348.2-15.14-103.73-52.22-198.92-107.23-275.31-85.17-118.26-209.74-188.18-350.75-196.88-9.81-.61-19.69-.91-29.57-.91-134.68,0-274.79,55.92-397.78,159.4-130.55,109.84-231.47,264-284.16,434.08-27.22,87.86-40.96,177.37-40.85,266.04.11,86.82,13.45,169.22,39.66,244.92,54.48,157.36,160.52,271.08,298.58,320.21,67.3,23.96,138.83,32.11,212.59,24.23,71.46-7.63,142.93-30.02,212.41-66.55,95.5-50.21,184.14-126.24,256.34-219.89Zm-300.1,84.37c-55.56,30.04-112.8,48.97-170.14,56.27-17.64,2.25-35.15,3.37-52.47,3.37-40.88,0-80.74-6.24-119.04-18.68-115.07-37.37-204.03-128.74-250.51-257.27-22.36-61.82-34-129.37-34.61-200.76-.62-73.06,10.38-147.02,32.7-219.84,43.38-141.54,127.1-269.12,235.75-359.23,109.81-91.08,235.6-135.62,354.18-125.37,57.22,4.94,110.68,22.06,158.89,50.89,46.86,28.03,87.4,66.25,120.48,113.62,43.82,62.74,73.09,140.57,84.65,225.06,12.28,89.74,5.16,184.34-21.16,281.18-27.43,100.91-72.39,192.56-133.63,272.42-57.81,75.38-128.73,137.05-205.08,178.34Z"/>
</svg>
