<?xml version="1.0" encoding="UTF-8"?>
<svg id="Skull" xmlns="http://www.w3.org/2000/svg" viewBox="0 0 1695 1860">
    <defs>
        <style>
            .cls-1 {
            fill: #fff;
            }
        </style>
    </defs>
    <rect width="1695" height="1860"/>
    <path class="cls-1"
          d="m1467.04,562.82c-19.03-106.76-60.52-203.97-119.98-281.12-59.17-76.77-134.5-132.31-219.6-163.34,236.11,119.13,363.12,434.47,265.57,801.2-120.3,452.27-512.69,728.27-845.68,637.38,15.42,7.17,35.97,13.92,45.34,17,70.42,23.12,144.78,29.68,221.03,19.52,73.87-9.85,147.31-35.05,218.28-74.91,97.51-54.77,187.1-136.17,259.07-235.42,37.12-51.19,69.6-107.08,96.53-166.12,27.92-61.21,50.01-126.12,65.67-192.95,29.46-125.74,34.09-247.27,13.77-361.24Z"/>
</svg>
