<svg width="300" height="300" viewBox="0 0 300 300" fill="none" xmlns="http://www.w3.org/2000/svg">
<rect width="300" height="300" fill="#0A0A0A"/>
<path d="M183.242 220.3V70.7737H175.288V62.8107H166.45V54.8477H158.495V46H150.54V54.8477H141.702V62.8107H133.747V70.7737H150.54V79.6214H158.495V178.716H150.54V187.564H158.495V220.3H166.45V228.263H141.702V220.3H125.793V212.337H116.955V220.3H109V253.037H116.955V245.074H141.702V253.037H183.242V237.111H191.197V220.3H183.242Z" fill="#FF2AAA"/>
<path d="M149.656 187.564H141.702V195.527H149.656V187.564Z" fill="#FF2AAA"/>
<path d="M141.702 195.527L133.748 195.527V203.49H141.702L141.702 195.527Z" fill="#FF2AAA"/>
<path d="M133.748 203.49L125.793 203.49V211.453H133.748L133.748 203.49Z" fill="#FF2AAA"/>
<path d="M125.793 70.7736V79.6213H116.955V87.5843H109V178.716H116.955V187.564H125.793V195.527L133.748 195.527L133.747 70.7737L125.793 70.7736Z" fill="#FF2AAA"/>
</svg>
