<svg width="77" height="48" viewBox="0 0 77 48" fill="none" xmlns="http://www.w3.org/2000/svg">
    <path d="M76.0535 29.4639H74.2652V31.2426H76.0535V29.4639Z" fill="#FF2AAA"/>
    <path d="M76.0535 27.6835H74.2652V29.4622H76.0535V27.6835Z" fill="#FF2AAA"/>
    <path d="M76.0535 25.905H74.2652V27.6835H76.0535V25.905Z" fill="#FF2AAA"/>
    <path d="M76.0535 6.33259H74.2652V8.11126H76.0535V6.33259Z" fill="#FF2AAA"/>
    <path d="M74.2652 31.2426L72.4791 31.2429V33.0216H74.2656L74.2652 31.2426Z" fill="#FF2AAA"/>
    <path d="M74.2652 6.33259H72.4791V8.11126H74.2652V6.33259Z" fill="#FF2AAA"/>
    <path d="M74.2656 4.55357H72.4791V6.33259H74.2652L74.2656 4.55357Z" fill="#FF2AAA"/>
    <path d="M72.4791 33.0216L70.6923 33.0215V34.8002H72.4788L72.4791 33.0216Z" fill="#FF2AAA"/>
    <path d="M72.4791 6.33259H70.6923V8.11126H72.4791V6.33259Z" fill="#FF2AAA"/>
    <path d="M72.4791 4.55357H70.6923V6.33259H72.4791V4.55357Z" fill="#FF2AAA"/>
    <path d="M70.6923 34.8002L68.9061 34.8001V36.5787H70.6926L70.6923 34.8002Z" fill="#FF2AAA"/>
    <path d="M70.6923 33.0215H68.9061V34.8001L70.6923 34.8002V33.0215Z" fill="#FF2AAA"/>
    <path d="M70.6923 6.33259H68.9061V8.11126H70.6923V6.33259Z" fill="#FF2AAA"/>
    <path d="M70.6923 4.55357H68.9061V6.33259H70.6923V4.55357Z" fill="#FF2AAA"/>
    <path d="M68.9061 36.5787L67.1192 36.5791V38.3596H68.9057L68.9061 36.5787Z" fill="#FF2AAA"/>
    <path d="M68.9061 34.8001H67.1192V36.5791L68.9061 36.5787V34.8001Z" fill="#FF2AAA"/>
    <path d="M68.9061 33.0215H67.1192V34.8001H68.9061V33.0215Z" fill="#FF2AAA"/>
    <path d="M68.9057 31.2429H67.1192V33.0215H68.9061L68.9057 31.2429Z" fill="#FF2AAA"/>
    <path d="M68.9057 29.4639H67.1192V31.2429H68.9057V29.4639Z" fill="#FF2AAA"/>
    <path d="M68.9057 27.6835H67.1192V29.4622H68.9057V27.6835Z" fill="#FF2AAA"/>
    <path d="M68.9057 25.905H67.1192V27.6835H68.9057V25.905Z" fill="#FF2AAA"/>
    <path d="M68.9057 24.1246H67.1192V25.905H68.9057V24.1246Z" fill="#FF2AAA"/>
    <path d="M68.9057 22.3474H67.1192V24.1246H68.9057V22.3474Z" fill="#FF2AAA"/>
    <path d="M68.9057 22.346H67.1192V22.3474H68.9057V22.346Z" fill="#FF2AAA"/>
    <path d="M68.9057 20.5656H67.1192V22.3443H68.9057V20.5656Z" fill="#FF2AAA"/>
    <path d="M68.9057 18.7866H67.1192V20.5656H68.9057V18.7866Z" fill="#FF2AAA"/>
    <path d="M68.9057 17.0081H67.1192V18.7866H68.9057V17.0081Z" fill="#FF2AAA"/>
    <path d="M68.9057 15.2295H67.1192V17.0081H68.9057V15.2295Z" fill="#FF2AAA"/>
    <path d="M68.9057 13.4505H67.1192V15.2295H68.9057V13.4505Z" fill="#FF2AAA"/>
    <path d="M68.9057 11.6687H67.1192V13.4492H68.9057V11.6687Z" fill="#FF2AAA"/>
    <path d="M68.9057 9.89153H67.1192V11.6687H68.9057V9.89153Z" fill="#FF2AAA"/>
    <path d="M68.9061 8.11126L67.1192 8.11116V9.89153H68.9057L68.9061 8.11126Z" fill="#FF2AAA"/>
    <path d="M68.9061 6.33259H67.1192V8.11116L68.9061 8.11126V6.33259Z" fill="#FF2AAA"/>
    <path d="M68.9061 4.55357H67.1192V6.33259H68.9061V4.55357Z" fill="#FF2AAA"/>
    <path d="M68.9057 2.7732H67.1192V4.55187H68.9057V2.7732Z" fill="#FF2AAA"/>
    <path d="M68.9057 0.994629H67.1192V2.7732H68.9057V0.994629Z" fill="#FF2AAA"/>
    <path d="M67.1177 34.8001H65.3294V36.5787H67.1177V34.8001Z" fill="#FF2AAA"/>
    <path d="M67.1177 33.0215H65.3294V34.8001H67.1177V33.0215Z" fill="#FF2AAA"/>
    <path d="M67.1177 31.2429H65.3294V33.0215H67.1177V31.2429Z" fill="#FF2AAA"/>
    <path d="M67.1177 29.4639H65.3294V31.2429H67.1177V29.4639Z" fill="#FF2AAA"/>
    <path d="M67.1177 27.6835H65.3294V29.4622H67.1177V27.6835Z" fill="#FF2AAA"/>
    <path d="M67.1177 25.905H65.3294V27.6835H67.1177V25.905Z" fill="#FF2AAA"/>
    <path d="M67.1177 24.1246H65.3294V25.905H67.1177V24.1246Z" fill="#FF2AAA"/>
    <path d="M67.1177 22.3474H65.3294V24.1246H67.1177V22.3474Z" fill="#FF2AAA"/>
    <path d="M67.1177 22.346H65.3294V22.3474H67.1177V22.346Z" fill="#FF2AAA"/>
    <path d="M67.1177 20.5656H65.3294V22.3443H67.1177V20.5656Z" fill="#FF2AAA"/>
    <path d="M67.1177 18.7866H65.3294V20.5656H67.1177V18.7866Z" fill="#FF2AAA"/>
    <path d="M67.1177 17.0081H65.3294V18.7866H67.1177V17.0081Z" fill="#FF2AAA"/>
    <path d="M67.1177 15.2295H65.3294V17.0081H67.1177V15.2295Z" fill="#FF2AAA"/>
    <path d="M67.1177 13.4505H65.3294V15.2295H67.1177V13.4505Z" fill="#FF2AAA"/>
    <path d="M67.1177 11.6687H65.3294V13.4492H67.1177V11.6687Z" fill="#FF2AAA"/>
    <path d="M67.1177 9.89153H65.3294V11.6687H67.1177V9.89153Z" fill="#FF2AAA"/>
    <path d="M67.1177 8.11116H65.3294V9.89153H67.1177V8.11116Z" fill="#FF2AAA"/>
    <path d="M67.1177 6.33259H65.3294V8.11116H67.1177V6.33259Z" fill="#FF2AAA"/>
    <path d="M67.1177 4.55357H65.3294V6.33259H67.1177V4.55357Z" fill="#FF2AAA"/>
    <path d="M67.1177 2.7732H65.3294V4.55187H67.1177V2.7732Z" fill="#FF2AAA"/>
    <path d="M65.3294 33.0215H63.5444V34.8002L65.3294 34.8001V33.0215Z" fill="#FF2AAA"/>
    <path d="M65.3294 31.2429H63.5444V33.0215H65.3294V31.2429Z" fill="#FF2AAA"/>
    <path d="M65.3294 29.4639H63.5444V31.2429H65.3294V29.4639Z" fill="#FF2AAA"/>
    <path d="M65.3294 27.6835H63.5444V29.4622H65.3294V27.6835Z" fill="#FF2AAA"/>
    <path d="M65.3294 25.905H63.5444V27.6835H65.3294V25.905Z" fill="#FF2AAA"/>
    <path d="M65.3294 24.1246H63.5444V25.905H65.3294V24.1246Z" fill="#FF2AAA"/>
    <path d="M65.3294 22.3474H63.5444V24.1246H65.3294V22.3474Z" fill="#FF2AAA"/>
    <path d="M65.3294 22.346H63.5444V22.3474H65.3294V22.346Z" fill="#FF2AAA"/>
    <path d="M65.3294 20.5656H63.5444V22.3443H65.3294V20.5656Z" fill="#FF2AAA"/>
    <path d="M65.3294 18.7866H63.5444V20.5656H65.3294V18.7866Z" fill="#FF2AAA"/>
    <path d="M65.3294 17.0081H63.5444V18.7866H65.3294V17.0081Z" fill="#FF2AAA"/>
    <path d="M65.3294 15.2295H63.5444V17.0081H65.3294V15.2295Z" fill="#FF2AAA"/>
    <path d="M65.3294 13.4505H63.5444V15.2295H65.3294V13.4505Z" fill="#FF2AAA"/>
    <path d="M65.3294 11.6687H63.5444V13.4492H65.3294V11.6687Z" fill="#FF2AAA"/>
    <path d="M65.3294 9.89153H63.5444V11.6687H65.3294V9.89153Z" fill="#FF2AAA"/>
    <path d="M65.3294 8.11116H63.5444V9.89153H65.3294V8.11116Z" fill="#FF2AAA"/>
    <path d="M65.3294 6.33259H63.5444V8.11116H65.3294V6.33259Z" fill="#FF2AAA"/>
    <path d="M65.3294 4.55357H63.5444V6.33259H65.3294V4.55357Z" fill="#FF2AAA"/>
    <path d="M63.5444 6.33259H61.7582V8.11126L63.5444 8.11116V6.33259Z" fill="#FF2AAA"/>
    <path d="M59.7846 6.33259H57.9981V8.11126H59.7846V6.33259Z" fill="#FF2AAA"/>
    <path d="M57.9978 29.4639H56.2113V31.2426H57.9978V29.4639Z" fill="#FF2AAA"/>
    <path d="M57.9978 27.6835H56.2113V29.4622H57.9978V27.6835Z" fill="#FF2AAA"/>
    <path d="M57.9978 25.905H56.2113V27.6835H57.9978V25.905Z" fill="#FF2AAA"/>
    <path d="M57.9981 8.11126L56.2113 8.11116V9.89164H57.9978L57.9981 8.11126Z" fill="#FF2AAA"/>
    <path d="M57.9981 6.33259H56.2113V8.11116L57.9981 8.11126V6.33259Z" fill="#FF2AAA"/>
    <path d="M57.9978 4.55357H56.2113V6.33259H57.9981L57.9978 4.55357Z" fill="#FF2AAA"/>
    <path d="M56.2113 31.2426L54.4251 31.2429V33.0216H56.2116L56.2113 31.2426Z" fill="#FF2AAA"/>
    <path d="M56.2113 9.89164L54.4251 9.89153V11.6684H56.2116L56.2113 9.89164Z" fill="#FF2AAA"/>
    <path d="M56.2113 8.11116H54.4251V9.89153L56.2113 9.89164V8.11116Z" fill="#FF2AAA"/>
    <path d="M56.2113 6.33259H54.4251V8.11116H56.2113V6.33259Z" fill="#FF2AAA"/>
    <path d="M56.2113 4.55357H54.4251V6.33259H56.2113V4.55357Z" fill="#FF2AAA"/>
    <path d="M56.2116 2.7732H54.4251V4.55187H56.2116V2.7732Z" fill="#FF2AAA"/>
    <path d="M54.4235 33.0215H52.6352V34.8002H54.4235V33.0215Z" fill="#FF2AAA"/>
    <path d="M54.4235 31.2429H52.6352V33.0215H54.4235V31.2429Z" fill="#FF2AAA"/>
    <path d="M54.4235 8.11116H52.6352V9.89164H54.4235V8.11116Z" fill="#FF2AAA"/>
    <path d="M54.4235 6.33259H52.6352V8.11116H54.4235V6.33259Z" fill="#FF2AAA"/>
    <path d="M54.4235 4.55357H52.6352V6.33259H54.4235V4.55357Z" fill="#FF2AAA"/>
    <path d="M52.6352 34.8002L50.8484 34.8001V36.5787H52.6349L52.6352 34.8002Z" fill="#FF2AAA"/>
    <path d="M52.6352 33.0215H50.8484V34.8001L52.6352 34.8002V33.0215Z" fill="#FF2AAA"/>
    <path d="M52.6352 6.33259H50.8484V8.11126L52.6352 8.11116V6.33259Z" fill="#FF2AAA"/>
    <path d="M50.8484 36.5787L49.0622 36.5791V38.3596H50.8487L50.8484 36.5787Z" fill="#FF2AAA"/>
    <path d="M50.8484 34.8001H49.0622V36.5791L50.8484 36.5787V34.8001Z" fill="#FF2AAA"/>
    <path d="M50.8484 33.0215H49.0622V34.8001H50.8484V33.0215Z" fill="#FF2AAA"/>
    <path d="M50.8487 31.2429H49.0622V33.0215H50.8484L50.8487 31.2429Z" fill="#FF2AAA"/>
    <path d="M50.8487 29.4639H49.0622V31.2429H50.8487V29.4639Z" fill="#FF2AAA"/>
    <path d="M50.8487 27.6835H49.0622V29.4622H50.8487V27.6835Z" fill="#FF2AAA"/>
    <path d="M50.8487 25.905H49.0622V27.6835H50.8487V25.905Z" fill="#FF2AAA"/>
    <path d="M50.8487 24.1246H49.0622V25.905H50.8487V24.1246Z" fill="#FF2AAA"/>
    <path d="M50.8487 22.3474H49.0622V24.1246H50.8487V22.3474Z" fill="#FF2AAA"/>
    <path d="M50.8487 22.346H49.0622V22.3474H50.8487V22.346Z" fill="#FF2AAA"/>
    <path d="M50.8487 20.5656H49.0622V22.3443H50.8487V20.5656Z" fill="#FF2AAA"/>
    <path d="M50.8487 18.7866H49.0622V20.5656H50.8487V18.7866Z" fill="#FF2AAA"/>
    <path d="M50.8487 17.0081H49.0622V18.7866H50.8487V17.0081Z" fill="#FF2AAA"/>
    <path d="M50.8487 15.2295H49.0622V17.0081H50.8487V15.2295Z" fill="#FF2AAA"/>
    <path d="M50.8487 13.4505H49.0622V15.2295H50.8487V13.4505Z" fill="#FF2AAA"/>
    <path d="M50.8487 11.6687H49.0622V13.4492H50.8487V11.6687Z" fill="#FF2AAA"/>
    <path d="M50.8487 9.89153H49.0622V11.6687H50.8487V9.89153Z" fill="#FF2AAA"/>
    <path d="M50.8484 8.11126L49.0622 8.11116V9.89153H50.8487L50.8484 8.11126Z" fill="#FF2AAA"/>
    <path d="M50.8484 6.33259H49.0622V8.11116L50.8484 8.11126V6.33259Z" fill="#FF2AAA"/>
    <path d="M49.0622 34.8001H47.2753V36.5787L49.0622 36.5791V34.8001Z" fill="#FF2AAA"/>
    <path d="M49.0622 33.0215H47.2753V34.8001H49.0622V33.0215Z" fill="#FF2AAA"/>
    <path d="M49.0622 31.2429H47.2753V33.0215H49.0622V31.2429Z" fill="#FF2AAA"/>
    <path d="M49.0622 29.4639H47.2753V31.2429H49.0622V29.4639Z" fill="#FF2AAA"/>
    <path d="M49.0622 27.6835H47.2753V29.4622H49.0622V27.6835Z" fill="#FF2AAA"/>
    <path d="M49.0622 25.905H47.2753V27.6835H49.0622V25.905Z" fill="#FF2AAA"/>
    <path d="M49.0622 24.1246H47.2753V25.905H49.0622V24.1246Z" fill="#FF2AAA"/>
    <path d="M49.0622 22.3474H47.2753V24.1246H49.0622V22.3474Z" fill="#FF2AAA"/>
    <path d="M49.0622 22.346H47.2753V22.3474H49.0622V22.346Z" fill="#FF2AAA"/>
    <path d="M49.0622 20.5656H47.2753V22.3443H49.0622V20.5656Z" fill="#FF2AAA"/>
    <path d="M49.0622 18.7866H47.2753V20.5656H49.0622V18.7866Z" fill="#FF2AAA"/>
    <path d="M49.0622 17.0081H47.2753V18.7866H49.0622V17.0081Z" fill="#FF2AAA"/>
    <path d="M49.0622 15.2295H47.2753V17.0081H49.0622V15.2295Z" fill="#FF2AAA"/>
    <path d="M49.0622 13.4505H47.2753V15.2295H49.0622V13.4505Z" fill="#FF2AAA"/>
    <path d="M49.0622 11.6687H47.2753V13.4492H49.0622V11.6687Z" fill="#FF2AAA"/>
    <path d="M49.0622 9.89153H47.2753V11.6687H49.0622V9.89153Z" fill="#FF2AAA"/>
    <path d="M49.0622 8.11116H47.2753V9.89153H49.0622V8.11116Z" fill="#FF2AAA"/>
    <path d="M49.0622 6.33259H47.2753V8.11116H49.0622V6.33259Z" fill="#FF2AAA"/>
    <path d="M49.0619 4.55357H47.2753V6.33259H49.0622L49.0619 4.55357Z" fill="#FF2AAA"/>
    <path d="M47.2753 33.0215H45.4885V34.8002L47.2753 34.8001V33.0215Z" fill="#FF2AAA"/>
    <path d="M47.2753 31.2429H45.4885V33.0215H47.2753V31.2429Z" fill="#FF2AAA"/>
    <path d="M47.2753 29.4639H45.4885V31.2429H47.2753V29.4639Z" fill="#FF2AAA"/>
    <path d="M47.2753 27.6835H45.4885V29.4622H47.2753V27.6835Z" fill="#FF2AAA"/>
    <path d="M47.2753 25.905H45.4885V27.6835H47.2753V25.905Z" fill="#FF2AAA"/>
    <path d="M47.2753 24.1246H45.4885V25.905H47.2753V24.1246Z" fill="#FF2AAA"/>
    <path d="M47.2753 22.3474H45.4885V24.1246H47.2753V22.3474Z" fill="#FF2AAA"/>
    <path d="M47.2753 22.346H45.4885V22.3474H47.2753V22.346Z" fill="#FF2AAA"/>
    <path d="M47.2753 20.5656H45.4885V22.3443H47.2753V20.5656Z" fill="#FF2AAA"/>
    <path d="M47.2753 18.7866H45.4885V20.5656H47.2753V18.7866Z" fill="#FF2AAA"/>
    <path d="M47.2753 17.0081H45.4885V18.7866H47.2753V17.0081Z" fill="#FF2AAA"/>
    <path d="M47.2753 15.2295H45.4885V17.0081H47.2753V15.2295Z" fill="#FF2AAA"/>
    <path d="M47.2753 13.4505H45.4885V15.2295H47.2753V13.4505Z" fill="#FF2AAA"/>
    <path d="M47.2753 11.6687H45.4885V13.4492H47.2753V11.6687Z" fill="#FF2AAA"/>
    <path d="M47.2753 9.89153H45.4885V11.6687H47.2753V9.89153Z" fill="#FF2AAA"/>
    <path d="M47.2753 8.11116H45.4885V9.89153H47.2753V8.11116Z" fill="#FF2AAA"/>
    <path d="M47.2753 6.33259H45.4885V8.11116H47.2753V6.33259Z" fill="#FF2AAA"/>
    <path d="M47.2753 4.55357H45.4885V6.33259H47.2753V4.55357Z" fill="#FF2AAA"/>
    <path d="M47.2751 2.7732H45.4885V4.55187H47.2751V2.7732Z" fill="#FF2AAA"/>
    <path d="M45.487 8.11116H43.6987V9.89164H45.487V8.11116Z" fill="#FF2AAA"/>
    <path d="M45.487 6.33259H43.6987V8.11116H45.487V6.33259Z" fill="#FF2AAA"/>
    <path d="M45.487 4.55357H43.6987V6.33259H45.487V4.55357Z" fill="#FF2AAA"/>
    <path d="M43.6987 6.33259H41.9137V8.11126L43.6987 8.11116V6.33259Z" fill="#FF2AAA"/>
    <path d="M41.6996 33.0215H39.9131V34.8002H41.6996V33.0215Z" fill="#FF2AAA"/>
    <path d="M41.6996 31.2429H39.9131V33.0215H41.6996V31.2429Z" fill="#FF2AAA"/>
    <path d="M39.9131 34.8002L38.1245 34.8001V36.5787H39.9128L39.9131 34.8002Z" fill="#FF2AAA"/>
    <path d="M39.9131 33.0215H38.1245V34.8001L39.9131 34.8002V33.0215Z" fill="#FF2AAA"/>
    <path d="M38.1245 36.5787L36.3402 36.5791V38.3596H38.1249L38.1245 36.5787Z" fill="#FF2AAA"/>
    <path d="M38.1245 34.8001H36.3402V36.5791L38.1245 36.5787V34.8001Z" fill="#FF2AAA"/>
    <path d="M38.1245 33.0215H36.3402V34.8001H38.1245V33.0215Z" fill="#FF2AAA"/>
    <path d="M38.1249 31.2429H36.3402V33.0215H38.1245L38.1249 31.2429Z" fill="#FF2AAA"/>
    <path d="M38.1249 29.4639H36.3402V31.2429H38.1249V29.4639Z" fill="#FF2AAA"/>
    <path d="M38.1249 27.6835H36.3402V29.4622H38.1249V27.6835Z" fill="#FF2AAA"/>
    <path d="M38.1249 25.905H36.3402V27.6835H38.1249V25.905Z" fill="#FF2AAA"/>
    <path d="M38.1249 24.1246H36.3402V25.9033H38.1249V24.1246Z" fill="#FF2AAA"/>
    <path d="M38.1249 22.3474H36.3402V24.1246H38.1249V22.3474Z" fill="#FF2AAA"/>
    <path d="M38.1249 20.5656H36.3402V22.3461H38.1249V20.5656Z" fill="#FF2AAA"/>
    <path d="M38.1249 18.7866H36.3402V20.5656H38.1249V18.7866Z" fill="#FF2AAA"/>
    <path d="M38.1249 17.0081H36.3402V18.7866H38.1249V17.0081Z" fill="#FF2AAA"/>
    <path d="M38.1249 15.2295H36.3402V17.0081H38.1249V15.2295Z" fill="#FF2AAA"/>
    <path d="M38.1249 13.4505H36.3402V15.2295H38.1249V13.4505Z" fill="#FF2AAA"/>
    <path d="M38.1249 11.6687H36.3402V13.4492H38.1249V11.6687Z" fill="#FF2AAA"/>
    <path d="M38.1249 9.89153H36.3402V11.6687H38.1249V9.89153Z" fill="#FF2AAA"/>
    <path d="M38.1249 8.11116H36.3402V9.89153H38.1249V8.11116Z" fill="#FF2AAA"/>
    <path d="M38.1249 6.33259H36.3402V8.11116H38.1249V6.33259Z" fill="#FF2AAA"/>
    <path d="M36.3398 38.3613H34.5533V40.1399H36.3398V38.3613Z" fill="#FF2AAA"/>
    <path d="M36.3402 36.5791H34.5533V38.3596H36.3402V36.5791Z" fill="#FF2AAA"/>
    <path d="M36.3402 34.8001H34.5533V36.5791H36.3402V34.8001Z" fill="#FF2AAA"/>
    <path d="M36.3402 33.0215H34.5533V34.8001H36.3402V33.0215Z" fill="#FF2AAA"/>
    <path d="M36.3402 31.2429H34.5533V33.0215H36.3402V31.2429Z" fill="#FF2AAA"/>
    <path d="M36.3402 29.4639H34.5533V31.2429H36.3402V29.4639Z" fill="#FF2AAA"/>
    <path d="M36.3402 27.6835H34.5533V29.4622H36.3402V27.6835Z" fill="#FF2AAA"/>
    <path d="M36.3402 25.905H34.5533V27.6835H36.3402V25.905Z" fill="#FF2AAA"/>
    <path d="M36.3402 24.1246H34.5533V25.9033H36.3402V24.1246Z" fill="#FF2AAA"/>
    <path d="M36.3402 22.3474H34.5533V24.1246H36.3402V22.3474Z" fill="#FF2AAA"/>
    <path d="M36.3402 20.5656H34.5533V22.3461H36.3402V20.5656Z" fill="#FF2AAA"/>
    <path d="M36.3402 18.7866H34.5533V20.5656H36.3402V18.7866Z" fill="#FF2AAA"/>
    <path d="M36.3402 17.0081H34.5533V18.7866H36.3402V17.0081Z" fill="#FF2AAA"/>
    <path d="M36.3402 15.2295H34.5533V17.0081H36.3402V15.2295Z" fill="#FF2AAA"/>
    <path d="M36.3402 13.4505H34.5533V15.2295H36.3402V13.4505Z" fill="#FF2AAA"/>
    <path d="M36.3402 11.6687H34.5533V13.4492H36.3402V11.6687Z" fill="#FF2AAA"/>
    <path d="M36.3402 9.89153H34.5533V11.6687H36.3402V9.89153Z" fill="#FF2AAA"/>
    <path d="M36.3402 8.11116H34.5533V9.89153H36.3402V8.11116Z" fill="#FF2AAA"/>
    <path d="M36.3402 6.33259H34.5533V8.11116H36.3402V6.33259Z" fill="#FF2AAA"/>
    <path d="M36.3398 4.55357H34.5533V6.33259H36.3402L36.3398 4.55357Z" fill="#FF2AAA"/>
    <path d="M34.5517 36.5791H32.7634V38.3596H34.5517V36.5791Z" fill="#FF2AAA"/>
    <path d="M34.5517 34.8001H32.7634V36.5791H34.5517V34.8001Z" fill="#FF2AAA"/>
    <path d="M34.5517 33.0215H32.7634V34.8001H34.5517V33.0215Z" fill="#FF2AAA"/>
    <path d="M34.5517 31.2429H32.7634V33.0215H34.5517V31.2429Z" fill="#FF2AAA"/>
    <path d="M34.5517 29.4639H32.7634V31.2429H34.5517V29.4639Z" fill="#FF2AAA"/>
    <path d="M34.5517 27.6835H32.7634V29.4622H34.5517V27.6835Z" fill="#FF2AAA"/>
    <path d="M34.5517 25.905H32.7634V27.6835H34.5517V25.905Z" fill="#FF2AAA"/>
    <path d="M34.5517 24.1246H32.7634V25.9033H34.5517V24.1246Z" fill="#FF2AAA"/>
    <path d="M34.5517 22.3474H32.7634V24.1246H34.5517V22.3474Z" fill="#FF2AAA"/>
    <path d="M34.5517 20.5656H32.7634V22.3461H34.5517V20.5656Z" fill="#FF2AAA"/>
    <path d="M34.5517 18.7866H32.7634V20.5656H34.5517V18.7866Z" fill="#FF2AAA"/>
    <path d="M34.5517 17.0081H32.7634V18.7866H34.5517V17.0081Z" fill="#FF2AAA"/>
    <path d="M34.5517 15.2295H32.7634V17.0081H34.5517V15.2295Z" fill="#FF2AAA"/>
    <path d="M34.5517 13.4505H32.7634V15.2295H34.5517V13.4505Z" fill="#FF2AAA"/>
    <path d="M34.5517 11.6687H32.7634V13.4492H34.5517V11.6687Z" fill="#FF2AAA"/>
    <path d="M34.5517 9.89153H32.7634V11.6687H34.5517V9.89153Z" fill="#FF2AAA"/>
    <path d="M34.5517 8.11116H32.7634V9.89153H34.5517V8.11116Z" fill="#FF2AAA"/>
    <path d="M34.5517 6.33259H32.7634V8.11116H34.5517V6.33259Z" fill="#FF2AAA"/>
    <path d="M34.5517 4.55357H32.7634V6.33259H34.5517V4.55357Z" fill="#FF2AAA"/>
    <path d="M34.5517 2.7732H32.7634V4.55187H34.5517V2.7732Z" fill="#FF2AAA"/>
    <path d="M32.7634 34.8001H30.9766V36.5787L32.7634 36.5791V34.8001Z" fill="#FF2AAA"/>
    <path d="M32.7634 33.0215H30.9766V34.8001H32.7634V33.0215Z" fill="#FF2AAA"/>
    <path d="M32.7634 8.11116H30.9766V9.89164L32.7634 9.89153V8.11116Z" fill="#FF2AAA"/>
    <path d="M32.7634 6.33259H30.9766V8.11116H32.7634V6.33259Z" fill="#FF2AAA"/>
    <path d="M32.7634 4.55357H30.9766V6.33259H32.7634V4.55357Z" fill="#FF2AAA"/>
    <path d="M30.9766 34.8001H29.1904V36.5787H30.9766V34.8001Z" fill="#FF2AAA"/>
    <path d="M30.9766 6.33259H29.1904V8.11126L30.9766 8.11116V6.33259Z" fill="#FF2AAA"/>
    <path d="M29.1904 36.5787L27.4036 36.5791V38.3596H29.1901L29.1904 36.5787Z" fill="#FF2AAA"/>
    <path d="M29.1904 34.8001H27.4036V36.5791L29.1904 36.5787V34.8001Z" fill="#FF2AAA"/>
    <path d="M29.1901 33.0215H27.4036V34.8001H29.1904L29.1901 33.0215Z" fill="#FF2AAA"/>
    <path d="M27.4039 38.3613H25.6173V40.1399H27.4039V38.3613Z" fill="#FF2AAA"/>
    <path d="M27.4036 36.5791H25.6173V38.3596H27.4036V36.5791Z" fill="#FF2AAA"/>
    <path d="M27.4036 34.8001H25.6173V36.5791H27.4036V34.8001Z" fill="#FF2AAA"/>
    <path d="M27.4036 33.0215H25.6173V34.8001H27.4036V33.0215Z" fill="#FF2AAA"/>
    <path d="M27.4039 31.2429H25.6173V33.0215H27.4036L27.4039 31.2429Z" fill="#FF2AAA"/>
    <path d="M27.4039 29.4639H25.6173V31.2429H27.4039V29.4639Z" fill="#FF2AAA"/>
    <path d="M27.4039 27.6835H25.6173V29.4622H27.4039V27.6835Z" fill="#FF2AAA"/>
    <path d="M27.4039 25.905H25.6173V27.6835H27.4039V25.905Z" fill="#FF2AAA"/>
    <path d="M27.4039 24.1246H25.6173V25.9033H27.4039V24.1246Z" fill="#FF2AAA"/>
    <path d="M27.4039 22.3474H25.6173V24.1246H27.4039V22.3474Z" fill="#FF2AAA"/>
    <path d="M27.4039 20.5656H25.6173V22.3461H27.4039V20.5656Z" fill="#FF2AAA"/>
    <path d="M27.4039 18.7866H25.6173V20.5656H27.4039V18.7866Z" fill="#FF2AAA"/>
    <path d="M27.4039 17.0081H25.6173V18.7866H27.4039V17.0081Z" fill="#FF2AAA"/>
    <path d="M27.4039 15.2295H25.6173V17.0081H27.4039V15.2295Z" fill="#FF2AAA"/>
    <path d="M27.4039 13.4505H25.6173V15.2295H27.4039V13.4505Z" fill="#FF2AAA"/>
    <path d="M27.4039 11.6687H25.6173V13.4492H27.4039V11.6687Z" fill="#FF2AAA"/>
    <path d="M27.4039 9.89153H25.6173V11.6687H27.4039V9.89153Z" fill="#FF2AAA"/>
    <path d="M27.4039 8.11116H25.6173V9.89153H27.4039V8.11116Z" fill="#FF2AAA"/>
    <path d="M27.4039 6.33259H25.6173V8.11116H27.4039V6.33259Z" fill="#FF2AAA"/>
    <path d="M25.6152 36.5791H23.8269V38.3596H25.6152V36.5791Z" fill="#FF2AAA"/>
    <path d="M25.6152 34.8001H23.8269V36.5791H25.6152V34.8001Z" fill="#FF2AAA"/>
    <path d="M25.6152 33.0215H23.8269V34.8001H25.6152V33.0215Z" fill="#FF2AAA"/>
    <path d="M25.6152 31.2429H23.8269V33.0215H25.6152V31.2429Z" fill="#FF2AAA"/>
    <path d="M25.6152 29.4639H23.8269V31.2429H25.6152V29.4639Z" fill="#FF2AAA"/>
    <path d="M25.6152 27.6835H23.8269V29.4622H25.6152V27.6835Z" fill="#FF2AAA"/>
    <path d="M25.6152 25.905H23.8269V27.6835H25.6152V25.905Z" fill="#FF2AAA"/>
    <path d="M25.6152 24.1246H23.8269V25.9033H25.6152V24.1246Z" fill="#FF2AAA"/>
    <path d="M25.6152 22.3474H23.8269V24.1246H25.6152V22.3474Z" fill="#FF2AAA"/>
    <path d="M25.6152 20.5656H23.8269V22.3461H25.6152V20.5656Z" fill="#FF2AAA"/>
    <path d="M25.6152 18.7866H23.8269V20.5656H25.6152V18.7866Z" fill="#FF2AAA"/>
    <path d="M25.6152 17.0081H23.8269V18.7866H25.6152V17.0081Z" fill="#FF2AAA"/>
    <path d="M25.6152 15.2295H23.8269V17.0081H25.6152V15.2295Z" fill="#FF2AAA"/>
    <path d="M25.6152 13.4505H23.8269V15.2295H25.6152V13.4505Z" fill="#FF2AAA"/>
    <path d="M25.6152 11.6687H23.8269V13.4492H25.6152V11.6687Z" fill="#FF2AAA"/>
    <path d="M25.6152 9.89153H23.8269V11.6687H25.6152V9.89153Z" fill="#FF2AAA"/>
    <path d="M25.6152 8.11116H23.8269V9.89153H25.6152V8.11116Z" fill="#FF2AAA"/>
    <path d="M25.6152 6.33259H23.8269V8.11116H25.6152V6.33259Z" fill="#FF2AAA"/>
    <path d="M25.6152 4.55357H23.8269V6.33259H25.6152V4.55357Z" fill="#FF2AAA"/>
    <path d="M23.8269 34.8001H22.0425V36.5787L23.8269 36.5791V34.8001Z" fill="#FF2AAA"/>
    <path d="M23.8269 33.0215H22.0425V34.8001H23.8269V33.0215Z" fill="#FF2AAA"/>
    <path d="M23.8269 31.2429H22.0425V33.0215H23.8269V31.2429Z" fill="#FF2AAA"/>
    <path d="M23.8269 29.4639H22.0425V31.2429H23.8269V29.4639Z" fill="#FF2AAA"/>
    <path d="M23.8269 27.6835H22.0425V29.4622H23.8269V27.6835Z" fill="#FF2AAA"/>
    <path d="M23.8269 25.905H22.0425V27.6835H23.8269V25.905Z" fill="#FF2AAA"/>
    <path d="M23.8269 24.1246H22.0425V25.9033H23.8269V24.1246Z" fill="#FF2AAA"/>
    <path d="M23.8269 22.3474H22.0425V24.1246H23.8269V22.3474Z" fill="#FF2AAA"/>
    <path d="M23.8269 20.5656H22.0425V22.3461H23.8269V20.5656Z" fill="#FF2AAA"/>
    <path d="M23.8269 18.7866H22.0425V20.5656H23.8269V18.7866Z" fill="#FF2AAA"/>
    <path d="M23.8269 17.0081H22.0425V18.7866H23.8269V17.0081Z" fill="#FF2AAA"/>
    <path d="M23.8269 15.2295H22.0425V17.0081H23.8269V15.2295Z" fill="#FF2AAA"/>
    <path d="M23.8269 13.4505H22.0425V15.2295H23.8269V13.4505Z" fill="#FF2AAA"/>
    <path d="M23.8269 11.6687H22.0425V13.4492H23.8269V11.6687Z" fill="#FF2AAA"/>
    <path d="M23.8269 9.89153H22.0425V11.6687H23.8269V9.89153Z" fill="#FF2AAA"/>
    <path d="M23.8269 8.11116H22.0425V9.89153H23.8269V8.11116Z" fill="#FF2AAA"/>
    <path d="M23.8269 6.33259H22.0425V8.11116H23.8269V6.33259Z" fill="#FF2AAA"/>
    <path d="M23.8269 4.55357H22.0425V6.33259H23.8269V4.55357Z" fill="#FF2AAA"/>
    <path d="M23.8272 2.7732H22.0425V4.55187H23.8272V2.7732Z" fill="#FF2AAA"/>
    <path d="M22.0425 8.11116H20.2539V9.89164L22.0425 9.89153V8.11116Z" fill="#FF2AAA"/>
    <path d="M22.0425 6.33259H20.2539V8.11116H22.0425V6.33259Z" fill="#FF2AAA"/>
    <path d="M22.0425 4.55357H20.2539V6.33259H22.0425V4.55357Z" fill="#FF2AAA"/>
    <path d="M20.2539 6.33259H18.4677V8.11126L20.2539 8.11116V6.33259Z" fill="#FF2AAA"/>
    <path d="M18.1768 41.9184H16.3903V43.6971H18.1768V41.9184Z" fill="#FF2AAA"/>
    <path d="M18.1768 40.138H16.3903V41.9184H18.1768V40.138Z" fill="#FF2AAA"/>
    <path d="M16.3887 45.476H14.6022V47.2547H16.3887V45.476Z" fill="#FF2AAA"/>
    <path d="M16.3887 43.697H14.6022V45.476H16.3887V43.697Z" fill="#FF2AAA"/>
    <path d="M16.3887 41.9184H14.6022V43.697H16.3887V41.9184Z" fill="#FF2AAA"/>
    <path d="M16.3887 40.138H14.6022V41.9184H16.3887V40.138Z" fill="#FF2AAA"/>
    <path d="M16.3887 38.3576H14.6022V40.1363H16.3887V38.3576Z" fill="#FF2AAA"/>
    <path d="M16.3887 36.5804H14.6022V38.3576H16.3887V36.5804Z" fill="#FF2AAA"/>
    <path d="M16.3887 34.8001H14.6022V36.5804H16.3887V34.8001Z" fill="#FF2AAA"/>
    <path d="M16.3887 33.0215H14.6022V34.8001H16.3887V33.0215Z" fill="#FF2AAA"/>
    <path d="M16.3887 31.2429H14.6022V33.0215H16.3887V31.2429Z" fill="#FF2AAA"/>
    <path d="M16.3887 29.4639H14.6022V31.2429H16.3887V29.4639Z" fill="#FF2AAA"/>
    <path d="M16.3887 27.6835H14.6022V29.4622H16.3887V27.6835Z" fill="#FF2AAA"/>
    <path d="M16.3887 25.9032H14.6022V27.6835H16.3887V25.9032Z" fill="#FF2AAA"/>
    <path d="M16.3887 24.1246H14.6022V25.9032H16.3887V24.1246Z" fill="#FF2AAA"/>
    <path d="M16.3887 22.3474H14.6022V24.1246H16.3887V22.3474Z" fill="#FF2AAA"/>
    <path d="M16.3887 20.5656H14.6022V22.3461H16.3887V20.5656Z" fill="#FF2AAA"/>
    <path d="M16.3887 18.7866H14.6022V20.5656H16.3887V18.7866Z" fill="#FF2AAA"/>
    <path d="M16.3887 17.0081H14.6022V18.7866H16.3887V17.0081Z" fill="#FF2AAA"/>
    <path d="M16.3887 15.2295H14.6022V17.0081H16.3887V15.2295Z" fill="#FF2AAA"/>
    <path d="M16.3887 13.4505H14.6022V15.2295H16.3887V13.4505Z" fill="#FF2AAA"/>
    <path d="M16.3887 11.6687H14.6022V13.4492H16.3887V11.6687Z" fill="#FF2AAA"/>
    <path d="M16.3887 9.89153H14.6022V11.6687H16.3887V9.89153Z" fill="#FF2AAA"/>
    <path d="M16.3887 8.11116H14.6022V9.89153H16.3887V8.11116Z" fill="#FF2AAA"/>
    <path d="M14.6022 45.476H12.8154V47.2547H14.6022V45.476Z" fill="#FF2AAA"/>
    <path d="M14.6022 43.697H12.8154V45.476H14.6022V43.697Z" fill="#FF2AAA"/>
    <path d="M14.6022 41.9184H12.8154V43.697H14.6022V41.9184Z" fill="#FF2AAA"/>
    <path d="M14.6022 40.138H12.8154V41.9184H14.6022V40.138Z" fill="#FF2AAA"/>
    <path d="M14.6022 38.3576H12.8154V40.1363H14.6022V38.3576Z" fill="#FF2AAA"/>
    <path d="M14.6022 36.5804H12.8154V38.3576H14.6022V36.5804Z" fill="#FF2AAA"/>
    <path d="M14.6022 34.8001H12.8154V36.5804H14.6022V34.8001Z" fill="#FF2AAA"/>
    <path d="M14.6022 33.0215H12.8154V34.8001H14.6022V33.0215Z" fill="#FF2AAA"/>
    <path d="M14.6022 31.2429H12.8154V33.0215H14.6022V31.2429Z" fill="#FF2AAA"/>
    <path d="M14.6022 29.4639H12.8154V31.2429H14.6022V29.4639Z" fill="#FF2AAA"/>
    <path d="M14.6022 27.6835H12.8154V29.4622H14.6022V27.6835Z" fill="#FF2AAA"/>
    <path d="M14.6022 25.9032H12.8154V27.6835H14.6022V25.9032Z" fill="#FF2AAA"/>
    <path d="M14.6022 24.1246H12.8154V25.9032H14.6022V24.1246Z" fill="#FF2AAA"/>
    <path d="M14.6022 22.3474H12.8154V24.1246H14.6022V22.3474Z" fill="#FF2AAA"/>
    <path d="M14.6022 20.5656H12.8154V22.3461H14.6022V20.5656Z" fill="#FF2AAA"/>
    <path d="M14.6022 18.7866H12.8154V20.5656H14.6022V18.7866Z" fill="#FF2AAA"/>
    <path d="M14.6022 17.0081H12.8154V18.7866H14.6022V17.0081Z" fill="#FF2AAA"/>
    <path d="M14.6022 15.2295H12.8154V17.0081H14.6022V15.2295Z" fill="#FF2AAA"/>
    <path d="M14.6022 13.4505H12.8154V15.2295H14.6022V13.4505Z" fill="#FF2AAA"/>
    <path d="M14.6022 11.6687H12.8154V13.4492H14.6022V11.6687Z" fill="#FF2AAA"/>
    <path d="M14.6022 9.89153H12.8154V11.6687H14.6022V9.89153Z" fill="#FF2AAA"/>
    <path d="M14.6022 8.11116H12.8154V9.89153H14.6022V8.11116Z" fill="#FF2AAA"/>
    <path d="M14.6019 6.33259H12.8154V8.11116H14.6022L14.6019 6.33259Z" fill="#FF2AAA"/>
    <path d="M12.8154 45.476H11.0292V47.2547H12.8154V45.476Z" fill="#FF2AAA"/>
    <path d="M12.8154 43.697H11.0292V45.476H12.8154V43.697Z" fill="#FF2AAA"/>
    <path d="M12.8154 41.9184H11.0292V43.697H12.8154V41.9184Z" fill="#FF2AAA"/>
    <path d="M12.8154 38.3576H11.0292V40.1363H12.8154V38.3576Z" fill="#FF2AAA"/>
    <path d="M12.8154 36.5804H11.0292V38.3576H12.8154V36.5804Z" fill="#FF2AAA"/>
    <path d="M12.8154 34.8001H11.0292V36.5804H12.8154V34.8001Z" fill="#FF2AAA"/>
    <path d="M12.8154 33.0215H11.0292V34.8001H12.8154V33.0215Z" fill="#FF2AAA"/>
    <path d="M12.8154 31.2429H11.0292V33.0215H12.8154V31.2429Z" fill="#FF2AAA"/>
    <path d="M12.8154 29.4639H11.0292V31.2429H12.8154V29.4639Z" fill="#FF2AAA"/>
    <path d="M12.8154 27.6835H11.0292V29.4622H12.8154V27.6835Z" fill="#FF2AAA"/>
    <path d="M12.8154 25.9032H11.0292V27.6835H12.8154V25.9032Z" fill="#FF2AAA"/>
    <path d="M12.8154 24.1246H11.0292V25.9032H12.8154V24.1246Z" fill="#FF2AAA"/>
    <path d="M12.8154 22.3474H11.0292V24.1246H12.8154V22.3474Z" fill="#FF2AAA"/>
    <path d="M12.8154 20.5656H11.0292V22.3461H12.8154V20.5656Z" fill="#FF2AAA"/>
    <path d="M12.8154 18.7866H11.0292V20.5656H12.8154V18.7866Z" fill="#FF2AAA"/>
    <path d="M12.8154 17.0081H11.0292V18.7866H12.8154V17.0081Z" fill="#FF2AAA"/>
    <path d="M12.8154 15.2295H11.0292V17.0081H12.8154V15.2295Z" fill="#FF2AAA"/>
    <path d="M12.8154 13.4505H11.0292V15.2295H12.8154V13.4505Z" fill="#FF2AAA"/>
    <path d="M12.8154 11.6687H11.0292V13.4492H12.8154V11.6687Z" fill="#FF2AAA"/>
    <path d="M12.8154 9.89153H11.0292V11.6687H12.8154V9.89153Z" fill="#FF2AAA"/>
    <path d="M12.8154 8.11116H11.0292V9.89153H12.8154V8.11116Z" fill="#FF2AAA"/>
    <path d="M12.8154 6.33259H11.0292V8.11116H12.8154V6.33259Z" fill="#FF2AAA"/>
    <path d="M12.8157 4.55357H11.0292V6.33259H12.8154L12.8157 4.55357Z" fill="#FF2AAA"/>
    <path d="M11.0292 45.476H9.24052V47.2547H11.0292V45.476Z" fill="#FF2AAA"/>
    <path d="M11.0292 43.697H9.24052V45.476H11.0292V43.697Z" fill="#FF2AAA"/>
    <path d="M11.0292 41.9184H9.24052V43.697H11.0292V41.9184Z" fill="#FF2AAA"/>
    <path d="M11.0292 31.2429H9.24052V33.0216L11.0292 33.0215V31.2429Z" fill="#FF2AAA"/>
    <path d="M11.0292 8.11116H9.24052V9.89164L11.0292 9.89153V8.11116Z" fill="#FF2AAA"/>
    <path d="M11.0292 6.33259H9.24052V8.11116H11.0292V6.33259Z" fill="#FF2AAA"/>
    <path d="M11.0292 4.55357H9.24052V6.33259H11.0292V4.55357Z" fill="#FF2AAA"/>
    <path d="M11.0288 2.7732H9.24052V4.55187H11.0288V2.7732Z" fill="#FF2AAA"/>
    <path d="M9.23892 45.476H7.45241V47.2547H9.23892V45.476Z" fill="#FF2AAA"/>
    <path d="M9.23892 43.697H7.45241V45.476H9.23892V43.697Z" fill="#FF2AAA"/>
    <path d="M9.23892 41.9184H7.45241V43.697H9.23892V41.9184Z" fill="#FF2AAA"/>
    <path d="M9.23892 33.0215H7.45241V34.8002H9.23892V33.0215Z" fill="#FF2AAA"/>
    <path d="M9.23892 6.33259H7.45241V8.11126H9.23892V6.33259Z" fill="#FF2AAA"/>
    <path d="M9.23892 4.55357H7.45241V6.33259H9.23892V4.55357Z" fill="#FF2AAA"/>
    <path d="M7.45241 43.697H5.66749V45.4756L7.45241 45.476V43.697Z" fill="#FF2AAA"/>
    <path d="M7.45241 41.9184H5.66749V43.697H7.45241V41.9184Z" fill="#FF2AAA"/>
    <path d="M7.45219 40.138H5.66749V41.9184H7.45241L7.45219 40.138Z" fill="#FF2AAA"/>
    <path d="M7.45241 34.8002L5.66749 34.8001V36.5805H7.45219L7.45241 34.8002Z" fill="#FF2AAA"/>
    <path d="M7.45241 6.33259H5.66749V8.11126H7.45241V6.33259Z" fill="#FF2AAA"/>
    <path d="M5.66749 43.697H3.87951V45.4756H5.66749V43.697Z" fill="#FF2AAA"/>
    <path d="M5.66749 41.9184H3.87951V43.697H5.66749V41.9184Z" fill="#FF2AAA"/>
    <path d="M5.66749 40.138H3.87951V41.9184H5.66749V40.138Z" fill="#FF2AAA"/>
    <path d="M5.66749 36.5805L3.87951 36.5804V38.3573H5.66784L5.66749 36.5805Z" fill="#FF2AAA"/>
    <path d="M5.66784 33.0215H3.87951V34.8002L5.66749 34.8001L5.66784 33.0215Z" fill="#FF2AAA"/>
    <path d="M5.66784 31.2429H3.87951V33.0215H5.66784V31.2429Z" fill="#FF2AAA"/>
    <path d="M5.66784 29.4639H3.87951V31.2429H5.66784V29.4639Z" fill="#FF2AAA"/>
    <path d="M5.66784 27.6835H3.87951V29.4622H5.66784V27.6835Z" fill="#FF2AAA"/>
    <path d="M5.66784 25.9032H3.87951V27.6835H5.66784V25.9032Z" fill="#FF2AAA"/>
    <path d="M5.66784 24.1246H3.87951V25.9032H5.66784V24.1246Z" fill="#FF2AAA"/>
    <path d="M5.66784 22.3474H3.87951V24.1246H5.66784V22.3474Z" fill="#FF2AAA"/>
    <path d="M5.66784 20.5656H3.87951V22.3461H5.66784V20.5656Z" fill="#FF2AAA"/>
    <path d="M5.66784 18.7866H3.87951V20.5656H5.66784V18.7866Z" fill="#FF2AAA"/>
    <path d="M5.66784 17.0081H3.87951V18.7866H5.66784V17.0081Z" fill="#FF2AAA"/>
    <path d="M5.66784 15.2295H3.87951V17.0081H5.66784V15.2295Z" fill="#FF2AAA"/>
    <path d="M5.66784 13.4505H3.87951V15.2295H5.66784V13.4505Z" fill="#FF2AAA"/>
    <path d="M5.66784 11.6687H3.87951V13.4492H5.66784V11.6687Z" fill="#FF2AAA"/>
    <path d="M5.66784 9.89153H3.87951V11.6687H5.66784V9.89153Z" fill="#FF2AAA"/>
    <path d="M5.66749 8.11126L3.87951 8.11116V9.89153H5.66784L5.66749 8.11126Z" fill="#FF2AAA"/>
    <path d="M3.87951 43.697H2.09265V45.4756H3.87951V43.697Z" fill="#FF2AAA"/>
    <path d="M3.87951 41.9184H2.09265V43.697H3.87951V41.9184Z" fill="#FF2AAA"/>
    <path d="M3.87951 40.138H2.09265V41.9184H3.87951V40.138Z" fill="#FF2AAA"/>
    <path d="M3.87951 38.3573L2.09265 38.3576V40.1363H3.87917L3.87951 38.3573Z" fill="#FF2AAA"/>
    <path d="M3.87951 31.2429H2.09265V33.0216L3.87951 33.0215V31.2429Z" fill="#FF2AAA"/>
    <path d="M3.87951 29.4639H2.09265V31.2429H3.87951V29.4639Z" fill="#FF2AAA"/>
    <path d="M3.87951 27.6835H2.09265V29.4622H3.87951V27.6835Z" fill="#FF2AAA"/>
    <path d="M3.87951 25.9032H2.09265V27.6835H3.87951V25.9032Z" fill="#FF2AAA"/>
    <path d="M3.87951 24.1246H2.09265V25.9032H3.87951V24.1246Z" fill="#FF2AAA"/>
    <path d="M3.87951 22.3474H2.09265V24.1246H3.87951V22.3474Z" fill="#FF2AAA"/>
    <path d="M3.87951 20.5656H2.09265V22.3461H3.87951V20.5656Z" fill="#FF2AAA"/>
    <path d="M3.87951 18.7866H2.09265V20.5656H3.87951V18.7866Z" fill="#FF2AAA"/>
    <path d="M3.87951 17.0081H2.09265V18.7866H3.87951V17.0081Z" fill="#FF2AAA"/>
    <path d="M3.87951 15.2295H2.09265V17.0081H3.87951V15.2295Z" fill="#FF2AAA"/>
    <path d="M3.87951 13.4505H2.09265V15.2295H3.87951V13.4505Z" fill="#FF2AAA"/>
    <path d="M3.87951 11.6687H2.09265V13.4492H3.87951V11.6687Z" fill="#FF2AAA"/>
    <path d="M3.87951 9.89153H2.09265V11.6687H3.87951V9.89153Z" fill="#FF2AAA"/>
    <path d="M2.09106 45.476H0.302734V47.2547H2.09106V45.476Z" fill="#FF2AAA"/>
    <path d="M2.09106 43.697H0.302734V45.476H2.09106V43.697Z" fill="#FF2AAA"/>
    <path d="M2.09106 41.9184H0.302734V43.697H2.09106V41.9184Z" fill="#FF2AAA"/>
    <path d="M2.09106 40.138H0.302734V41.9184H2.09106V40.138Z" fill="#FF2AAA"/>
    <path d="M2.09106 29.4639H0.302734V31.2426H2.09106V29.4639Z" fill="#FF2AAA"/>
    <path d="M2.09106 27.6835H0.302734V29.4622H2.09106V27.6835Z" fill="#FF2AAA"/>
    <path d="M2.09106 25.9032H0.302734V27.6835H2.09106V25.9032Z" fill="#FF2AAA"/>
    <path d="M2.09106 24.1246H0.302734V25.9032H2.09106V24.1246Z" fill="#FF2AAA"/>
    <path d="M2.09106 22.3474H0.302734V24.1246H2.09106V22.3474Z" fill="#FF2AAA"/>
    <path d="M2.09106 20.5656H0.302734V22.3461H2.09106V20.5656Z" fill="#FF2AAA"/>
    <path d="M2.09106 18.7866H0.302734V20.5656H2.09106V18.7866Z" fill="#FF2AAA"/>
    <path d="M2.09106 17.0081H0.302734V18.7866H2.09106V17.0081Z" fill="#FF2AAA"/>
    <path d="M2.09106 15.2295H0.302734V17.0081H2.09106V15.2295Z" fill="#FF2AAA"/>
    <path d="M2.09106 13.4505H0.302734V15.2295H2.09106V13.4505Z" fill="#FF2AAA"/>
    <path d="M2.09106 11.6687H0.302734V13.4492H2.09106V11.6687Z" fill="#FF2AAA"/>
</svg>
