<svg width="63" height="50" viewBox="0 0 63 50" fill="none" xmlns="http://www.w3.org/2000/svg">
    <path d="M2.75036 39.6444C2.16235 38.5047 1.93807 37.2014 2.24722 35.8557C2.44726 34.9949 2.87766 34.1038 3.58083 33.534C3.80512 33.3461 4.52042 33.2673 4.6356 33.043H4.7144C4.8417 33.9523 6.38748 34.316 6.87849 34.9949C8.17574 36.7892 8.38184 39.5959 10.6672 40.5718C11.8492 41.075 13.5951 40.8931 15.3469 40.5294C16.8078 40.2263 18.2748 39.7959 19.4205 39.5292C19.7479 39.4504 20.0449 39.3898 20.3116 39.3473C20.4935 39.317 20.6814 39.2928 20.8754 39.2685L20.8996 39.4564C21.0997 39.8626 21.5967 40.1293 21.8574 40.493C21.9847 40.6688 22.1241 40.8204 22.2696 40.9537L22.2454 40.9719C20.8875 40.9537 19.2144 41.5053 17.8808 41.8751C14.6619 42.7602 11.1339 43.9119 7.78778 43.3239C5.67218 42.9481 3.72026 41.5296 2.75036 39.6565V39.6444Z" fill="#04C74F"/>
    <path d="M1.0473 44.0998C0.847257 43.4633 1.31402 42.8268 1.8414 41.469L1.87171 41.4447C1.99901 41.6144 2.18087 41.772 2.42941 41.9236C4.50863 43.1966 7.03037 44.7424 9.32176 45.5304C12.5709 46.6519 15.8565 44.8212 19.0693 44.3908C20.021 44.2635 21.7062 44.1362 22.5851 44.5848L22.7791 44.5605C23.2459 45.5547 24.5371 46.864 24.9735 47.2762L24.9917 47.4096C21.4819 47.9552 18.1357 49.1312 14.5532 49.0584C11.1646 48.9917 7.18192 48.0582 4.12067 46.6337C2.90223 46.0699 1.48982 45.4819 1.05942 44.0937L1.0473 44.0998Z" fill="#FDEA37"/>
    <path d="M1.87138 41.4448C1.38037 40.8204 1.68953 40.1233 2.58062 39.6929L2.75642 39.6444C3.72632 41.5236 5.67824 42.936 7.79384 43.3118C11.14 43.9059 14.668 42.7481 17.8869 41.8631C19.2205 41.4993 20.8875 40.9477 22.2514 40.9598L22.2757 40.9417C23.8699 42.3844 26.3553 41.2751 28.3618 41.5175C31.0836 41.8509 33.6174 42.5965 36.1877 43.4876C36.5453 43.6149 39.352 44.597 39.455 44.8031L39.4853 44.8697C37.9274 45.5487 36.2604 46.367 34.8237 46.5186L34.7389 46.5974C33.0173 44.8455 30.635 43.6149 28.283 43.3664C26.7493 43.2088 23.9972 42.2631 22.7424 43.5664C22.5303 43.7907 22.5788 44.1484 22.7788 44.5606L22.5848 44.5848C21.7058 44.1363 20.0267 44.2636 19.0689 44.3909C15.8561 44.8213 12.5706 46.6459 9.32143 45.5305C7.03004 44.7424 4.5083 43.1967 2.42908 41.9237C2.1866 41.7721 2.00475 41.6145 1.87138 41.4448Z" fill="#04C74F"/>
    <path d="M4.71525 33.0551C4.66069 32.655 5.04259 31.8609 5.19414 31.5033C5.68515 30.3515 5.98824 29.0482 6.40045 27.8601C6.77022 26.8114 7.03089 25.7445 7.25517 24.6594C7.30367 24.4351 7.25517 23.6956 7.58252 23.6471C8.00685 23.5865 9.29803 24.7867 10.2376 26.2295C11.1772 27.6722 11.2257 28.8058 11.9774 30.6789L12.0501 30.7092C11.9531 30.9274 11.8743 31.1578 11.8137 31.4063C11.3106 33.4067 13.7171 36.5528 14.4324 38.3956C14.6325 38.917 15.2569 39.6989 15.2811 40.2445L15.3357 40.5173C13.5838 40.881 11.8319 41.0629 10.6559 40.5597C8.37056 39.5838 8.17052 36.7771 6.86722 34.9828C6.3762 34.3039 4.83042 33.9402 4.70312 33.043L4.71525 33.0551Z" fill="#CBDBE4"/>
    <path d="M7.58818 23.6532C7.17598 22.6227 7.04261 19.2098 8.77025 19.9433C9.14002 20.1009 10.6616 21.8164 10.9404 22.1074C11.5587 22.756 13.1894 24.417 14.0805 24.9565C15.3898 25.7506 17.3054 25.1808 18.3783 26.084C17.9237 26.375 17.463 26.6538 16.9841 26.9024C15.0746 27.9026 12.9287 28.6967 12.0558 30.7153L11.983 30.685C11.2314 28.8119 11.1829 27.6722 10.2433 26.2356C9.30369 24.7928 8.01251 23.5926 7.58818 23.6532Z" fill="white"/>
    <path d="M18.3782 26.084C20.4938 24.714 22.4033 22.9742 24.5735 21.7073C23.2459 23.8289 22.1427 27.2236 22.1245 27.5388C22.0457 28.8724 23.0035 28.9815 24.0946 28.5996C25.0402 28.2662 28.3318 26.284 29.1502 27.854C29.7443 28.9937 26.7436 30.8183 27.3013 31.8064C27.859 32.8005 32.7328 30.5212 33.2602 30.3091C37.655 28.5329 40.7405 28.4299 42.4318 29.1694C43.8199 29.7696 44.5413 32.5762 45.493 33.0369C46.9054 33.728 48.1602 32.8672 49.6151 33.3218L49.6454 33.334C49.609 33.4128 49.5908 33.5037 49.603 33.6189C49.6878 34.7888 51.6579 35.3404 52.4399 35.8618C52.5005 35.9042 52.5612 35.9406 52.6278 35.983L52.4036 36.0133C51.1366 36.6983 49.3847 37.2984 47.942 36.7104C47.1479 36.3831 46.3902 35.8981 45.5839 35.6132C43.4259 34.8676 41.3224 34.0493 39.1099 33.5219C37.0791 33.043 34.9393 34.6251 32.9146 34.7888C30.793 34.9646 28.4652 34.1887 26.4042 33.8007C24.7008 33.4794 23.0095 33.1642 21.3243 32.8308C20.3968 32.649 19.6088 32.3398 18.651 32.2853C17.669 32.2307 16.5233 31.8367 15.7231 32.655C14.1652 34.2372 17.1295 37.1044 18.1782 38.2077C18.2934 38.335 19.1299 39.0139 19.3785 39.2928L19.4269 39.511C18.2813 39.7777 16.8143 40.2081 15.3534 40.5112L15.2988 40.2384C15.2746 39.6989 14.6502 38.9109 14.4501 38.3896C13.7288 36.5467 11.3283 33.4006 11.8314 31.4002C11.8981 31.1517 11.9769 30.9213 12.0678 30.7031C12.9407 28.6845 15.0866 27.8904 16.9961 26.8902C17.475 26.6416 17.9357 26.3628 18.3904 26.0718L18.3782 26.084Z" fill="white"/>
    <path d="M19.3717 39.311C19.1232 39.0261 18.2927 38.3472 18.1715 38.2259C17.1228 37.1227 14.1525 34.2554 15.7164 32.6733C16.5166 31.8549 17.6623 32.255 18.6443 32.3035C19.6021 32.358 20.3901 32.6672 21.3176 32.8491C23.0028 33.1825 24.6941 33.4977 26.3975 33.819C28.4585 34.2069 30.7863 34.9828 32.9079 34.807C34.9386 34.6373 37.0724 33.0612 39.1032 33.5401C41.3218 34.0614 43.4192 34.8798 45.5772 35.6315C46.3835 35.9103 47.1412 36.4013 47.9353 36.7287C49.378 37.3106 51.1299 36.7165 52.3969 36.0315L52.6211 36.0012C53.5547 36.5892 54.5973 37.0257 55.3308 37.9107C55.7794 38.4502 55.8157 39.2019 56.0703 39.8142V39.8384C53.2758 40.6507 49.372 41.4327 45.9591 41.857C45.5833 41.9055 45.2075 41.9358 44.8377 41.954C43.492 41.7843 41.7401 40.293 40.6126 39.1777C39.2183 37.7955 37.8847 36.1588 37.0542 36.7165C36.0965 37.353 38.6667 41.2811 38.6667 41.2811V41.3114C36.1995 40.7537 33.9263 40.0021 31.8713 39.6687C31.4773 39.602 30.2286 39.4383 28.6161 39.2989V39.2565C28.6161 39.2565 26.9006 37.7349 25.3366 36.7105C23.7727 35.686 23.3059 35.1526 21.3115 34.6373C19.3172 34.116 20.1901 35.4072 21.1176 36.1588C22.045 36.9105 23.1786 38.2078 23.706 39.0261V39.117C22.73 39.1292 21.7601 39.1898 20.869 39.2989C20.675 39.3231 20.4932 39.3474 20.3053 39.3777C20.0386 39.4201 19.7415 39.4807 19.4142 39.5596L19.3657 39.3413L19.3717 39.311Z" fill="#CBDBE4"/>
    <path d="M25.8099 20.6526C20.4572 12.8994 23.5609 12.2023 23.5609 12.2023C23.9549 11.8507 24.3732 11.481 24.9006 11.3718C26.3069 11.0687 28.465 13.3783 29.4834 14.1664C29.6228 14.2755 29.8228 14.427 30.0411 14.6028C30.5927 15.0575 31.2716 15.6637 31.4535 16.0759L31.5383 16.0637C31.5808 16.4396 31.7263 16.8093 31.7081 17.2034C31.6656 18.1308 30.8412 19.222 30.0532 20.1858L29.8774 20.1252C29.5561 19.9858 29.2409 19.7797 28.8893 19.6948C28.2952 19.5433 27.1314 20.1858 26.1918 20.7556L25.8159 20.6526H25.8099Z" fill="white"/>
    <path d="M30.1441 14.5058C29.7682 14.1118 29.3742 13.5359 29.0832 13.1298C28.3437 12.0993 27.0828 11.4264 26.1008 10.6747C25.5673 10.2625 24.4459 9.75939 24.3065 9.00166C24.2034 8.41366 24.749 7.33464 25.4704 6.59509C25.3612 7.09823 25.1551 7.56499 25.2461 8.08631C25.2703 8.21968 25.4097 8.38335 25.6098 8.55308C26.2099 9.0744 27.3738 9.7109 27.7375 9.97762C28.4104 10.4747 29.0832 11.2749 29.6349 12.1175C30.0228 12.7055 30.3502 13.3177 30.5745 13.8633C30.5926 14.2512 30.629 14.6513 30.7321 14.9302L30.823 14.8999C30.8715 14.9544 31.0655 15.1545 31.1503 15.2272C31.2594 15.3121 31.7201 15.7546 32.0778 15.9364L32.0232 16.0456L31.7565 16.2335C31.6413 16.0819 31.5322 15.9546 31.5322 15.9971C31.5322 16.0152 31.5322 16.0395 31.5383 16.0637L31.4534 16.0759C31.2776 15.6637 30.5926 15.0575 30.041 14.6028L30.1441 14.5119V14.5058Z" fill="white"/>
    <path d="M25.2406 8.08632C25.1436 7.56499 25.3557 7.09217 25.4648 6.59509C26.0347 6.00709 26.7015 5.63126 27.2349 5.86161C28.3018 6.32231 28.8231 7.67411 29.3505 8.60764C29.9143 9.58966 30.0416 10.8263 30.2962 11.8992C30.3871 12.269 30.5386 12.7055 30.5447 13.0874C30.5447 13.2995 30.5447 13.5784 30.5629 13.8633C30.3386 13.3177 30.0112 12.7055 29.6233 12.1175L29.7021 12.069C29.1686 10.7172 28.7564 9.49267 27.9563 8.26211C27.738 7.92871 27.2834 7.21947 26.7924 7.28615C26.265 7.35889 25.974 8.06813 25.6649 8.4076L25.5982 8.55308C25.3982 8.37729 25.2587 8.21968 25.2345 8.08632H25.2406Z" fill="white"/>
    <path d="M21.1175 36.1284C20.19 35.3768 19.3171 34.0916 21.3114 34.6069C23.3058 35.1222 23.7665 35.6556 25.3365 36.6801C26.9066 37.7045 28.6221 39.226 28.6221 39.226V39.2685C27.1672 39.1472 25.4214 39.0503 23.7059 39.0745V38.9836C23.1724 38.1713 22.0449 36.868 21.1175 36.1163V36.1284Z" fill="#FE2AAA"/>
    <path d="M22.1247 27.5449C22.1428 27.2236 23.2461 23.8289 24.5737 21.7134C24.7252 21.6224 24.8768 21.5376 25.0283 21.4588C25.2829 21.3193 25.7072 21.0465 26.1861 20.7556C27.1257 20.1858 28.2957 19.5432 28.8837 19.6948C29.2352 19.7857 29.5505 19.9857 29.8717 20.1251L30.0475 20.1858C29.6111 20.7192 29.1867 21.2102 28.914 21.6164C28.7564 21.8528 28.5624 22.0649 28.3684 22.2771L28.3441 22.2529C28.2957 22.2226 28.2411 22.1922 28.1865 22.1619C27.647 21.8952 27.0408 22.0043 26.8408 22.4105C26.665 22.7742 26.865 23.2531 27.3015 23.538C27.35 23.5744 27.4046 23.5986 27.4591 23.6289C27.9986 23.8956 28.6048 23.7865 28.8048 23.3804C28.914 23.1682 28.8837 22.9075 28.7503 22.6772L28.7139 22.6105C29.011 22.4347 29.2959 22.2468 29.5383 22.0286C29.9324 21.683 30.3809 21.3193 30.8174 20.9253L30.8901 21.0041C31.1447 21.2042 31.3145 21.5012 31.5691 21.6952L31.757 21.7376C31.66 22.2286 31.4115 23.1682 31.1205 24.1442L31.0659 24.126C30.6719 24.0229 30.2839 24.1502 30.1385 24.4533C29.9627 24.8231 30.1991 25.3141 30.678 25.5566C30.781 25.6111 30.8962 25.6475 30.9993 25.6657C31.3751 25.7384 31.7267 25.6111 31.8661 25.3262C31.951 25.1504 31.9388 24.9504 31.86 24.7564L31.8419 24.7382C31.8419 24.7382 31.9025 24.6837 31.9267 24.6534C32.3874 24.223 32.8845 23.8471 33.4119 23.5077L33.4725 23.6047C33.7756 23.8411 34.3939 24.4654 34.8 24.6958C34.697 24.9928 34.5758 25.2777 34.4485 25.5384L34.406 25.5202C34.406 25.5202 34.3515 25.5081 34.3151 25.502C33.7938 25.399 33.3088 25.6415 33.2361 26.0476C33.1815 26.3568 33.3816 26.672 33.721 26.8417C33.7756 26.872 33.8423 26.8963 33.9029 26.9205C33.9514 26.9387 33.9999 26.9508 34.0544 26.9629C34.5818 27.066 35.0668 26.8235 35.1334 26.4234C35.1456 26.3568 35.1456 26.284 35.1334 26.2173C35.576 25.9506 36.0245 25.6718 36.4489 25.4111L36.4913 25.4778C36.7156 25.6536 37.4188 25.8172 37.6916 25.8718C37.7461 26.0112 37.7946 26.1506 37.8431 26.2961L37.734 26.3264C37.5097 26.381 37.34 26.5144 37.2915 26.6962C37.2127 27.0114 37.5218 27.363 37.9825 27.4782C38.0916 27.5085 38.2008 27.5206 38.2977 27.5146C38.6312 27.5146 38.9039 27.357 38.9646 27.1145C39.0131 26.9326 38.9282 26.7387 38.7585 26.581C38.8191 26.4841 38.8736 26.3931 38.9342 26.2961C39.2192 25.8597 39.6011 25.5081 39.9102 25.1019C39.9223 25.0838 39.989 25.011 40.0557 24.9383L40.086 24.9625C40.1709 25.6051 40.5285 26.1506 40.8195 26.7144L40.7407 26.7568C40.5588 26.8175 40.4315 26.9266 40.3891 27.0842C40.3103 27.3812 40.6073 27.7146 41.0438 27.8237C41.1711 27.854 41.2923 27.8662 41.4075 27.8601C41.6924 27.8419 41.9167 27.7025 41.9712 27.4903C42.0379 27.2297 41.8136 26.9387 41.462 26.7993C41.3954 26.3871 41.2923 25.9021 41.1468 25.5263H41.159C41.753 25.9991 42.5653 26.2658 43.2018 26.7144C46.2812 28.8542 50.1851 29.8241 53.7798 30.594L54.0404 30.6546C54.0404 30.6546 53.9859 30.6849 53.9677 30.7092C53.707 31.0365 50.8519 32.5762 50.4276 32.7945C50.1427 32.946 49.7729 33.0612 49.6456 33.3461L49.6153 33.334C48.1604 32.8793 46.8996 33.7401 45.4932 33.0491C44.5415 32.5823 43.8262 29.7817 42.4319 29.1816C40.7407 28.4481 37.6552 28.5451 33.2603 30.3212C32.7329 30.5334 27.8592 32.8127 27.3015 31.8185C26.7438 30.8244 29.7444 28.9997 29.1504 27.8662C28.332 26.3022 25.0404 28.2844 24.0948 28.6118C23.0036 28.9997 22.0459 28.8846 22.1247 27.5509V27.5449Z" fill="#0047FF"/>
    <path d="M44.8448 41.9358C45.2146 41.9176 45.5905 41.8873 45.9663 41.8388C49.3731 41.4144 53.2769 40.6325 56.0836 39.8202C57.6657 39.3595 58.8902 38.8866 59.4903 38.4623C61.1452 37.2863 61.0725 36.0557 61.0725 36.0557L61.0907 36.0376C61.0664 35.686 61.0179 35.3768 60.9452 35.1101C62.2909 34.9646 61.9757 37.5227 61.9515 38.3471C61.8666 40.6628 60.1632 43.1118 57.9627 43.9059C57.9021 43.9301 57.8354 43.9483 57.7688 43.9725C54.9076 44.8636 53.1314 44.015 50.3187 43.4027C49.0275 43.1178 47.4878 43.33 46.1663 43.4027C44.5296 43.4937 42.7959 43.6998 41.2501 44.1787C40.6864 44.3545 40.0923 44.603 39.474 44.8697L39.4437 44.803C39.3407 44.5969 36.534 43.6088 36.1764 43.4876C33.6001 42.6026 31.0723 41.8509 28.3505 41.5175C26.344 41.275 23.8586 42.3843 22.2644 40.9416C22.1189 40.8082 21.9794 40.6567 21.8521 40.4809C21.5854 40.1233 21.0883 39.8505 20.8944 39.4443L20.8701 39.2564C21.7612 39.1412 22.7251 39.0867 23.7071 39.0746C25.4165 39.0503 27.1684 39.1473 28.6172 39.2685C30.2357 39.4019 31.4784 39.5716 31.8724 39.6383C33.9274 39.9717 36.2006 40.7234 38.6557 41.2811C40.6076 41.7236 42.6747 42.0449 44.8327 41.9297L44.8448 41.9358Z" fill="#0047FF"/>
    <path d="M22.7671 44.5667C22.5731 44.1545 22.5186 43.7908 22.7307 43.5725C23.9855 42.2632 26.7376 43.2149 28.2713 43.3725C30.6233 43.621 33.0056 44.8516 34.7272 46.6035C35.4001 47.2824 35.9699 48.0462 36.4003 48.8585C33.5754 48.1129 30.7567 47.0884 27.8227 47.149C26.8589 47.1733 25.9132 47.2703 24.9797 47.4158L24.9615 47.2824C24.525 46.8702 23.2339 45.5608 22.7671 44.5667Z" fill="#0047FF"/>
    <path d="M27.2954 23.532C26.8589 23.2471 26.6528 22.7682 26.8347 22.4045C27.0347 21.9983 27.6409 21.8892 28.1804 22.156C28.235 22.1863 28.2895 22.2166 28.338 22.2469L28.3623 22.2711C28.1319 22.5197 27.8955 22.7621 27.6833 23.0167C27.653 23.0531 27.3378 23.3683 27.3499 23.3926C27.3499 23.4047 27.3621 23.4047 27.3681 23.4047L27.2893 23.532H27.2954Z" fill="white"/>
    <path d="M27.2949 23.5319L27.3737 23.4046C27.4768 23.4228 27.8829 23.1015 27.9132 23.0833C28.1678 22.9257 28.4406 22.7741 28.7073 22.6105L28.7437 22.6772C28.871 22.9075 28.9013 23.1621 28.7983 23.3803C28.5982 23.7865 27.992 23.8956 27.4525 23.6289C27.398 23.5986 27.3434 23.5682 27.2949 23.5379V23.5319Z" fill="white"/>
    <path d="M27.3564 23.3865C27.3564 23.3865 27.6595 23.047 27.6898 23.0107C27.902 22.7561 28.1384 22.5136 28.3688 22.2651C28.5628 22.059 28.7507 21.8407 28.9143 21.6043C29.1932 21.1982 29.6175 20.7072 30.0479 20.1737C30.836 19.2099 31.6604 18.1187 31.7028 17.1913C31.721 16.8033 31.5816 16.4275 31.5331 16.0516C31.5331 16.0334 31.5331 16.0092 31.527 15.985C31.527 15.9425 31.6301 16.0698 31.7513 16.2214C31.8847 16.3911 32.0302 16.6033 32.0544 16.6639C32.2544 17.1185 32.503 17.4822 32.5393 17.949C32.5515 18.0824 32.5454 18.2278 32.5151 18.3855C32.4302 18.834 32.2363 19.2462 31.9817 19.6281C31.6664 20.0949 31.2482 20.5192 30.8178 20.9133C30.3813 21.3073 29.9327 21.6649 29.5387 22.0165C29.2962 22.2347 29.0053 22.4227 28.7143 22.5985C28.4476 22.7561 28.1687 22.9137 27.9202 23.0713C27.8899 23.0895 27.4837 23.4107 27.3807 23.3926C27.3746 23.3926 27.3625 23.3926 27.3625 23.3804L27.3564 23.3865Z" fill="white"/>
    <path d="M30.8053 14.8937C30.8841 14.9483 30.5992 13.7541 30.7871 13.7844C31.0296 13.8208 31.2478 13.9905 31.4478 14.2087C31.5448 14.3178 31.6357 14.433 31.7206 14.5542C31.9206 14.8391 32.0964 15.1362 32.2419 15.3241C32.3329 15.4393 32.5753 15.7787 32.4602 15.9303C32.448 15.9485 32.4359 15.9606 32.4177 15.9727C32.3329 16.0273 32.2056 16.003 32.0601 15.9363C31.7024 15.7606 31.2417 15.312 31.1326 15.2271C31.0477 15.1604 30.8538 14.9543 30.8053 14.8998C30.8053 14.8998 30.8053 14.8937 30.7992 14.8876L30.8053 14.8937Z" fill="white"/>
    <path d="M31.4482 14.2087L31.7938 14.1784C31.6847 14.0511 32.109 13.4874 32.1878 13.354C32.6424 12.5114 33.679 11.881 34.4307 11.3233C35.9037 10.2382 37.4434 9.31074 38.4255 7.72859C38.9407 6.89811 39.2438 5.91608 39.5651 5.00074C39.6681 4.70371 39.8076 4.15208 40.1046 3.98235C40.3713 3.82474 41.5958 4.12177 41.7231 4.36424C41.7777 4.47336 41.6746 4.74614 41.6443 4.86132C41.5291 5.23109 41.2018 5.60693 40.9957 5.93427C40.3835 6.89205 39.8318 7.87407 39.1589 8.80154C38.4073 9.83812 37.5041 10.7716 36.4614 11.5112C35.6673 12.0689 34.5883 12.1416 33.7639 12.663C33.0001 13.1418 32.6 13.9723 31.9514 14.5482H31.7332C31.6483 14.433 31.5574 14.3118 31.4604 14.2087H31.4482Z" fill="white"/>
    <path d="M30.672 25.5506C30.1992 25.3081 29.9567 24.8171 30.1325 24.4474C30.278 24.1443 30.6659 24.023 31.06 24.12L31.1145 24.1382C30.9751 24.6171 30.8175 25.102 30.6659 25.5506H30.672Z" fill="white"/>
    <path d="M30.8901 21.0042L30.8174 20.9254C31.2478 20.5314 31.666 20.107 31.9813 19.6403L32.0479 19.6888C32.0479 19.6888 31.8903 21.0527 31.763 21.7195V21.7437L31.5691 21.7013C31.3145 21.5013 31.1447 21.2042 30.8901 21.0102V21.0042Z" fill="#0047FF"/>
    <path d="M32.8965 14.7422C32.7026 14.7786 32.1024 15.009 32.1267 14.8514C32.2297 14.2573 34.1999 14.0754 34.7091 14.0391C37.1702 13.8512 39.2918 13.1177 41.1104 11.4203C42.0318 10.5596 42.638 9.32293 43.226 8.23179C43.9595 6.86787 44.7475 5.53426 45.6629 4.28551C46.2569 3.47928 46.6752 3.60052 47.2693 4.30976C47.3723 4.43706 47.7724 4.66135 47.7603 4.85533C47.7421 5.10992 47.3056 5.28572 47.1662 5.46151C46.6934 6.05558 46.069 6.67389 45.7356 7.35888C45.3234 8.20148 44.5596 8.87435 44.1353 9.72301C43.7473 10.4929 43.2199 11.2749 42.6865 11.9538C41.462 13.4935 41.0801 14.4452 38.9645 14.8332C37.5278 15.0938 36.0063 14.5604 34.5696 14.5846C34.0059 14.5907 33.4482 14.6331 32.8905 14.7422H32.8965Z" fill="white"/>
    <path d="M32.0117 16.0455L32.0663 15.9364C32.2118 16.0031 32.3391 16.0334 32.4239 15.9728L32.527 16.0819C33.5332 17.1063 34.879 17.7307 36.0429 18.5794C36.3338 18.7915 37.2189 19.2765 37.1522 19.7311C37.0552 20.3919 36.5339 21.2527 35.9398 21.6043C35.764 21.7073 35.4185 21.774 35.273 21.9134L35.2003 21.9801C35.0912 21.8467 34.9699 21.7376 34.9093 21.7316L34.588 21.6346C34.3152 21.4163 34.1152 21.1496 33.9455 20.8586L34.0606 20.792C34.5032 20.3555 35.4609 20.1252 35.57 19.4038C35.6246 19.0704 34.9578 18.6642 34.7456 18.4945C33.7757 17.7004 32.8907 16.9305 32.0178 16.0395L32.0117 16.0455Z" fill="white"/>
    <path d="M32.0479 19.6827L31.9812 19.6342C32.2358 19.2523 32.4298 18.8401 32.5147 18.3915C32.545 18.2339 32.5511 18.0945 32.5389 17.9551H32.6117C33.036 18.1248 33.1633 18.2097 33.2179 18.6461C33.2482 18.8825 33.23 19.1371 33.1815 19.3917C33.1027 19.8343 32.939 20.2828 32.842 20.6769C32.6117 21.6407 32.2661 22.5621 31.86 23.4593C31.563 24.1382 31.2296 24.7989 30.8901 25.4536L31.0113 25.5688L30.9932 25.6537C30.884 25.6355 30.7749 25.593 30.6719 25.5445C30.8234 25.102 30.981 24.611 31.1205 24.1321C31.4114 23.1562 31.6539 22.2166 31.757 21.7256V21.7013C31.8903 21.0406 32.0358 19.6706 32.0479 19.6706V19.6827Z" fill="white"/>
    <path d="M31.0109 25.5808L30.8896 25.4656C31.2231 24.8109 31.5565 24.1502 31.8595 23.4713L31.8959 23.4895C32.7082 22.8227 33.5023 22.271 34.4904 21.8891C34.5935 21.8528 34.7874 21.7376 34.9026 21.7436C34.9632 21.7436 35.0845 21.8528 35.1936 21.9922C35.333 22.1558 35.4603 22.3498 35.4542 22.4286C35.4542 22.4286 35.4542 22.4286 35.4542 22.4347C35.4239 22.4589 35.2784 22.5317 35.0905 22.6165C34.7511 22.7742 34.2904 22.9742 34.2116 23.0166C33.9388 23.1803 33.666 23.3379 33.4053 23.5137C32.8779 23.8532 32.3809 24.2229 31.9202 24.6594C31.8899 24.6836 31.8656 24.714 31.8353 24.7443C31.5807 24.9928 31.2897 25.302 31.0169 25.5869L31.0109 25.5808Z" fill="white"/>
    <path d="M30.9992 25.6657L31.0174 25.5809C31.2902 25.296 31.5872 24.9808 31.8358 24.7383L31.854 24.7565C31.9388 24.9504 31.9449 25.1505 31.86 25.3263C31.7206 25.6112 31.369 25.7385 30.9932 25.6657H30.9992Z" fill="white"/>
    <path d="M31.8604 23.4713C32.2665 22.5742 32.612 21.6528 32.8424 20.6889C32.9394 20.2949 33.097 19.8463 33.1818 19.4038L33.2849 19.422C33.5031 19.8888 33.6789 20.4101 33.9456 20.8708C34.1093 21.1618 34.3154 21.4345 34.5882 21.6467L34.9095 21.7437C34.7943 21.7437 34.6003 21.8528 34.4973 21.8892C33.5092 22.2711 32.7151 22.8227 31.9028 23.4895L31.8664 23.4713H31.8604Z" fill="#0047FF"/>
    <path d="M33.4659 23.6046L33.4053 23.5076C33.672 23.3318 33.9387 23.1682 34.2115 23.0106C34.2903 22.9621 34.751 22.7681 35.0905 22.6105L35.1572 22.7438C35.1814 23.344 35.0238 24.0471 34.7934 24.6958C34.3873 24.4654 33.769 23.841 33.4659 23.6046Z" fill="#0047FF"/>
    <path d="M33.7144 26.8418C33.381 26.666 33.1749 26.3568 33.2294 26.0477C33.3022 25.6415 33.7871 25.399 34.3084 25.5021C34.3388 25.5021 34.3691 25.5142 34.3994 25.5203L34.4418 25.5385C34.3933 25.6476 34.3388 25.7446 34.2903 25.8476C34.169 26.078 33.9265 26.666 33.7204 26.8357L33.7144 26.8418Z" fill="white"/>
    <path d="M34.0056 26.7386L34.042 26.8174C33.9995 26.8417 33.9571 26.8599 33.9147 26.878L33.9026 26.9205C33.8359 26.9023 33.7753 26.878 33.7207 26.8477C33.9268 26.6719 34.1693 26.09 34.2905 25.8536C34.3451 25.7566 34.3936 25.6535 34.4421 25.5444C34.5694 25.2838 34.6906 24.9989 34.7937 24.7018C35.024 24.0532 35.1816 23.35 35.1574 22.7499L35.0907 22.6165C35.2786 22.5317 35.4241 22.4589 35.4544 22.4347L35.6302 22.5499C35.7393 22.6347 36.0424 22.762 36.0909 22.8893C36.1151 22.956 36.1212 23.0409 36.1151 23.1318C36.0909 23.4349 35.903 23.8229 35.8363 24.035C35.709 24.4351 35.3756 25.1444 34.9695 25.7505C34.6724 26.1991 34.3269 26.5931 34.0117 26.7447L34.0056 26.7386Z" fill="white"/>
    <path d="M33.9033 26.9145L33.9154 26.872C33.9579 26.8539 34.0003 26.8296 34.0427 26.8114C34.3883 26.6417 34.758 26.4295 35.1339 26.2113C35.146 26.278 35.146 26.3447 35.1339 26.4174C35.0611 26.8175 34.5762 27.06 34.0549 26.9569C34.0064 26.9509 33.9518 26.9327 33.9033 26.9145Z" fill="white"/>
    <path d="M34.0422 26.8114L34.0059 26.7326C34.3211 26.575 34.6605 26.187 34.9636 25.7385L35.0061 25.7688C35.5941 25.2171 36.1942 24.6534 36.8428 24.1745C36.9277 24.1139 37.0247 24.0108 37.1277 23.932C37.1883 23.8835 37.249 23.8411 37.3096 23.8229C37.4914 23.7683 38.1825 24.0169 38.1946 24.2775C38.1946 24.2897 38.1946 24.2957 38.1946 24.3078C38.1764 24.3988 37.6369 24.7201 37.3399 24.8898C37.255 24.9383 37.1944 24.9747 37.1641 24.9868C36.9337 25.108 36.6913 25.2535 36.4488 25.399C36.0184 25.6536 35.5759 25.9385 35.1334 26.2052C34.7575 26.4295 34.3938 26.6417 34.0422 26.8053V26.8114Z" fill="white"/>
    <path d="M35.0063 25.7688L34.9639 25.7385C35.37 25.1323 35.7034 24.417 35.8307 24.023C35.8974 23.8108 36.0853 23.4228 36.1096 23.1198L36.2308 23.1379C36.4793 23.338 36.8431 23.7199 37.1583 23.8108L37.128 23.932C37.0249 24.0108 36.9279 24.1139 36.8431 24.1745C36.1944 24.6473 35.5943 25.2111 35.0063 25.7688Z" fill="#0047FF"/>
    <path d="M37.4252 25.0171C37.4252 25.0171 37.4676 25.1565 37.4737 25.1868C37.5282 25.3445 37.5222 25.496 37.601 25.6536C37.6373 25.7264 37.6616 25.793 37.6919 25.8658C37.4191 25.8112 36.7159 25.6475 36.4917 25.4718L36.4492 25.4051C36.6978 25.2535 36.9402 25.1141 37.1645 24.9929C37.1948 24.9747 37.2554 24.9444 37.3403 24.8959L37.4191 25.0171H37.4252Z" fill="#0047FF"/>
    <path d="M37.4245 25.0171L37.3457 24.8958C37.6427 24.7261 38.1822 24.4048 38.2004 24.3139C38.2004 24.3018 38.2004 24.2896 38.2004 24.2836H38.255C38.261 24.3139 38.3035 24.5442 38.3156 24.623C38.3338 24.8594 38.3338 25.0959 38.3277 25.3383C38.3277 25.5141 38.3338 25.6839 38.3459 25.8536C38.3641 26.2112 38.4005 26.5689 38.358 26.9265C38.358 26.9629 38.358 27.1084 38.352 27.2236C38.3459 27.3024 38.3338 27.363 38.3095 27.3691C38.261 27.363 38.0913 26.9872 38.0792 26.9447C37.9943 26.7326 37.9276 26.5083 37.8549 26.2901C37.8064 26.1446 37.7579 26.0051 37.7034 25.8657C37.673 25.793 37.6488 25.7202 37.6124 25.6475C37.5397 25.4899 37.5397 25.3444 37.4851 25.1807C37.473 25.1504 37.4366 25.0171 37.4366 25.011L37.4245 25.0171Z" fill="#0047FF"/>
    <path d="M37.9826 27.4782C37.5219 27.363 37.2128 27.0114 37.2916 26.6962C37.3401 26.5083 37.5098 26.3749 37.7341 26.3265L37.8432 26.2961C37.9159 26.5144 37.9887 26.7387 38.0675 26.9508C38.0796 26.9872 38.2493 27.363 38.2978 27.3752V27.5206C38.1948 27.5206 38.0857 27.5085 37.9766 27.4843L37.9826 27.4782Z" fill="white"/>
    <path d="M38.3096 24.623C38.3036 24.5442 38.2611 24.3139 38.249 24.2836C38.3703 24.3806 39.1159 24.5806 39.2553 24.6291L39.2735 24.6533C38.8916 24.9261 38.5097 25.4717 38.34 25.8475C38.3278 25.6778 38.3218 25.502 38.3218 25.3323C38.3218 25.0898 38.3218 24.8594 38.3096 24.617V24.623Z" fill="#0047FF"/>
    <path d="M34.7266 46.6034L34.8114 46.5246C36.2542 46.3731 37.9151 45.5547 39.473 44.8758C40.0913 44.609 40.6854 44.3605 41.2491 44.1847C42.7889 43.6998 44.5286 43.4997 46.1653 43.4088C47.4868 43.3361 49.0265 43.1239 50.3177 43.4088C53.1244 44.0271 54.9005 44.8758 57.7678 43.9786C57.8344 43.9604 57.8951 43.9362 57.9617 43.9119L57.992 43.9907C57.8951 44.2453 55.3915 46.1973 54.9732 46.3306C54.4398 46.5004 54.0882 45.8335 53.5426 46.0033C53.0031 46.173 53.5123 46.8459 53.4699 47.0399C53.4396 47.1914 50.9966 47.9067 50.7057 47.9916C50.3662 48.1007 49.8146 46.955 49.2872 47.446C49.0083 47.7067 49.1356 48.4705 48.9659 48.5796C48.8022 48.6887 46.4987 48.9251 46.2441 48.9069C46.1471 48.9009 46.2623 47.6339 45.0439 47.9673C44.5044 48.1189 44.9105 49.0463 44.5468 49.1615C43.977 49.3373 43.2496 49.2585 42.6555 49.3252C41.3643 49.4646 40.0004 49.5919 38.7274 49.3737C37.9575 49.2403 37.1877 49.0585 36.4178 48.8524C35.9874 48.0401 35.4176 47.2823 34.7447 46.5973L34.7266 46.6034Z" fill="#FDEA37"/>
    <path d="M38.352 26.9266C38.3883 26.5689 38.358 26.2052 38.3398 25.8536C38.5096 25.4778 38.8854 24.9322 39.2734 24.6595C39.5219 24.4897 39.7704 24.4291 39.9705 24.611C40.019 24.6534 40.122 24.6716 40.1705 24.7201C40.1705 24.7201 40.1827 24.7322 40.1887 24.7443C40.2008 24.7686 40.1342 24.8595 40.0614 24.9444C40.0008 25.0171 39.9341 25.0898 39.9159 25.108C39.6068 25.5142 39.2249 25.8658 38.94 26.3022C38.8794 26.3932 38.8187 26.4901 38.7642 26.5871C38.7096 26.6841 38.649 26.7811 38.5884 26.8781C38.5459 26.9508 38.5035 27.0236 38.4611 27.0963C38.4429 27.1266 38.4126 27.2115 38.4065 27.2297H38.352C38.358 27.1145 38.352 26.969 38.358 26.9327L38.352 26.9266Z" fill="white"/>
    <path d="M38.2971 27.5146V27.3691C38.3213 27.3691 38.3334 27.3024 38.3395 27.2236H38.3941C38.3941 27.2054 38.4304 27.1206 38.4486 27.0903C38.4911 27.0175 38.5335 26.9448 38.5759 26.872C38.6365 26.775 38.6911 26.678 38.7517 26.5811C38.9214 26.7387 39.0063 26.9326 38.9578 27.1145C38.8972 27.357 38.6244 27.5085 38.291 27.5146H38.2971Z" fill="white"/>
    <path d="M38.6739 41.2569C38.6739 41.2569 36.1037 37.3348 37.0615 36.6923C37.892 36.1346 39.2256 37.7713 40.6198 39.1534C41.7473 40.2688 43.4992 41.76 44.8449 41.9297C42.6869 42.0449 40.6198 41.7236 38.6679 41.2811V41.2508L38.6739 41.2569Z" fill="#FE2AAA"/>
    <path d="M40.0918 24.9686L40.0615 24.9444C40.1343 24.8595 40.2009 24.7686 40.1888 24.7443C40.1888 24.7383 40.1767 24.7262 40.1706 24.7201H40.1949C40.1949 24.7868 40.5162 24.7746 40.5707 24.7928C40.7768 24.8656 40.9102 25.0656 41.0072 25.2414C41.0557 25.3263 41.0981 25.4233 41.1405 25.5263C41.286 25.9022 41.3891 26.3871 41.4558 26.7993C41.4739 26.9145 41.4921 27.0297 41.5042 27.1267C41.5224 27.2479 41.5406 27.648 41.4073 27.7147C41.4073 27.7147 41.3951 27.7147 41.3891 27.7147C41.2739 27.6965 40.9951 27.0903 40.9647 27.0297C40.9162 26.9266 40.8678 26.8236 40.8132 26.7205C40.5222 26.1568 40.1646 25.6112 40.0797 24.9686H40.0918Z" fill="white"/>
    <path d="M41.0437 27.8238C40.6073 27.7147 40.3163 27.3873 40.3891 27.0843C40.4254 26.9266 40.5588 26.8115 40.7407 26.7569L40.8195 26.7145C40.874 26.8175 40.9225 26.9206 40.971 27.0236C40.9953 27.0843 41.2802 27.6904 41.3953 27.7086L41.4075 27.8541C41.2923 27.8602 41.171 27.8541 41.0437 27.8177V27.8238Z" fill="white"/>
    <path d="M41.5097 27.1265C41.4976 27.0235 41.4794 26.9144 41.4612 26.7992C41.8189 26.9386 42.0432 27.2296 41.9704 27.4902C41.9159 27.7024 41.6916 27.8418 41.4067 27.86L41.3945 27.7145C41.3945 27.7145 41.4067 27.7145 41.4127 27.7145C41.5461 27.6479 41.5218 27.2478 41.5097 27.1265Z" fill="white"/>
    <path d="M49.5971 33.625C49.591 33.5159 49.6031 33.425 49.6395 33.3401C49.7668 33.0491 50.1366 32.934 50.4215 32.7885C50.8458 32.5703 53.6949 31.0305 53.9616 30.7032C53.9798 30.6789 54.0041 30.6608 54.0344 30.6486C54.4526 30.4607 56.0469 31.079 58.1686 32.4611C59.4719 33.3098 60.5388 33.5947 60.9328 35.1223C61.0055 35.389 61.054 35.6982 61.0783 36.0498L61.0601 36.068C61.0601 36.068 61.1389 37.2985 59.4779 38.4745C58.8839 38.8989 57.6533 39.3656 56.0712 39.8324V39.8081C55.8105 39.1959 55.7681 38.4442 55.3195 37.9047C54.586 37.0257 53.5434 36.5893 52.6098 35.9952C52.5492 35.9588 52.4886 35.9164 52.4219 35.874C51.6399 35.3527 49.6698 34.801 49.585 33.6311L49.5971 33.625Z" fill="#CBDBE4"/>
    <path d="M29.8708 20.1192C29.5496 19.9797 29.2344 19.7736 28.8828 19.6888C28.2887 19.5372 27.1248 20.1798 26.1852 20.7496C25.7063 21.0406 25.282 21.3134 25.0274 21.4528C24.8759 21.5376 24.7243 21.6225 24.5728 21.7074C22.4026 22.9682 20.4992 24.7141 18.3775 26.084C17.9229 26.375 17.4622 26.6539 16.9833 26.9024C15.0738 27.9026 12.9279 28.6967 12.055 30.7153C11.958 30.9336 11.8792 31.1639 11.8186 31.4124C11.3154 33.4129 13.722 36.559 14.4373 38.4018C14.6374 38.9231 15.2617 39.7051 15.286 40.2507" stroke="black" stroke-width="0.5" stroke-linecap="round" stroke-linejoin="round"/>
    <path d="M18.4206 26.1144C18.4206 26.1144 18.3963 26.0962 18.3842 26.0841C17.3112 25.1869 15.3957 25.7507 14.0863 24.9566C13.1952 24.4171 11.5585 22.7561 10.9463 22.1075C10.6674 21.8165 9.14588 20.095 8.77611 19.9434C7.04847 19.2039 7.18184 22.6228 7.59404 23.6533" stroke="black" stroke-width="0.5" stroke-linecap="round" stroke-linejoin="round"/>
    <path d="M11.9881 30.6851C11.2364 28.812 11.188 27.6723 10.2484 26.2357C9.30877 24.793 8.01759 23.5927 7.59326 23.6533C7.26592 23.7018 7.30835 24.4353 7.26592 24.6657C7.04163 25.7507 6.78097 26.8176 6.4112 27.8663C5.99899 29.0545 5.69589 30.3578 5.20488 31.5095C5.05333 31.8672 4.67144 32.6613 4.72599 33.0614C4.85329 33.9585 6.39907 34.3283 6.89008 35.0012C8.18733 36.7955 8.39343 39.6021 10.6788 40.5781C11.8608 41.0812 13.6066 40.8994 15.3585 40.5357C16.8194 40.2326 18.2864 39.8022 19.4321 39.5354C19.7594 39.4566 20.0565 39.396 20.3232 39.3536C20.5051 39.3233 20.693 39.299 20.887 39.2748C21.7781 39.1596 22.7419 39.105 23.7239 39.0929C25.4334 39.0687 27.1852 39.1657 28.634 39.2869C30.2526 39.4203 31.4952 39.59 31.8893 39.6567C33.9442 39.9901 36.2174 40.7418 38.6725 41.2994C40.6244 41.742 42.6915 42.0632 44.8496 41.9481C45.2193 41.9299 45.5952 41.8996 45.971 41.8511C49.3778 41.4267 53.2816 40.6448 56.0883 39.8325C57.6704 39.3718 58.8949 38.8989 59.495 38.4746C61.1499 37.2986 61.0772 36.068 61.0772 36.068" stroke="black" stroke-width="0.5" stroke-linecap="round" stroke-linejoin="round"/>
    <path d="M24.603 21.665C24.603 21.665 24.5848 21.6953 24.5727 21.7135C23.2451 23.8352 22.1419 27.2298 22.1237 27.5451C22.0449 28.8787 23.0027 28.9878 24.0938 28.6059C25.0394 28.2725 28.331 26.2903 29.1494 27.8603C29.7435 28.9999 26.7428 30.8245 27.3005 31.8126C27.8582 32.8068 32.732 30.5275 33.2594 30.3153C37.6542 28.5392 40.7397 28.4362 42.431 29.1757C43.8191 29.7758 44.5405 32.5825 45.4922 33.0432C46.9046 33.7342 48.1594 32.8734 49.6143 33.3281" stroke="black" stroke-width="0.5" stroke-linecap="round" stroke-linejoin="round"/>
    <path d="M52.3974 36.0195C51.1305 36.7045 49.3786 37.3046 47.9359 36.7166C47.1418 36.3893 46.3841 35.9043 45.5778 35.6194C43.4198 34.8738 41.3163 34.0554 39.1037 33.5281C37.073 33.0492 34.9332 34.6313 32.9085 34.795C30.7869 34.9708 28.4591 34.1949 26.3981 33.8069C24.6947 33.4856 23.0034 33.1704 21.3182 32.837C20.3907 32.6552 19.6027 32.346 18.6449 32.2914C17.6629 32.2369 16.5172 31.8429 15.717 32.6612C14.1591 34.2434 17.1234 37.1106 18.1721 38.2139C18.2873 38.3412 19.1238 39.0201 19.3723 39.299C19.4208 39.3596 19.4511 39.402 19.439 39.4141" stroke="black" stroke-width="0.5" stroke-linecap="round" stroke-linejoin="round"/>
    <path d="M23.7059 38.9959C23.1785 38.1836 22.0449 36.8803 21.1175 36.1287C20.19 35.377 19.3171 34.0919 21.3114 34.6071C23.3058 35.1224 23.7665 35.6558 25.3365 36.6803C26.9066 37.7048 28.6221 39.2263 28.6221 39.2263" stroke="black" stroke-width="0.5" stroke-linecap="round" stroke-linejoin="round"/>
    <path d="M38.673 41.2569C38.673 41.2569 36.1027 37.3348 37.0605 36.6923C37.891 36.1346 39.2246 37.7713 40.6188 39.1534C41.7463 40.2688 43.4982 41.76 44.844 41.9297C44.8925 41.9358 44.9409 41.9419 44.9834 41.9479" stroke="black" stroke-width="0.5" stroke-linecap="round" stroke-linejoin="round"/>
    <path d="M61.0845 36.0497C61.0603 35.6982 61.0118 35.389 60.9391 35.1223C60.545 33.5947 59.4721 33.3158 58.1748 32.4611C56.0532 31.0729 54.4589 30.4607 54.0406 30.6486C54.0103 30.6607 53.9861 30.6789 53.9679 30.7032C53.7072 31.0305 50.8521 32.5702 50.4278 32.7885C50.1429 32.94 49.7731 33.0552 49.6458 33.3401C49.6094 33.4189 49.5912 33.5098 49.6033 33.625C49.6882 34.7949 51.6583 35.3466 52.4403 35.8679C52.5009 35.9103 52.5615 35.9467 52.6282 35.9891C53.5618 36.5771 54.6044 37.0136 55.3379 37.8986C55.7865 38.4381 55.8228 39.1898 56.0774 39.8021" stroke="black" stroke-width="0.5" stroke-linecap="round" stroke-linejoin="round"/>
    <path d="M28.75 22.6712C28.8773 22.9016 28.9076 23.1562 28.8046 23.3744C28.6045 23.7805 27.9984 23.8896 27.4588 23.6229C27.4043 23.5926 27.3497 23.5623 27.3012 23.532C26.8648 23.2471 26.6587 22.7682 26.8405 22.4045C27.0406 21.9983 27.6468 21.8892 28.1863 22.156C28.2408 22.1863 28.2954 22.2166 28.3439 22.2469" stroke="black" stroke-width="0.5" stroke-linecap="round" stroke-linejoin="round"/>
    <path d="M31.8531 24.7564C31.938 24.9504 31.944 25.1505 31.8591 25.3263C31.7197 25.6112 31.3681 25.7385 30.9923 25.6657C30.8832 25.6475 30.7741 25.6051 30.671 25.5566C30.1982 25.3141 29.9557 24.8231 30.1315 24.4533C30.277 24.1502 30.665 24.029 31.059 24.126" stroke="black" stroke-width="0.5" stroke-linecap="round" stroke-linejoin="round"/>
    <path d="M33.7144 26.8418C33.381 26.666 33.1749 26.3568 33.2294 26.0477C33.3022 25.6415 33.7871 25.399 34.3084 25.5021C34.3388 25.5021 34.3691 25.5142 34.3994 25.5203" stroke="black" stroke-width="0.5" stroke-linecap="round" stroke-linejoin="round"/>
    <path d="M35.1331 26.2114C35.1452 26.2781 35.1452 26.3448 35.1331 26.4175C35.0604 26.8176 34.5754 27.0601 34.0541 26.957C34.0056 26.951 33.9511 26.9328 33.9026 26.9146C33.8359 26.8964 33.7753 26.8722 33.7207 26.8419" stroke="black" stroke-width="0.5" stroke-linecap="round" stroke-linejoin="round"/>
    <path d="M38.7585 26.5811C38.9283 26.7387 39.0131 26.9327 38.9646 27.1146C38.904 27.3571 38.6312 27.5086 38.2978 27.5147C38.1948 27.5147 38.0917 27.5025 37.9826 27.4783C37.5219 27.3631 37.2128 27.0115 37.2916 26.6963C37.3401 26.5084 37.5098 26.375 37.7341 26.3265" stroke="black" stroke-width="0.5" stroke-linecap="round" stroke-linejoin="round"/>
    <path d="M41.461 26.7933C41.8187 26.9327 42.043 27.2237 41.9702 27.4843C41.9157 27.6965 41.6914 27.8359 41.4065 27.8541C41.2913 27.8602 41.1701 27.8541 41.0428 27.8177C40.6063 27.7086 40.3154 27.3813 40.3881 27.0782C40.4245 26.9206 40.5578 26.8054 40.7397 26.7509" stroke="black" stroke-width="0.5" stroke-linecap="round" stroke-linejoin="round"/>
    <path d="M31.7507 16.2334C31.6355 16.0819 31.5264 15.9546 31.5264 15.997C31.5264 16.0152 31.5264 16.0395 31.5324 16.0637C31.5749 16.4396 31.7204 16.8093 31.7022 17.2033C31.6597 18.1308 30.8353 19.222 30.0473 20.1858C29.6108 20.7192 29.1865 21.2102 28.9137 21.6164C28.7561 21.8528 28.5621 22.065 28.3681 22.2771C28.1378 22.5257 27.9014 22.7682 27.6892 23.0228C27.6589 23.0591 27.3437 23.3743 27.3558 23.3986C27.3558 23.4107 27.3679 23.4107 27.374 23.4107C27.477 23.4289 27.8832 23.1076 27.9135 23.0894C28.1681 22.9318 28.4409 22.7803 28.7076 22.6166C29.0046 22.4408 29.2895 22.2529 29.532 22.0347C29.926 21.6891 30.3746 21.3254 30.8111 20.9314C31.2415 20.5374 31.6597 20.113 31.975 19.6463C32.2296 19.2644 32.4235 18.8522 32.5084 18.4036C32.5387 18.246 32.5448 18.1066 32.5327 17.9671C32.4902 17.5004 32.2477 17.1306 32.0477 16.682C32.0174 16.6153 31.8719 16.4092 31.7446 16.2395L31.7507 16.2334Z" stroke="black" stroke-width="0.5" stroke-linecap="round" stroke-linejoin="round"/>
    <path d="M30.6719 25.5506C30.8234 25.1081 30.981 24.6171 31.1205 24.1382C31.4114 23.1622 31.6539 22.2226 31.757 21.7316V21.7074C31.8903 21.0466 32.0358 19.6766 32.0479 19.6766C32.0479 19.6766 32.0479 19.6888 32.0479 19.7069" stroke="black" stroke-width="0.5" stroke-linecap="round" stroke-linejoin="round"/>
    <path d="M32.6112 17.9611C33.0356 18.1369 33.1629 18.2217 33.2174 18.6582C33.2477 18.8946 33.2295 19.1492 33.181 19.4038C33.1022 19.8463 32.9386 20.2949 32.8416 20.6889C32.6112 21.6527 32.2657 22.5741 31.8595 23.4713C31.5625 24.1502 31.2291 24.811 30.8896 25.4657" stroke="black" stroke-width="0.5" stroke-linecap="round" stroke-linejoin="round"/>
    <path d="M31.0107 25.5809C31.2835 25.296 31.5806 24.9808 31.8291 24.7383C31.8594 24.708 31.8897 24.6837 31.914 24.6534C32.3747 24.223 32.8717 23.8472 33.3991 23.5077C33.6658 23.3319 33.9326 23.1683 34.2054 23.0107C34.2842 22.9622 34.7449 22.7682 35.0843 22.6106C35.2722 22.5257 35.4177 22.453 35.448 22.4287C35.448 22.4287 35.448 22.4287 35.448 22.4227C35.4541 22.3499 35.3268 22.1499 35.1874 21.9862C35.0783 21.8528 34.957 21.7437 34.8964 21.7377C34.7812 21.7377 34.5873 21.8468 34.4842 21.8832C33.4961 22.2651 32.702 22.8167 31.8897 23.4835" stroke="black" stroke-width="0.5" stroke-linecap="round" stroke-linejoin="round"/>
    <path d="M33.7148 26.8418C33.9209 26.6661 34.1634 26.0841 34.2847 25.8477C34.3392 25.7507 34.3877 25.6477 34.4362 25.5385C34.5635 25.2779 34.6847 24.993 34.7878 24.6959C35.0181 24.0473 35.1758 23.3441 35.1515 22.744" stroke="black" stroke-width="0.5" stroke-linecap="round" stroke-linejoin="round"/>
    <path d="M35.6239 22.5439C35.733 22.6288 36.0361 22.7561 36.0846 22.8834C36.1088 22.9501 36.1149 23.035 36.1088 23.1259C36.0846 23.429 35.8967 23.8169 35.83 24.0291C35.7027 24.4292 35.3693 25.1384 34.9631 25.7446C34.6661 26.1932 34.3206 26.5872 34.0054 26.7388C33.9811 26.7509 33.9569 26.763 33.9326 26.7691" stroke="black" stroke-width="0.5" stroke-linecap="round" stroke-linejoin="round"/>
    <path d="M35.0062 25.7688C35.5942 25.2171 36.1943 24.6534 36.8429 24.1745C36.9278 24.1139 37.0248 24.0108 37.1278 23.932C37.1885 23.8835 37.2491 23.8411 37.3097 23.8229C37.4915 23.7683 38.1826 24.0169 38.1947 24.2775C38.1947 24.2897 38.1947 24.2957 38.1947 24.3078C38.1765 24.3988 37.637 24.7201 37.34 24.8898C37.2551 24.9383 37.1945 24.9747 37.1642 24.9868C36.9339 25.108 36.6914 25.2535 36.4489 25.399C36.0185 25.6536 35.576 25.9385 35.1335 26.2052C34.7576 26.4295 34.3939 26.6417 34.0423 26.8053C33.9999 26.8296 33.9575 26.8478 33.915 26.866" stroke="black" stroke-width="0.5" stroke-linecap="round" stroke-linejoin="round"/>
    <path d="M37.6915 25.8659C37.6612 25.7931 37.637 25.7204 37.6006 25.6537C37.5279 25.4961 37.5279 25.3506 37.4733 25.1869C37.4612 25.1566 37.4248 25.0233 37.4248 25.0172C37.4248 25.0172 37.4248 25.0233 37.4248 25.0354" stroke="black" stroke-width="0.5" stroke-linecap="round" stroke-linejoin="round"/>
    <path d="M38.2489 24.2836C38.2489 24.2836 38.2974 24.5442 38.3095 24.623C38.3277 24.8594 38.3277 25.0959 38.3216 25.3383C38.3216 25.5141 38.3277 25.6839 38.3398 25.8536C38.358 26.2112 38.3944 26.5689 38.3519 26.9265C38.3519 26.9629 38.3519 27.1084 38.3459 27.2236C38.3398 27.3024 38.3277 27.363 38.3035 27.3691C38.255 27.363 38.0852 26.9872 38.0731 26.9447C37.9882 26.7326 37.9216 26.5083 37.8488 26.2901C37.8003 26.1446 37.7518 26.0051 37.6973 25.8657" stroke="black" stroke-width="0.5" stroke-linecap="round" stroke-linejoin="round"/>
    <path d="M38.4007 27.2236C38.4007 27.2236 38.437 27.1206 38.4552 27.0842C38.4977 27.0114 38.5401 26.9387 38.5825 26.866C38.6431 26.769 38.6977 26.672 38.7583 26.575C38.8189 26.478 38.8735 26.3871 38.9341 26.2901C39.219 25.8536 39.6009 25.502 39.9101 25.0959C39.9222 25.0777 39.9889 25.005 40.0556 24.9322C40.1283 24.8474 40.195 24.7564 40.1829 24.7322C40.1829 24.7261 40.1707 24.714 40.1647 24.7079C40.1162 24.6594 40.0131 24.6413 39.9646 24.5988C39.7646 24.417 39.5161 24.4715 39.2675 24.6473C38.8856 24.9201 38.5037 25.4657 38.334 25.8415" stroke="black" stroke-width="0.5" stroke-linecap="round" stroke-linejoin="round"/>
    <path d="M40.2011 24.708C40.2011 24.7868 40.5224 24.7747 40.5769 24.7929C40.7831 24.8656 40.9164 25.0657 41.0134 25.2415C41.0619 25.3263 41.1043 25.4233 41.1468 25.5264C41.2923 25.9022 41.3953 26.3871 41.462 26.7994C41.4802 26.9145 41.4984 27.0297 41.5105 27.1267C41.5287 27.2479 41.5468 27.648 41.4135 27.7147C41.4135 27.7147 41.4014 27.7147 41.3953 27.7147C41.2801 27.6965 41.0013 27.0903 40.971 27.0297C40.9225 26.9267 40.874 26.8236 40.8194 26.7206C40.5285 26.1568 40.1708 25.6112 40.0859 24.9687" stroke="black" stroke-width="0.5" stroke-linecap="round" stroke-linejoin="round"/>
    <path d="M30.8896 21.0042C31.1442 21.2042 31.314 21.5012 31.5686 21.6952" stroke="black" stroke-width="0.5" stroke-linecap="round" stroke-linejoin="round"/>
    <path d="M33.4658 23.6047C33.7689 23.8411 34.3872 24.4655 34.7934 24.6959" stroke="black" stroke-width="0.5" stroke-linecap="round" stroke-linejoin="round"/>
    <path d="M36.4912 25.4719C36.7155 25.6477 37.4187 25.8114 37.6915 25.8659" stroke="black" stroke-width="0.5" stroke-linecap="round" stroke-linejoin="round"/>
    <path d="M33.2842 19.422C33.5024 19.8888 33.6782 20.4101 33.9449 20.8708C34.1086 21.1618 34.3147 21.4345 34.5875 21.6467" stroke="black" stroke-width="0.5" stroke-linecap="round" stroke-linejoin="round"/>
    <path d="M36.2236 23.1379C36.4722 23.338 36.8359 23.7199 37.1511 23.8108C37.1632 23.8108 37.1814 23.8169 37.1935 23.8229" stroke="black" stroke-width="0.5" stroke-linecap="round" stroke-linejoin="round"/>
    <path d="M38.249 24.2776C38.3703 24.3746 39.1159 24.5746 39.2553 24.6292" stroke="black" stroke-width="0.5" stroke-linecap="round" stroke-linejoin="round"/>
    <path d="M41.1592 25.5203C41.7532 25.9992 42.5655 26.2659 43.202 26.7084C46.2815 28.8482 50.1853 29.8181 53.78 30.588" stroke="black" stroke-width="0.5" stroke-linecap="round" stroke-linejoin="round"/>
    <path d="M31.4535 16.0699C31.2777 15.6577 30.5927 15.0516 30.0411 14.5969C29.8228 14.4211 29.6228 14.2696 29.4834 14.1605C28.465 13.3785 26.3069 11.0689 24.9006 11.3659C24.3732 11.475 23.9489 11.8448 23.5609 12.1964C23.5609 12.1964 20.4572 12.8875 25.8099 20.6467" stroke="black" stroke-width="0.5" stroke-linecap="round" stroke-linejoin="round"/>
    <path d="M30.5683 13.8633C30.5562 13.5784 30.5501 13.2995 30.5501 13.0874C30.544 12.7055 30.3925 12.269 30.3016 11.8992C30.047 10.8263 29.9136 9.58966 29.3559 8.60764C28.8225 7.67411 28.3072 6.32231 27.2403 5.86161C26.7069 5.63126 26.034 6.00709 25.4702 6.59509C24.7549 7.33464 24.2033 8.41366 24.3064 9.00166C24.4458 9.75939 25.5672 10.2686 26.1007 10.6747C27.0827 11.4264 28.3436 12.1053 29.0831 13.1298C29.3741 13.5359 29.7681 14.1118 30.1439 14.5058C30.2046 14.5665 30.2591 14.621 30.3137 14.6695" stroke="black" stroke-width="0.5" stroke-linecap="round" stroke-linejoin="round"/>
    <path d="M30.7383 14.9787C30.7383 14.9787 30.7262 14.9545 30.7201 14.9363C30.6231 14.6574 30.5807 14.2513 30.5625 13.8694" stroke="black" stroke-width="0.5" stroke-linecap="round" stroke-linejoin="round"/>
    <path d="M25.4646 6.59509C25.3555 7.09217 25.1494 7.56499 25.2403 8.08631C25.2646 8.21968 25.404 8.38335 25.604 8.55308C26.2042 9.0744 27.3681 9.7109 27.7318 9.97762C28.4046 10.4747 29.0775 11.2749 29.6291 12.1175C30.0171 12.7055 30.3444 13.3177 30.5687 13.8633C30.5869 13.8997 30.599 13.936 30.6172 13.9724" stroke="black" stroke-width="0.5" stroke-linecap="round" stroke-linejoin="round"/>
    <path d="M25.6768 8.40758C25.9859 8.06205 26.2769 7.35281 26.8043 7.28613C27.2892 7.21945 27.7499 7.92869 27.9681 8.26209C28.7623 9.49265 29.1745 10.7232 29.714 12.069" stroke="black" stroke-width="0.5" stroke-linecap="round" stroke-linejoin="round"/>
    <path d="M30.8053 14.8938C30.8841 14.9484 30.5992 13.7542 30.7871 13.7845C31.0296 13.8209 31.2478 13.9906 31.4478 14.2088C31.5448 14.3179 31.6357 14.4331 31.7206 14.5544C31.9206 14.8393 32.0964 15.1363 32.2419 15.3242C32.3329 15.4394 32.5753 15.7789 32.4602 15.9304C32.448 15.9486 32.4359 15.9607 32.4177 15.9728C32.3329 16.0274 32.2056 16.0031 32.0601 15.9365C31.7024 15.7607 31.2417 15.3121 31.1326 15.2272C31.0477 15.1605 30.8538 14.9544 30.8053 14.8999C30.8053 14.8999 30.8053 14.8938 30.7992 14.8878" stroke="black" stroke-width="0.5" stroke-linecap="round" stroke-linejoin="round"/>
    <path d="M35.2724 21.9194C35.4179 21.78 35.7634 21.7073 35.9392 21.6103C36.5393 21.2587 37.0546 20.3979 37.1516 19.7371C37.2243 19.2825 36.3393 18.7975 36.0423 18.5854C34.8784 17.7367 33.5326 17.1123 32.5264 16.0879" stroke="black" stroke-width="0.5" stroke-linecap="round" stroke-linejoin="round"/>
    <path d="M34.0604 20.8041C34.5029 20.3677 35.4607 20.1373 35.5698 19.416C35.6244 19.0826 34.9576 18.6764 34.7454 18.5067C33.7755 17.7126 32.8905 16.9427 32.0176 16.0516" stroke="black" stroke-width="0.5" stroke-linecap="round" stroke-linejoin="round"/>
    <path d="M31.7932 14.1784C31.6841 14.0511 32.1084 13.4874 32.1872 13.354C32.6419 12.5114 33.6785 11.881 34.4301 11.3233C35.9032 10.2382 37.4429 9.31074 38.4249 7.72859C38.9402 6.89811 39.2433 5.91608 39.5645 5.00074C39.6676 4.70371 39.807 4.15208 40.104 3.98235C40.3708 3.82474 41.5953 4.12177 41.7226 4.36424C41.7771 4.47336 41.6741 4.74614 41.6438 4.86132C41.5286 5.23109 41.2012 5.60693 40.9951 5.93427C40.3829 6.89205 39.8313 7.87407 39.1584 8.80154C38.4067 9.83812 37.5035 10.7716 36.4609 11.5112C35.6668 12.0689 34.5877 12.1416 33.7633 12.663C32.9995 13.1418 32.5994 13.9723 31.9508 14.5482" stroke="black" stroke-width="0.5" stroke-linecap="round" stroke-linejoin="round"/>
    <path d="M32.1269 14.8514C32.2299 14.2573 34.2001 14.0754 34.7093 14.0391C37.1704 13.8512 39.292 13.1177 41.1106 11.4203C42.032 10.5596 42.6382 9.32293 43.2262 8.23179C43.9597 6.86787 44.7477 5.53426 45.6631 4.28551C46.2571 3.47928 46.6754 3.60052 47.2695 4.30976C47.3725 4.43706 47.7726 4.66135 47.7605 4.85533C47.7423 5.10992 47.3058 5.28572 47.1664 5.46151C46.6936 6.05558 46.0692 6.67389 45.7358 7.35888C45.3236 8.20148 44.5598 8.87435 44.1355 9.72301C43.7475 10.4929 43.2201 11.2749 42.6867 11.9538C41.4622 13.4935 41.0803 14.4452 38.9647 14.8332C37.528 15.0938 36.0065 14.5604 34.5698 14.5846C34.0061 14.5907 33.4484 14.6331 32.8907 14.7422C32.6967 14.7786 32.0966 15.009 32.1208 14.8514H32.1269Z" stroke="black" stroke-width="0.5" stroke-linecap="round" stroke-linejoin="round"/>
    <path d="M40.959 3.85514C41.3348 2.92768 41.25 1.93353 41.4864 1" stroke="black" stroke-width="0.5" stroke-linecap="round" stroke-linejoin="round"/>
    <path d="M48.6572 1.63049C48.2329 2.12757 47.3236 3.40056 47.166 4.031" stroke="black" stroke-width="0.5" stroke-linecap="round" stroke-linejoin="round"/>
    <path d="M60.9384 35.1224C62.2841 34.9769 61.9689 37.535 61.9447 38.3595C61.8598 40.6751 60.1564 43.1241 57.956 43.9182C57.8954 43.9424 57.8287 43.9606 57.762 43.9849C54.9008 44.876 53.1247 44.0273 50.3119 43.4151C49.0208 43.1302 47.481 43.3423 46.1596 43.4151C44.5229 43.506 42.7892 43.7121 41.2434 44.191C40.6796 44.3668 40.0856 44.6153 39.4672 44.882C37.9093 45.561 36.2423 46.3793 34.8057 46.5309" stroke="black" stroke-width="0.5" stroke-linecap="round" stroke-linejoin="round"/>
    <path d="M57.9802 43.9969C57.8833 44.2515 55.3797 46.2034 54.9614 46.3368C54.428 46.5065 54.0764 45.8397 53.5308 46.0095C52.9913 46.1792 53.5005 46.8521 53.4581 47.046C53.4278 47.1976 50.9848 47.9129 50.6939 47.9978C50.3544 48.1069 49.8028 46.9612 49.2754 47.4522C48.9965 47.7128 49.1238 48.4766 48.9541 48.5858C48.7904 48.6949 46.4869 48.9313 46.2323 48.9131C46.1353 48.907 46.2505 47.6401 45.0321 47.9735C44.4926 48.1251 44.8987 49.0525 44.535 49.1677C43.9652 49.3435 43.2378 49.2647 42.6437 49.3314C41.3525 49.4708 39.9886 49.5981 38.7156 49.3799C37.9457 49.2465 37.1759 49.0646 36.406 48.8585C33.5812 48.1129 30.7624 47.0885 27.8285 47.1491C26.8646 47.1733 25.919 47.2703 24.9854 47.4158C21.4756 47.9614 18.1295 49.1374 14.5469 49.0646C11.1583 48.998 7.17565 48.0644 4.11441 46.6399C2.89597 46.0761 1.48355 45.4881 1.05316 44.1C0.853116 43.4635 1.31988 42.827 1.84726 41.4691" stroke="black" stroke-width="0.5" stroke-linecap="round" stroke-linejoin="round"/>
    <path d="M36.4185 48.8827C36.4185 48.8827 36.4064 48.8646 36.4003 48.8524C35.9699 48.0401 35.4001 47.2824 34.7272 46.5974C33.0057 44.8455 30.6234 43.615 28.2713 43.3664C26.7377 43.2088 23.9856 42.2632 22.7308 43.5665C22.5186 43.7908 22.5671 44.1484 22.7672 44.5606C23.2339 45.5548 24.5251 46.8641 24.9616 47.2763" stroke="black" stroke-width="0.5" stroke-linecap="round" stroke-linejoin="round"/>
    <path d="M4.63535 33.0492C4.52017 33.2735 3.80487 33.3523 3.58058 33.5402C2.87741 34.11 2.44701 35.0011 2.24697 35.8619C1.93175 37.2076 2.1621 38.5109 2.75011 39.6506C3.72001 41.5298 5.67193 42.9422 7.78752 43.318C11.1337 43.9121 14.6617 42.7543 17.8805 41.8692C19.2142 41.5055 20.8812 40.9539 22.2451 40.966" stroke="black" stroke-width="0.5" stroke-linecap="round" stroke-linejoin="round"/>
    <path d="M20.8936 39.4565C21.0936 39.8627 21.5907 40.1294 21.8513 40.4931C21.9786 40.6689 22.1181 40.8205 22.2635 40.9538C23.8578 42.3966 26.3432 41.2872 28.3497 41.5297C31.0714 41.8631 33.6053 42.6087 36.1755 43.4998C36.5332 43.6271 39.3398 44.6091 39.4429 44.8152" stroke="black" stroke-width="0.5" stroke-linecap="round" stroke-linejoin="round"/>
    <path d="M22.579 44.5909C21.7 44.1423 20.0208 44.2696 19.0631 44.3969C15.8503 44.8273 12.5647 46.6519 9.31557 45.5366C7.02418 44.7485 4.50244 43.2027 2.42322 41.9297C2.18074 41.7782 1.99889 41.6206 1.86553 41.4509C1.37451 40.8265 1.68367 40.1294 2.57476 39.699" stroke="black" stroke-width="0.5" stroke-linecap="round" stroke-linejoin="round"/>
</svg>
