<svg width="31" height="32" viewBox="0 0 31 32" fill="none" xmlns="http://www.w3.org/2000/svg">
    <path d="M30.6807 16.3186C30.6807 24.8785 23.9645 31.8186 15.6807 31.8186C7.39686 31.8186 0.680664 24.8785 0.680664 16.3186C0.680664 7.75868 7.39686 0.818604 15.6807 0.818604C23.9662 0.818604 30.6807 7.75868 30.6807 16.3186Z"
          fill="#2081E2"/>
    <path d="M8.08103 16.8394L8.14576 16.7343L12.0479 10.4265C12.1049 10.3341 12.239 10.3437 12.2821 10.444C12.934 11.9537 13.4965 13.8312 13.233 15.0001C13.1205 15.481 12.8123 16.1324 12.4655 16.7343C12.4208 16.8219 12.3715 16.9079 12.3191 16.9907C12.2944 17.0289 12.2528 17.0512 12.2081 17.0512H8.19506C8.0872 17.0512 8.02403 16.9302 8.08103 16.8394Z"
          fill="white"/>
    <path d="M25.474 18.0115V19.01C25.474 19.0673 25.4401 19.1183 25.3908 19.1406C25.0887 19.2744 24.0546 19.7648 23.6247 20.3827C22.5274 21.9608 21.689 24.2174 19.815 24.2174H11.997C9.22606 24.2174 6.98066 21.8892 6.98066 19.0164V18.924C6.98066 18.8475 7.04076 18.7854 7.11476 18.7854H11.473C11.5593 18.7854 11.6225 18.8683 11.6148 18.9558C11.584 19.2489 11.6364 19.5483 11.7704 19.8206C12.0294 20.3636 12.5657 20.7028 13.1451 20.7028H15.3027V18.9622H13.1698C13.0604 18.9622 12.9956 18.8316 13.0588 18.7393C13.0819 18.7026 13.1081 18.6644 13.1359 18.6214C13.3378 18.3252 13.6259 17.865 13.9126 17.3411C14.1083 16.9875 14.2979 16.6101 14.4504 16.2311C14.4813 16.1626 14.5059 16.0926 14.5306 16.0241C14.5722 15.9031 14.6153 15.79 14.6462 15.6769C14.677 15.5814 14.7016 15.4811 14.7263 15.3871C14.7987 15.0654 14.8296 14.7246 14.8296 14.3711C14.8296 14.2325 14.8234 14.0876 14.8111 13.9491C14.8049 13.7978 14.7864 13.6465 14.7679 13.4952C14.7556 13.3614 14.7325 13.2293 14.7078 13.0907C14.677 12.8885 14.6338 12.6878 14.5845 12.4856L14.5676 12.4092C14.5306 12.2706 14.4998 12.1384 14.4566 11.9999C14.3349 11.5651 14.1946 11.1415 14.0467 10.745C13.9927 10.5874 13.9311 10.4361 13.8694 10.2848C13.7785 10.0571 13.686 9.85004 13.6013 9.65415C13.5581 9.56498 13.5211 9.48376 13.4842 9.40095C13.4426 9.30699 13.3994 9.21306 13.3563 9.12385C13.3254 9.05537 13.29 8.99168 13.2653 8.928L13.0018 8.42476C12.9648 8.35629 13.0265 8.27507 13.0989 8.29577L14.7479 8.7576H14.7525C14.7556 8.7576 14.7571 8.75919 14.7587 8.75919L14.976 8.82129L15.2148 8.89135L15.3027 8.91684V7.90403C15.3027 7.41513 15.6818 7.0186 16.1503 7.0186C16.3845 7.0186 16.5972 7.11732 16.7498 7.27818C16.9023 7.43903 16.9979 7.65879 16.9979 7.90403V9.40733L17.1736 9.45827C17.1875 9.46306 17.2013 9.46943 17.2137 9.47897C17.2568 9.51242 17.3184 9.56181 17.397 9.62229C17.4587 9.67327 17.525 9.73537 17.6051 9.79906C17.7638 9.93126 17.9534 10.1017 18.1614 10.2975C18.2169 10.3469 18.2709 10.3978 18.3202 10.4488C18.5883 10.7068 18.8888 11.0094 19.1755 11.3438C19.2556 11.4377 19.3342 11.5333 19.4144 11.6336C19.4945 11.7355 19.5793 11.8359 19.6532 11.9362C19.7503 12.07 19.8551 12.2085 19.946 12.3534C19.9892 12.4219 20.0385 12.492 20.0801 12.5604C20.1972 12.7436 20.3005 12.9331 20.3991 13.1226C20.4407 13.2102 20.4839 13.3057 20.5209 13.3997C20.6303 13.6529 20.7166 13.9109 20.7721 14.1689C20.789 14.2246 20.8014 14.2851 20.8075 14.3393V14.352C20.826 14.4284 20.8322 14.5097 20.8383 14.5925C20.863 14.8568 20.8507 15.1211 20.7952 15.3871C20.7721 15.5002 20.7413 15.6068 20.7043 15.7199C20.6673 15.8282 20.6303 15.9413 20.5825 16.048C20.4901 16.2693 20.3806 16.4907 20.2512 16.6977C20.2096 16.7741 20.1603 16.8554 20.1109 16.9318C20.057 17.013 20.0015 17.0895 19.9522 17.1643C19.8844 17.2599 19.812 17.3602 19.738 17.4493C19.6717 17.5433 19.6039 17.6373 19.5299 17.7201C19.4267 17.8459 19.3281 17.9653 19.2248 18.08C19.1632 18.1548 19.0969 18.2313 19.0291 18.2997C18.9628 18.3762 18.895 18.4447 18.8334 18.5083C18.7301 18.615 18.6438 18.6979 18.5714 18.7663L18.4018 18.9272C18.3772 18.9495 18.3448 18.9622 18.3109 18.9622H16.9979V20.7028H18.65C19.0198 20.7028 19.3712 20.5674 19.6548 20.319C19.7519 20.2314 20.1757 19.8524 20.6765 19.2807C20.6935 19.2616 20.7151 19.2473 20.7397 19.2409L25.3029 17.8777C25.3877 17.8522 25.474 17.9191 25.474 18.0115Z"
          fill="white"/>
</svg>
