<svg width="24" height="24" viewBox="0 0 24 24" fill="none" xmlns="http://www.w3.org/2000/svg">
    <g clip-path="url(#clip0_301_12535)">
        <path d="M23.5996 11.1493C23.5432 10.7307 23.5004 10.3103 23.4272 9.89483C23.0459 7.71741 22.0946 5.82422 20.5872 4.21152C20.5469 4.16861 20.5109 4.12196 20.4594 4.06164C20.7211 3.7998 20.9778 3.54356 21.2345 3.2867C21.6494 2.87062 22.068 2.45827 22.4754 2.03473C22.5417 1.96569 22.6087 1.82762 22.5826 1.75672C22.5535 1.6796 22.4214 1.6087 22.3253 1.59315C19.9137 1.21687 17.5009 0.848062 15.0881 0.478007C14.726 0.422654 14.6671 0.482983 14.7229 0.851172C15.0856 3.24192 15.4472 5.63266 15.8099 8.02341C15.818 8.07503 15.8273 8.12603 15.8403 8.17702C15.8961 8.40155 16.066 8.45814 16.231 8.29706C16.5503 7.98547 16.8622 7.66641 17.1772 7.35046C17.5431 6.9829 17.9096 6.61533 18.2748 6.24838C20.1109 8.02341 21.0981 11.1225 20.2027 14.1732C19.3668 17.021 16.3754 20.178 11.8394 19.8328C11.9951 20.8553 12.1501 21.8722 12.315 22.9519C13.0077 22.8878 13.6948 22.8791 14.3595 22.7535C18.5539 21.9611 21.4156 19.5436 22.9535 15.557C23.3026 14.6508 23.4874 13.7005 23.5599 12.7296C23.5649 12.6643 23.586 12.5997 23.5996 12.535C23.5996 12.0729 23.5996 11.6114 23.5996 11.1493Z"
              fill="white"/>
        <path d="M6.10385 17.4749C4.2913 15.7266 3.25015 12.5883 4.2113 9.47299C5.20284 6.25942 8.46519 3.52972 12.543 3.89853C12.4822 3.48556 12.4239 3.07756 12.3619 2.67081C12.2782 2.11915 12.1821 1.56936 12.1114 1.01645C12.0891 0.843549 12.019 0.81805 11.8695 0.819915C8.64378 0.849769 5.90046 2.01218 3.71212 4.39235C1.63479 6.65186 0.673633 9.35544 0.804474 12.4185C0.920433 15.1376 1.93306 17.5041 3.78468 19.5024C3.82932 19.5509 3.87087 19.6019 3.95582 19.7002C3.88265 19.75 3.80576 19.7867 3.74871 19.8439C3.13233 20.4577 2.51657 21.0722 1.90763 21.6941C1.84376 21.7595 1.77245 21.8907 1.79787 21.9541C1.83012 22.0356 1.95042 22.1183 2.04281 22.1332C3.21418 22.3223 4.38803 22.4989 5.56126 22.6781C6.79278 22.8665 8.02492 23.055 9.25644 23.2428C9.32217 23.2527 9.38852 23.2621 9.45549 23.267C9.644 23.2813 9.71469 23.1837 9.68803 23.0071C9.56649 22.2054 9.44185 21.4043 9.31969 20.6026C9.07413 18.9924 8.82919 17.3816 8.58363 15.7714C8.57495 15.7123 8.57681 15.6476 8.55138 15.5966C8.50798 15.5102 8.46023 15.387 8.3883 15.3646C8.31637 15.3423 8.18987 15.402 8.12538 15.4654C7.49969 16.0805 6.88269 16.7043 6.26259 17.325C6.21113 17.3766 6.15718 17.4251 6.10509 17.4749H6.10385Z"
              fill="white"/>
    </g>
    <defs>
        <clipPath id="clip0_301_12535">
            <rect width="22.8085" height="22.8085" fill="white" transform="matrix(-1 0 0 1 23.5996 0.460205)"/>
        </clipPath>
    </defs>
</svg>
