<svg width="48" height="48" viewBox="0 0 48 48" fill="none" xmlns="http://www.w3.org/2000/svg">
    <circle cx="24" cy="24" r="24" fill="#FE2AAA"/>
    <path d="M41 16.9412C39.859 17.4559 38.6291 17.7941 37.3547 17.9559C38.6587 17.1765 39.6664 15.9412 40.1405 14.4559C38.9106 15.1912 37.5473 15.7059 36.1099 16C34.9393 14.7353 33.2945 14 31.4273 14C27.945 14 25.0999 16.8235 25.0999 20.3088C25.0999 20.8088 25.1592 21.2941 25.2629 21.75C19.9876 21.4853 15.2902 18.9706 12.1635 15.1618C11.6152 16.0882 11.304 17.1765 11.304 18.3235C11.304 20.5147 12.4154 22.4559 14.1343 23.5588C13.0822 23.5588 12.1042 23.2647 11.2447 22.8235V22.8676C11.2447 25.9265 13.4379 28.4853 16.3423 29.0588C15.4098 29.3121 14.4308 29.3473 13.4823 29.1618C13.8848 30.4154 14.673 31.5124 15.7362 32.2984C16.7994 33.0845 18.0841 33.5201 19.4097 33.5441C17.1626 35.3095 14.3773 36.2637 11.5115 36.25C11.0076 36.25 10.5038 36.2206 10 36.1618C12.8155 37.9559 16.1644 39 19.7505 39C31.4273 39 37.8437 29.3824 37.8437 21.0441C37.8437 20.7647 37.8437 20.5 37.8289 20.2206C39.0736 19.3382 40.1405 18.2206 41 16.9412Z" fill="white"/>
</svg>
